<svg width="22" height="22" viewBox="0 0 22 22" fill="none" xmlns="http://www.w3.org/2000/svg">
<path d="M19.6665 5.58334H4.0665C2.7665 5.58334 2.33317 4.93334 2.33317 4.50001L19.6665 2.87501V1.25001C19.6665 0.600008 19.0165 0.0583409 18.3665 0.166674L2.00817 3.09167C0.924837 3.30834 0.166504 4.17501 0.166504 5.25834V19.6667C0.166504 20.8583 1.1415 21.8333 2.33317 21.8333H19.6665C20.8582 21.8333 21.8332 20.8583 21.8332 19.6667V7.75001C21.8332 6.55834 20.8582 5.58334 19.6665 5.58334ZM18.0415 15.3333C17.1748 15.3333 16.4165 14.575 16.4165 13.7083C16.4165 12.8417 17.1748 12.0833 18.0415 12.0833C18.9082 12.0833 19.6665 12.8417 19.6665 13.7083C19.6665 14.575 18.9082 15.3333 18.0415 15.3333Z" fill="url(#paint0_linear_399_802)"/>
<defs>
<linearGradient id="paint0_linear_399_802" x1="22.9988" y1="10.9931" x2="0.166504" y2="10.9931" gradientUnits="userSpaceOnUse">
<stop stop-color="#FFA000"/>
<stop offset="1" stop-color="#FFD54F"/>
</linearGradient>
</defs>
</svg>
