<svg width="69" height="21" viewBox="0 0 69 21" fill="none" xmlns="http://www.w3.org/2000/svg">
<path d="M28.892 16.73C28.508 16.826 27.998 16.928 27.362 17.036C26.738 17.144 26.012 17.198 25.184 17.198C24.464 17.198 23.858 17.096 23.366 16.892C22.874 16.676 22.478 16.376 22.178 15.992C21.878 15.608 21.662 15.158 21.53 14.642C21.398 14.114 21.332 13.532 21.332 12.896V7.64H23.006V12.536C23.006 13.676 23.186 14.492 23.546 14.984C23.906 15.476 24.512 15.722 25.364 15.722C25.544 15.722 25.73 15.716 25.922 15.704C26.114 15.692 26.294 15.68 26.462 15.668C26.63 15.644 26.78 15.626 26.912 15.614C27.056 15.59 27.158 15.566 27.218 15.542V7.64H28.892V16.73ZM34.5839 17.18C33.5519 17.156 32.8199 16.934 32.3879 16.514C31.9559 16.094 31.7399 15.44 31.7399 14.552V3.32L33.4139 3.032V14.282C33.4139 14.558 33.4379 14.786 33.4859 14.966C33.5339 15.146 33.6119 15.29 33.7199 15.398C33.8279 15.506 33.9719 15.59 34.1519 15.65C34.3319 15.698 34.5539 15.74 34.8179 15.776L34.5839 17.18ZM38.2638 7.64H41.8098V9.044H38.2638V13.364C38.2638 13.832 38.2998 14.222 38.3718 14.534C38.4438 14.834 38.5518 15.074 38.6958 15.254C38.8398 15.422 39.0198 15.542 39.2358 15.614C39.4518 15.686 39.7038 15.722 39.9918 15.722C40.4958 15.722 40.8978 15.668 41.1978 15.56C41.5098 15.44 41.7258 15.356 41.8458 15.308L42.1698 16.694C42.0018 16.778 41.7078 16.88 41.2878 17C40.8678 17.132 40.3878 17.198 39.8478 17.198C39.2118 17.198 38.6838 17.12 38.2638 16.964C37.8558 16.796 37.5258 16.55 37.2738 16.226C37.0218 15.902 36.8418 15.506 36.7338 15.038C36.6378 14.558 36.5898 14.006 36.5898 13.382V5.03L38.2638 4.742V7.64ZM45.614 17H43.94V7.64H45.614V17ZM44.768 5.948C44.468 5.948 44.21 5.852 43.994 5.66C43.79 5.456 43.688 5.186 43.688 4.85C43.688 4.514 43.79 4.25 43.994 4.058C44.21 3.854 44.468 3.752 44.768 3.752C45.068 3.752 45.32 3.854 45.524 4.058C45.74 4.25 45.848 4.514 45.848 4.85C45.848 5.186 45.74 5.456 45.524 5.66C45.32 5.852 45.068 5.948 44.768 5.948ZM51.8767 11.852C52.2367 12.128 52.6147 12.47 53.0107 12.878C53.4187 13.286 53.8147 13.73 54.1987 14.21C54.5947 14.678 54.9667 15.158 55.3147 15.65C55.6627 16.13 55.9567 16.58 56.1967 17H54.2347C53.9827 16.58 53.6887 16.154 53.3527 15.722C53.0287 15.278 52.6867 14.858 52.3267 14.462C51.9667 14.054 51.6007 13.682 51.2287 13.346C50.8567 13.01 50.5027 12.728 50.1667 12.5V17H48.4927V3.32L50.1667 3.032V11.564C50.4547 11.276 50.7727 10.958 51.1207 10.61C51.4687 10.262 51.8107 9.908 52.1467 9.548C52.4827 9.188 52.8007 8.846 53.1007 8.522C53.4007 8.186 53.6587 7.892 53.8747 7.64H55.8367C55.5607 7.94 55.2607 8.27 54.9367 8.63C54.6127 8.99 54.2767 9.356 53.9287 9.728C53.5807 10.088 53.2267 10.454 52.8667 10.826C52.5187 11.186 52.1887 11.528 51.8767 11.852ZM59.571 17H57.897V7.64H59.571V17ZM58.725 5.948C58.425 5.948 58.167 5.852 57.951 5.66C57.747 5.456 57.645 5.186 57.645 4.85C57.645 4.514 57.747 4.25 57.951 4.058C58.167 3.854 58.425 3.752 58.725 3.752C59.025 3.752 59.277 3.854 59.481 4.058C59.697 4.25 59.805 4.514 59.805 4.85C59.805 5.186 59.697 5.456 59.481 5.66C59.277 5.852 59.025 5.948 58.725 5.948ZM64.0158 7.64H67.5618V9.044H64.0158V13.364C64.0158 13.832 64.0518 14.222 64.1238 14.534C64.1958 14.834 64.3038 15.074 64.4478 15.254C64.5918 15.422 64.7718 15.542 64.9878 15.614C65.2038 15.686 65.4558 15.722 65.7438 15.722C66.2478 15.722 66.6498 15.668 66.9498 15.56C67.2618 15.44 67.4778 15.356 67.5978 15.308L67.9218 16.694C67.7538 16.778 67.4598 16.88 67.0398 17C66.6198 17.132 66.1398 17.198 65.5998 17.198C64.9638 17.198 64.4358 17.12 64.0158 16.964C63.6078 16.796 63.2778 16.55 63.0258 16.226C62.7738 15.902 62.5938 15.506 62.4858 15.038C62.3898 14.558 62.3418 14.006 62.3418 13.382V5.03L64.0158 4.742V7.64Z" fill="white"/>
<path d="M10.1537 11.8062C10.1311 11.5354 10.1055 11.265 10.075 10.9951C10.0606 10.8687 10.0458 10.7429 10.0296 10.6166C10.0226 10.5677 10.0157 10.5188 10.0084 10.4699C9.93984 10.0111 9.85959 9.55358 9.75349 9.10206C9.72308 8.97209 9.68992 8.84239 9.65515 8.71298C9.6507 8.72719 9.6454 8.74093 9.64094 8.75542C9.43442 9.39897 9.27204 10.0567 9.13089 10.7181C8.80944 12.2218 8.61694 13.7481 8.31502 15.2556C8.1623 16.0193 8.00551 16.8033 7.71647 17.5296C7.45585 18.1851 7.13176 18.8272 6.40864 19.0603C5.02843 19.505 4.3792 17.8401 4.06572 16.8478C3.69786 15.6841 3.44709 14.4844 3.15615 13.2997C3.10083 13.0741 3.04427 12.8486 2.9862 12.6233C2.66173 14.1887 2.49404 15.8033 1.88716 17.2836C1.88262 17.2948 1.87759 17.3065 1.87305 17.3176L7.1976 20.4028C7.75058 20.7232 8.50354 20.8604 9.22913 20.8161C9.25148 20.7721 9.27393 20.7286 9.29478 20.6839C9.31325 20.6447 9.33116 20.6057 9.34878 20.5663C9.42674 20.3702 9.49903 20.1714 9.56212 19.9697C9.71266 19.4888 9.83174 18.9978 9.92449 18.5024C9.9746 18.2358 10.0194 17.9679 10.0572 17.6992C10.0574 17.698 10.0574 17.6972 10.0579 17.6962C10.0652 17.6376 10.0727 17.5794 10.0795 17.5209C10.0961 17.3798 10.1119 17.2387 10.1257 17.0971C10.1827 16.5178 10.2208 15.9362 10.2396 15.3542C10.2776 14.1718 10.2517 12.9856 10.1537 11.8062Z" fill="#C8C8C8"/>
<path d="M12.5439 15.428C12.493 16.7964 12.3879 18.2492 12.0644 19.6299L16.2518 17.1929C17.2234 16.6298 17.9999 15.2508 17.9999 14.128V13.7951L11.1343 6.37C11.5831 6.95982 11.8045 7.77645 11.9686 8.48877C12.4883 10.7414 12.6296 13.1231 12.5439 15.428Z" fill="#C8C8C8"/>
<path d="M16.2519 4.63216L10.7208 1.42212C9.74921 0.859293 8.16427 0.859293 7.19275 1.42212L1.70952 4.63216C0.738091 5.19518 0 6.57445 0 7.69688V14.128C0 14.477 0.0222634 14.8505 0.157262 15.2167C0.389366 14.2588 0.520766 13.2857 0.71886 12.3199C0.868732 11.5885 1.0078 10.8334 1.29741 10.1421C1.54467 9.55124 1.88582 8.82026 2.59378 8.68194C3.35319 8.53397 3.96452 8.90552 4.34564 9.54935L6.56683 11.9107C6.76236 10.7525 6.97979 9.59719 7.31553 8.47154C7.55853 7.65633 7.86509 6.5392 8.56747 5.97931C9.48054 5.25126 10.4518 5.47247 11.1344 6.37L17.9999 13.7951V7.69688C17.9999 6.57445 17.2233 5.19518 16.2519 4.63216Z" fill="#F7F7F7"/>
<path d="M5.38057 12.6865C5.58273 13.5119 5.76576 14.345 5.98299 15.1679C6.12519 14.5235 6.23992 13.872 6.34773 13.2224C6.4202 12.7858 6.49116 12.3481 6.56506 11.9106L4.34216 9.54922C4.89476 10.4831 5.12525 11.6445 5.38057 12.6865Z" fill="#C8C8C8"/>
</svg>
