<svg width="79" height="17" viewBox="0 0 79 17" fill="none" xmlns="http://www.w3.org/2000/svg">
<path d="M1.266 16C1.10467 16 0.972667 15.9487 0.87 15.846C0.767333 15.7433 0.716 15.6187 0.716 15.472V1.15C0.716 0.988666 0.767333 0.856666 0.87 0.754C0.972667 0.651332 1.10467 0.599999 1.266 0.599999H3.004C3.20933 0.599999 3.36333 0.658666 3.466 0.775999C3.56867 0.878666 3.63467 0.959332 3.664 1.018L7.91 8.938L12.2 1.018C12.2293 0.959332 12.2953 0.878666 12.398 0.775999C12.5007 0.658666 12.6547 0.599999 12.86 0.599999H14.576C14.7373 0.599999 14.8693 0.651332 14.972 0.754C15.0747 0.856666 15.126 0.988666 15.126 1.15V15.472C15.126 15.6187 15.0747 15.7433 14.972 15.846C14.8693 15.9487 14.7373 16 14.576 16H12.728C12.5667 16 12.4347 15.9487 12.332 15.846C12.244 15.7433 12.2 15.6187 12.2 15.472V5.946L9.12 11.82C9.04667 11.952 8.95133 12.0693 8.834 12.172C8.71667 12.26 8.56267 12.304 8.372 12.304H7.47C7.26467 12.304 7.10333 12.26 6.986 12.172C6.88333 12.0693 6.79533 11.952 6.722 11.82L3.642 5.946V15.472C3.642 15.6187 3.59067 15.7433 3.488 15.846C3.38533 15.9487 3.26067 16 3.114 16H1.266ZM22.53 16.22C21.6354 16.22 20.858 16.022 20.198 15.626C19.5527 15.2153 19.054 14.6433 18.702 13.91C18.35 13.162 18.174 12.282 18.174 11.27V5.088C18.174 4.94133 18.2254 4.81667 18.328 4.714C18.4307 4.61133 18.5554 4.56 18.702 4.56H20.638C20.7994 4.56 20.924 4.61133 21.012 4.714C21.1147 4.81667 21.166 4.94133 21.166 5.088V11.138C21.166 12.9567 21.9654 13.866 23.564 13.866C24.3267 13.866 24.928 13.624 25.368 13.14C25.8227 12.656 26.05 11.9887 26.05 11.138V5.088C26.05 4.94133 26.1014 4.81667 26.204 4.714C26.3067 4.61133 26.4314 4.56 26.578 4.56H28.514C28.6607 4.56 28.7854 4.61133 28.888 4.714C28.9907 4.81667 29.042 4.94133 29.042 5.088V15.472C29.042 15.6187 28.9907 15.7433 28.888 15.846C28.7854 15.9487 28.6607 16 28.514 16H26.732C26.5707 16 26.4387 15.9487 26.336 15.846C26.248 15.7433 26.204 15.6187 26.204 15.472V14.57C25.808 15.0833 25.3167 15.4867 24.73 15.78C24.1434 16.0733 23.41 16.22 22.53 16.22ZM32.4981 16C32.3514 16 32.2268 15.9487 32.1241 15.846C32.0214 15.7433 31.9701 15.6187 31.9701 15.472V0.907999C31.9701 0.761332 32.0214 0.636666 32.1241 0.534C32.2268 0.431333 32.3514 0.379999 32.4981 0.379999H34.3241C34.4708 0.379999 34.5954 0.431333 34.6981 0.534C34.8008 0.636666 34.8521 0.761332 34.8521 0.907999V15.472C34.8521 15.6187 34.8008 15.7433 34.6981 15.846C34.5954 15.9487 34.4708 16 34.3241 16H32.4981ZM42.9404 16C42.0604 16 41.3197 15.846 40.7184 15.538C40.117 15.23 39.6697 14.7753 39.3764 14.174C39.083 13.558 38.9364 12.7953 38.9364 11.886V6.892H37.1984C37.0517 6.892 36.927 6.84067 36.8244 6.738C36.7217 6.63533 36.6704 6.51067 36.6704 6.364V5.088C36.6704 4.94133 36.7217 4.81667 36.8244 4.714C36.927 4.61133 37.0517 4.56 37.1984 4.56H38.9364V0.907999C38.9364 0.761332 38.9804 0.636666 39.0684 0.534C39.171 0.431333 39.303 0.379999 39.4644 0.379999H41.2464C41.393 0.379999 41.5177 0.431333 41.6204 0.534C41.723 0.636666 41.7744 0.761332 41.7744 0.907999V4.56H44.5244C44.671 4.56 44.7957 4.61133 44.8984 4.714C45.001 4.81667 45.0524 4.94133 45.0524 5.088V6.364C45.0524 6.51067 45.001 6.63533 44.8984 6.738C44.7957 6.84067 44.671 6.892 44.5244 6.892H41.7744V11.666C41.7744 12.2673 41.877 12.7367 42.0824 13.074C42.3024 13.4113 42.6764 13.58 43.2044 13.58H44.7224C44.869 13.58 44.9937 13.6313 45.0964 13.734C45.199 13.8367 45.2504 13.9613 45.2504 14.108V15.472C45.2504 15.6187 45.199 15.7433 45.0964 15.846C44.9937 15.9487 44.869 16 44.7224 16H42.9404ZM47.73 16C47.5833 16 47.4587 15.9487 47.356 15.846C47.2533 15.7433 47.202 15.6187 47.202 15.472V5.088C47.202 4.94133 47.2533 4.81667 47.356 4.714C47.4587 4.61133 47.5833 4.56 47.73 4.56H49.556C49.7173 4.56 49.842 4.61133 49.93 4.714C50.0327 4.81667 50.084 4.94133 50.084 5.088V15.472C50.084 15.6187 50.0327 15.7433 49.93 15.846C49.842 15.9487 49.7173 16 49.556 16H47.73ZM47.642 2.668C47.4807 2.668 47.3487 2.624 47.246 2.536C47.158 2.43333 47.114 2.30133 47.114 2.14V0.556C47.114 0.409333 47.158 0.284666 47.246 0.181999C47.3487 0.0793329 47.4807 0.0279998 47.642 0.0279998H49.644C49.8053 0.0279998 49.9373 0.0793329 50.04 0.181999C50.1427 0.284666 50.194 0.409333 50.194 0.556V2.14C50.194 2.30133 50.1427 2.43333 50.04 2.536C49.9373 2.624 49.8053 2.668 49.644 2.668H47.642ZM53.5528 16C53.4061 16 53.2814 15.9487 53.1788 15.846C53.0761 15.7433 53.0248 15.6187 53.0248 15.472V0.907999C53.0248 0.761332 53.0761 0.636666 53.1788 0.534C53.2814 0.431333 53.4061 0.379999 53.5528 0.379999H55.3348C55.4961 0.379999 55.6208 0.431333 55.7088 0.534C55.8114 0.636666 55.8628 0.761332 55.8628 0.907999V8.432L59.5588 4.934C59.6908 4.81667 59.8081 4.72867 59.9108 4.67C60.0134 4.59667 60.1674 4.56 60.3728 4.56H62.4188C62.5654 4.56 62.6828 4.604 62.7708 4.692C62.8588 4.78 62.9028 4.89733 62.9028 5.044C62.9028 5.10267 62.8881 5.16867 62.8588 5.242C62.8294 5.31533 62.7708 5.38133 62.6828 5.44L58.1508 9.686L63.2328 15.142C63.3794 15.2887 63.4528 15.4133 63.4528 15.516C63.4528 15.6627 63.4014 15.78 63.2988 15.868C63.2108 15.956 63.1008 16 62.9688 16H60.8788C60.6588 16 60.4974 15.9707 60.3948 15.912C60.3068 15.8387 60.1968 15.7433 60.0648 15.626L55.8628 11.204V15.472C55.8628 15.6187 55.8114 15.7433 55.7088 15.846C55.6208 15.9487 55.4961 16 55.3348 16H53.5528ZM65.6265 16C65.4798 16 65.3552 15.9487 65.2525 15.846C65.1498 15.7433 65.0985 15.6187 65.0985 15.472V5.088C65.0985 4.94133 65.1498 4.81667 65.2525 4.714C65.3552 4.61133 65.4798 4.56 65.6265 4.56H67.4525C67.6138 4.56 67.7385 4.61133 67.8265 4.714C67.9292 4.81667 67.9805 4.94133 67.9805 5.088V15.472C67.9805 15.6187 67.9292 15.7433 67.8265 15.846C67.7385 15.9487 67.6138 16 67.4525 16H65.6265ZM65.5385 2.668C65.3772 2.668 65.2452 2.624 65.1425 2.536C65.0545 2.43333 65.0105 2.30133 65.0105 2.14V0.556C65.0105 0.409333 65.0545 0.284666 65.1425 0.181999C65.2452 0.0793329 65.3772 0.0279998 65.5385 0.0279998H67.5405C67.7018 0.0279998 67.8338 0.0793329 67.9365 0.181999C68.0392 0.284666 68.0905 0.409333 68.0905 0.556V2.14C68.0905 2.30133 68.0392 2.43333 67.9365 2.536C67.8338 2.624 67.7018 2.668 67.5405 2.668H65.5385ZM76.0693 16C75.1893 16 74.4486 15.846 73.8473 15.538C73.2459 15.23 72.7986 14.7753 72.5053 14.174C72.2119 13.558 72.0653 12.7953 72.0653 11.886V6.892H70.3273C70.1806 6.892 70.0559 6.84067 69.9533 6.738C69.8506 6.63533 69.7993 6.51067 69.7993 6.364V5.088C69.7993 4.94133 69.8506 4.81667 69.9533 4.714C70.0559 4.61133 70.1806 4.56 70.3273 4.56H72.0653V0.907999C72.0653 0.761332 72.1093 0.636666 72.1973 0.534C72.2999 0.431333 72.4319 0.379999 72.5933 0.379999H74.3753C74.5219 0.379999 74.6466 0.431333 74.7493 0.534C74.8519 0.636666 74.9033 0.761332 74.9033 0.907999V4.56H77.6533C77.7999 4.56 77.9246 4.61133 78.0273 4.714C78.1299 4.81667 78.1813 4.94133 78.1813 5.088V6.364C78.1813 6.51067 78.1299 6.63533 78.0273 6.738C77.9246 6.84067 77.7999 6.892 77.6533 6.892H74.9033V11.666C74.9033 12.2673 75.0059 12.7367 75.2113 13.074C75.4313 13.4113 75.8053 13.58 76.3333 13.58H77.8513C77.9979 13.58 78.1226 13.6313 78.2253 13.734C78.3279 13.8367 78.3793 13.9613 78.3793 14.108V15.472C78.3793 15.6187 78.3279 15.7433 78.2253 15.846C78.1226 15.9487 77.9979 16 77.8513 16H76.0693Z" fill="#384849"/>
</svg>
