<svg width="118" height="36" viewBox="0 0 118 36" fill="none" xmlns="http://www.w3.org/2000/svg">
<path d="M48.18 28.52C47.48 28.7 46.57 28.88 45.45 29.06C44.33 29.26 43.1 29.36 41.76 29.36C40.5 29.36 39.44 29.18 38.58 28.82C37.74 28.46 37.06 27.96 36.54 27.32C36.04 26.68 35.68 25.92 35.46 25.04C35.24 24.14 35.13 23.16 35.13 22.1V13.31H38.76V21.53C38.76 23.21 39 24.41 39.48 25.13C39.98 25.85 40.84 26.21 42.06 26.21C42.5 26.21 42.96 26.19 43.44 26.15C43.94 26.11 44.31 26.06 44.55 26V13.31H48.18V28.52ZM58.2602 29.3C57.1802 29.28 56.2802 29.16 55.5602 28.94C54.8602 28.72 54.3002 28.41 53.8802 28.01C53.4602 27.59 53.1602 27.08 52.9802 26.48C52.8202 25.86 52.7402 25.16 52.7402 24.38V6.32L56.3702 5.72V23.69C56.3702 24.13 56.4002 24.5 56.4602 24.8C56.5402 25.1 56.6702 25.36 56.8502 25.58C57.0302 25.78 57.2702 25.94 57.5702 26.06C57.8902 26.16 58.2902 26.24 58.7702 26.3L58.2602 29.3ZM61.5265 9.17L65.1565 8.57V13.31H70.7365V16.34H65.1565V22.73C65.1565 23.99 65.3565 24.89 65.7565 25.43C66.1565 25.97 66.8365 26.24 67.7965 26.24C68.4565 26.24 69.0365 26.17 69.5365 26.03C70.0565 25.89 70.4665 25.76 70.7665 25.64L71.3665 28.52C70.9465 28.7 70.3965 28.88 69.7165 29.06C69.0365 29.26 68.2365 29.36 67.3165 29.36C66.1965 29.36 65.2565 29.21 64.4965 28.91C63.7565 28.61 63.1665 28.18 62.7265 27.62C62.2865 27.04 61.9765 26.35 61.7965 25.55C61.6165 24.73 61.5265 23.8 61.5265 22.76V9.17ZM77.9055 29H74.2755V13.31H77.9055V29ZM78.2955 8.72C78.2955 9.4 78.0755 9.94 77.6355 10.34C77.1955 10.74 76.6755 10.94 76.0755 10.94C75.4555 10.94 74.9255 10.74 74.4855 10.34C74.0455 9.94 73.8255 9.4 73.8255 8.72C73.8255 8.02 74.0455 7.47 74.4855 7.07C74.9255 6.67 75.4555 6.47 76.0755 6.47C76.6755 6.47 77.1955 6.67 77.6355 7.07C78.0755 7.47 78.2955 8.02 78.2955 8.72ZM86.1666 19.43C86.6266 18.95 87.1166 18.44 87.6366 17.9C88.1566 17.34 88.6666 16.79 89.1666 16.25C89.6666 15.69 90.1366 15.16 90.5766 14.66C91.0366 14.14 91.4266 13.69 91.7466 13.31H96.0366C95.0366 14.43 93.9766 15.59 92.8566 16.79C91.7566 17.99 90.6466 19.16 89.5266 20.3C90.1266 20.8 90.7566 21.41 91.4166 22.13C92.0766 22.83 92.7166 23.58 93.3366 24.38C93.9566 25.18 94.5366 25.98 95.0766 26.78C95.6166 27.58 96.0666 28.32 96.4266 29H92.2266C91.8666 28.38 91.4466 27.73 90.9666 27.05C90.5066 26.37 90.0066 25.71 89.4666 25.07C88.9266 24.43 88.3766 23.83 87.8166 23.27C87.2566 22.69 86.7066 22.2 86.1666 21.8V29H82.5366V6.32L86.1666 5.72V19.43ZM102.72 29H99.09V13.31H102.72V29ZM103.11 8.72C103.11 9.4 102.89 9.94 102.45 10.34C102.01 10.74 101.49 10.94 100.89 10.94C100.27 10.94 99.74 10.74 99.3 10.34C98.86 9.94 98.64 9.4 98.64 8.72C98.64 8.02 98.86 7.47 99.3 7.07C99.74 6.67 100.27 6.47 100.89 6.47C101.49 6.47 102.01 6.67 102.45 7.07C102.89 7.47 103.11 8.02 103.11 8.72ZM107.171 9.17L110.801 8.57V13.31H116.381V16.34H110.801V22.73C110.801 23.99 111.001 24.89 111.401 25.43C111.801 25.97 112.481 26.24 113.441 26.24C114.101 26.24 114.681 26.17 115.181 26.03C115.701 25.89 116.111 25.76 116.411 25.64L117.011 28.52C116.591 28.7 116.041 28.88 115.361 29.06C114.681 29.26 113.881 29.36 112.961 29.36C111.841 29.36 110.901 29.21 110.141 28.91C109.401 28.61 108.811 28.18 108.371 27.62C107.931 27.04 107.621 26.35 107.441 25.55C107.261 24.73 107.171 23.8 107.171 22.76V9.17Z" fill="black"/>
<path d="M18.0509 19.2112C18.0108 18.7297 17.9653 18.249 17.9111 17.7692C17.8855 17.5445 17.8592 17.3208 17.8304 17.0963C17.818 17.0094 17.8057 16.9225 17.7927 16.8355C17.6708 16.0198 17.5281 15.2065 17.3395 14.4038C17.2854 14.1727 17.2265 13.9421 17.1647 13.7121C17.1567 13.7373 17.1473 13.7618 17.1394 13.7875C16.7722 14.9316 16.4836 16.101 16.2326 17.2767C15.6612 19.9501 15.3189 22.6635 14.7822 25.3434C14.5107 26.7012 14.2319 28.0949 13.7181 29.3862C13.2548 30.5515 12.6786 31.6931 11.393 32.1074C8.93931 32.8979 7.78513 29.9381 7.22782 28.1741C6.57384 26.1052 6.12803 23.9725 5.61081 21.8664C5.51245 21.4652 5.4119 21.0643 5.30866 20.6638C4.73182 23.4468 4.43371 26.3172 3.35481 28.9488C3.34673 28.9687 3.3378 28.9896 3.32971 29.0093L12.7957 34.4941C13.7787 35.0637 15.1173 35.3077 16.4073 35.2289C16.447 35.1507 16.4869 35.0733 16.524 34.9939C16.5568 34.9242 16.5887 34.8548 16.62 34.7848C16.7586 34.4361 16.8871 34.0828 16.9993 33.7242C17.2669 32.8691 17.4786 31.9964 17.6435 31.1155C17.7326 30.6416 17.8122 30.1653 17.8794 29.6877C17.8798 29.6855 17.8798 29.6841 17.8806 29.6823C17.8936 29.5782 17.9069 29.4748 17.919 29.3707C17.9485 29.1199 17.9766 28.869 18.0012 28.6173C18.1026 27.5875 18.1703 26.5535 18.2037 25.5187C18.2712 23.4167 18.2252 21.3079 18.0509 19.2112Z" fill="#FFA507"/>
<path d="M22.3002 25.65C22.2098 28.0826 22.023 30.6654 21.4479 33.1201L28.8923 28.7876C30.6194 27.7865 32 25.3348 32 23.3389V22.747L19.7943 9.54671C20.5923 10.5953 20.9859 12.0471 21.2776 13.3134C22.2016 17.3182 22.4527 21.5523 22.3002 25.65Z" fill="#FFA507"/>
<path d="M28.8925 6.45722L19.0594 0.750442C17.332 -0.250147 14.5144 -0.250147 12.7872 0.750442L3.03916 6.45722C1.31217 7.45815 0 9.91019 0 11.9056V23.3389C0 23.9592 0.0395796 24.6233 0.27958 25.2742C0.692211 23.5713 0.925813 21.8413 1.27798 20.1244C1.54442 18.8242 1.79166 17.4817 2.30653 16.2528C2.74611 15.2023 3.35259 13.9028 4.6112 13.6569C5.96126 13.3938 7.04808 14.0544 7.72564 15.1989L11.6744 19.397C12.0221 17.3379 12.4086 15.284 13.0055 13.2828C13.4375 11.8336 13.9825 9.84754 15.2312 8.85217C16.8544 7.55785 18.5811 7.95112 19.7947 9.54674L32 22.7471V11.9056C32 9.91019 30.6195 7.45815 28.8925 6.45722Z" fill="#FFBB12"/>
<path d="M9.56567 20.7762C9.92508 22.2434 10.2505 23.7245 10.6367 25.1876C10.8895 24.042 11.0934 22.8838 11.2851 21.7289C11.4139 20.9527 11.5401 20.1746 11.6714 19.3968L7.7196 15.1987C8.702 16.859 9.11177 18.9237 9.56567 20.7762Z" fill="#FFA507"/>
</svg>
