<svg width="80" height="24" viewBox="0 0 80 24" fill="none" xmlns="http://www.w3.org/2000/svg">
<path d="M33.12 19.68C32.6534 19.8 32.0467 19.92 31.3 20.04C30.5534 20.1733 29.7334 20.24 28.84 20.24C28 20.24 27.2934 20.12 26.72 19.88C26.16 19.64 25.7067 19.3067 25.36 18.88C25.0267 18.4533 24.7867 17.9467 24.64 17.36C24.4934 16.76 24.42 16.1067 24.42 15.4V9.54H26.84V15.02C26.84 16.14 27 16.94 27.32 17.42C27.6534 17.9 28.2267 18.14 29.04 18.14C29.3334 18.14 29.64 18.1267 29.96 18.1C30.2934 18.0733 30.54 18.04 30.7 18V9.54H33.12V19.68ZM39.8402 20.2C39.1202 20.1867 38.5202 20.1067 38.0402 19.96C37.5735 19.8133 37.2002 19.6067 36.9202 19.34C36.6402 19.06 36.4402 18.72 36.3202 18.32C36.2135 17.9067 36.1602 17.44 36.1602 16.92V4.88L38.5802 4.48V16.46C38.5802 16.7533 38.6002 17 38.6402 17.2C38.6935 17.4 38.7802 17.5733 38.9002 17.72C39.0202 17.8533 39.1802 17.96 39.3802 18.04C39.5935 18.1067 39.8602 18.16 40.1802 18.2L39.8402 20.2ZM42.0177 6.78L44.4377 6.38V9.54H48.1577V11.56H44.4377V15.82C44.4377 16.66 44.571 17.26 44.8377 17.62C45.1044 17.98 45.5577 18.16 46.1977 18.16C46.6377 18.16 47.0244 18.1133 47.3577 18.02C47.7044 17.9267 47.9777 17.84 48.1777 17.76L48.5777 19.68C48.2977 19.8 47.931 19.92 47.4777 20.04C47.0244 20.1733 46.491 20.24 45.8777 20.24C45.131 20.24 44.5044 20.14 43.9977 19.94C43.5044 19.74 43.111 19.4533 42.8177 19.08C42.5244 18.6933 42.3177 18.2333 42.1977 17.7C42.0777 17.1533 42.0177 16.5333 42.0177 15.84V6.78ZM52.9371 20H50.5171V9.54H52.9371V20ZM53.1971 6.48C53.1971 6.93333 53.0504 7.29333 52.7571 7.56C52.4637 7.82667 52.1171 7.96 51.7171 7.96C51.3037 7.96 50.9504 7.82667 50.6571 7.56C50.3637 7.29333 50.2171 6.93333 50.2171 6.48C50.2171 6.01333 50.3637 5.64667 50.6571 5.38C50.9504 5.11333 51.3037 4.98 51.7171 4.98C52.1171 4.98 52.4637 5.11333 52.7571 5.38C53.0504 5.64667 53.1971 6.01333 53.1971 6.48ZM58.4444 13.62C58.7511 13.3 59.0777 12.96 59.4244 12.6C59.7711 12.2267 60.1111 11.86 60.4444 11.5C60.7777 11.1267 61.0911 10.7733 61.3844 10.44C61.6911 10.0933 61.9511 9.79333 62.1644 9.54H65.0244C64.3577 10.2867 63.6511 11.06 62.9044 11.86C62.1711 12.66 61.4311 13.44 60.6844 14.2C61.0844 14.5333 61.5044 14.94 61.9444 15.42C62.3844 15.8867 62.8111 16.3867 63.2244 16.92C63.6377 17.4533 64.0244 17.9867 64.3844 18.52C64.7444 19.0533 65.0444 19.5467 65.2844 20H62.4844C62.2444 19.5867 61.9644 19.1533 61.6444 18.7C61.3377 18.2467 61.0044 17.8067 60.6444 17.38C60.2844 16.9533 59.9177 16.5533 59.5444 16.18C59.1711 15.7933 58.8044 15.4667 58.4444 15.2V20H56.0244V4.88L58.4444 4.48V13.62ZM69.48 20H67.06V9.54H69.48V20ZM69.74 6.48C69.74 6.93333 69.5934 7.29333 69.3 7.56C69.0067 7.82667 68.66 7.96 68.26 7.96C67.8467 7.96 67.4934 7.82667 67.2 7.56C66.9067 7.29333 66.76 6.93333 66.76 6.48C66.76 6.01333 66.9067 5.64667 67.2 5.38C67.4934 5.11333 67.8467 4.98 68.26 4.98C68.66 4.98 69.0067 5.11333 69.3 5.38C69.5934 5.64667 69.74 6.01333 69.74 6.48ZM72.4474 6.78L74.8674 6.38V9.54H78.5874V11.56H74.8674V15.82C74.8674 16.66 75.0007 17.26 75.2674 17.62C75.534 17.98 75.9874 18.16 76.6274 18.16C77.0674 18.16 77.454 18.1133 77.7874 18.02C78.134 17.9267 78.4074 17.84 78.6074 17.76L79.0074 19.68C78.7274 19.8 78.3607 19.92 77.9074 20.04C77.454 20.1733 76.9207 20.24 76.3074 20.24C75.5607 20.24 74.934 20.14 74.4274 19.94C73.934 19.74 73.5407 19.4533 73.2474 19.08C72.954 18.6933 72.7474 18.2333 72.6274 17.7C72.5074 17.1533 72.4474 16.5333 72.4474 15.84V6.78Z" fill="#4A4A4A"/>
<path d="M12.3526 12.67C12.3262 12.3524 12.2962 12.0354 12.2604 11.7189C12.2435 11.5708 12.2262 11.4233 12.2072 11.2752C12.199 11.2179 12.1909 11.1606 12.1823 11.1031C12.1019 10.5652 12.0078 10.0288 11.8834 9.49944C11.8478 9.34704 11.8089 9.19498 11.7681 9.04325C11.7629 9.05991 11.7567 9.07602 11.7515 9.09301C11.5093 9.84755 11.3189 10.6187 11.1534 11.3942C10.7765 13.1573 10.5508 14.9468 10.1968 16.7142C10.0178 17.6097 9.83396 18.5289 9.49507 19.3805C9.1895 20.149 8.80951 20.9019 7.96167 21.1751C6.34342 21.6965 5.58222 19.7445 5.21467 18.5811C4.78336 17.2166 4.48935 15.8101 4.14823 14.4211C4.08337 14.1565 4.01705 13.8921 3.94896 13.628C3.56853 15.4634 3.37193 17.3565 2.66038 19.092C2.65505 19.1051 2.64916 19.1189 2.64383 19.1319L8.88671 22.7492C9.53506 23.1248 10.4179 23.2858 11.2686 23.2338C11.2948 23.1823 11.3211 23.1312 11.3456 23.0788C11.3672 23.0329 11.3882 22.9871 11.4089 22.9409C11.5003 22.711 11.5851 22.4779 11.659 22.2414C11.8355 21.6775 11.9752 21.1019 12.0839 20.521C12.1427 20.2084 12.1952 19.8943 12.2395 19.5793C12.2397 19.5779 12.2397 19.577 12.2403 19.5757C12.2488 19.5071 12.2576 19.4389 12.2656 19.3703C12.2851 19.2049 12.3036 19.0394 12.3198 18.8734C12.3867 18.1942 12.4313 17.5123 12.4533 16.8299C12.4979 15.4435 12.4676 14.0527 12.3526 12.67Z" fill="#0145A5"/>
<path d="M15.1551 16.9164C15.0955 18.5208 14.9723 20.2241 14.593 21.843L19.5026 18.9857C20.6417 18.3255 21.5522 16.7086 21.5522 15.3922V15.0019L13.5024 6.29615C14.0287 6.98771 14.2883 7.94517 14.4807 8.78035C15.09 11.4215 15.2557 14.2139 15.1551 16.9164Z" fill="#0145A5"/>
<path d="M19.5027 4.2586L13.0177 0.494924C11.8785 -0.164975 10.0202 -0.164975 8.88116 0.494924L2.45223 4.2586C1.31327 4.91872 0.447876 6.53587 0.447876 7.85189V15.3922C0.447876 15.8013 0.473979 16.2393 0.632261 16.6686C0.904396 15.5455 1.05846 14.4046 1.29072 13.2723C1.46644 12.4148 1.6295 11.5294 1.96905 10.7189C2.25896 10.0261 2.65894 9.16902 3.48901 9.00685C4.37939 8.83335 5.09616 9.26899 5.54301 10.0239L8.14728 12.7925C8.37654 11.4345 8.63146 10.0799 9.02511 8.76015C9.31002 7.80435 9.66946 6.49455 10.493 5.83809C11.5635 4.98448 12.7023 5.24384 13.5027 6.29617L21.5522 15.0019V7.85189C21.5522 6.53587 20.6417 4.91872 19.5027 4.2586Z" fill="url(#paint0_linear_1093_2457)"/>
<path d="M6.7565 13.7021C6.99353 14.6698 7.20813 15.6466 7.46283 16.6115C7.62955 15.8559 7.76406 15.0921 7.89047 14.3304C7.97544 13.8185 8.05864 13.3053 8.14528 12.7924L5.539 10.0237C6.1869 11.1187 6.45715 12.4804 6.7565 13.7021Z" fill="#0145A5"/>
<defs>
<linearGradient id="paint0_linear_1093_2457" x1="11" y1="0" x2="11" y2="16.6686" gradientUnits="userSpaceOnUse">
<stop stop-color="#0363DA"/>
<stop offset="1" stop-color="#5546CB"/>
</linearGradient>
</defs>
</svg>
