<svg width="108" height="31" viewBox="0 0 108 31" fill="none" xmlns="http://www.w3.org/2000/svg">
<path d="M43.1914 23.6C42.608 23.75 41.8497 23.9 40.9164 24.05C39.983 24.2167 38.958 24.3 37.8414 24.3C36.7914 24.3 35.908 24.15 35.1914 23.85C34.4914 23.55 33.9247 23.1333 33.4914 22.6C33.0747 22.0667 32.7747 21.4333 32.5914 20.7C32.408 19.95 32.3164 19.1333 32.3164 18.25V10.925H35.3414V17.775C35.3414 19.175 35.5414 20.175 35.9414 20.775C36.358 21.375 37.0747 21.675 38.0914 21.675C38.458 21.675 38.8414 21.6583 39.2414 21.625C39.658 21.5917 39.9664 21.55 40.1664 21.5V10.925H43.1914V23.6ZM51.5916 24.25C50.6916 24.2333 49.9416 24.1333 49.3416 23.95C48.7582 23.7667 48.2916 23.5083 47.9416 23.175C47.5916 22.825 47.3416 22.4 47.1916 21.9C47.0582 21.3833 46.9916 20.8 46.9916 20.15V5.1L50.0166 4.6V19.575C50.0166 19.9417 50.0416 20.25 50.0916 20.5C50.1582 20.75 50.2666 20.9667 50.4166 21.15C50.5666 21.3167 50.7666 21.45 51.0166 21.55C51.2832 21.6333 51.6166 21.7 52.0166 21.75L51.5916 24.25ZM54.3135 7.475L57.3385 6.975V10.925H61.9885V13.45H57.3385V18.775C57.3385 19.825 57.5051 20.575 57.8385 21.025C58.1718 21.475 58.7385 21.7 59.5385 21.7C60.0885 21.7 60.5718 21.6417 60.9885 21.525C61.4218 21.4083 61.7635 21.3 62.0135 21.2L62.5135 23.6C62.1635 23.75 61.7051 23.9 61.1385 24.05C60.5718 24.2167 59.9051 24.3 59.1385 24.3C58.2051 24.3 57.4218 24.175 56.7885 23.925C56.1718 23.675 55.6801 23.3167 55.3135 22.85C54.9468 22.3667 54.6885 21.7917 54.5385 21.125C54.3885 20.4417 54.3135 19.6667 54.3135 18.8V7.475ZM67.9627 24H64.9377V10.925H67.9627V24ZM68.2877 7.1C68.2877 7.66667 68.1043 8.11667 67.7377 8.45C67.371 8.78333 66.9377 8.95 66.4377 8.95C65.921 8.95 65.4793 8.78333 65.1127 8.45C64.746 8.11667 64.5627 7.66667 64.5627 7.1C64.5627 6.51667 64.746 6.05833 65.1127 5.725C65.4793 5.39167 65.921 5.225 66.4377 5.225C66.9377 5.225 67.371 5.39167 67.7377 5.725C68.1043 6.05833 68.2877 6.51667 68.2877 7.1ZM74.8469 16.025C75.2302 15.625 75.6385 15.2 76.0719 14.75C76.5052 14.2833 76.9302 13.825 77.3469 13.375C77.7635 12.9083 78.1552 12.4667 78.5219 12.05C78.9052 11.6167 79.2302 11.2417 79.4969 10.925H83.0719C82.2385 11.8583 81.3552 12.825 80.4219 13.825C79.5052 14.825 78.5802 15.8 77.6469 16.75C78.1469 17.1667 78.6719 17.675 79.2219 18.275C79.7719 18.8583 80.3052 19.4833 80.8219 20.15C81.3385 20.8167 81.8219 21.4833 82.2719 22.15C82.7219 22.8167 83.0969 23.4333 83.3969 24H79.8969C79.5969 23.4833 79.2469 22.9417 78.8469 22.375C78.4635 21.8083 78.0469 21.2583 77.5969 20.725C77.1469 20.1917 76.6885 19.6917 76.2219 19.225C75.7552 18.7417 75.2969 18.3333 74.8469 18V24H71.8219V5.1L74.8469 4.6V16.025ZM88.6414 24H85.6164V10.925H88.6414V24ZM88.9664 7.1C88.9664 7.66667 88.783 8.11667 88.4164 8.45C88.0497 8.78333 87.6164 8.95 87.1164 8.95C86.5997 8.95 86.158 8.78333 85.7914 8.45C85.4247 8.11667 85.2414 7.66667 85.2414 7.1C85.2414 6.51667 85.4247 6.05833 85.7914 5.725C86.158 5.39167 86.5997 5.225 87.1164 5.225C87.6164 5.225 88.0497 5.39167 88.4164 5.725C88.783 6.05833 88.9664 6.51667 88.9664 7.1ZM92.3506 7.475L95.3756 6.975V10.925H100.026V13.45H95.3756V18.775C95.3756 19.825 95.5422 20.575 95.8756 21.025C96.2089 21.475 96.7756 21.7 97.5756 21.7C98.1256 21.7 98.6089 21.6417 99.0256 21.525C99.4589 21.4083 99.8006 21.3 100.051 21.2L100.551 23.6C100.201 23.75 99.7422 23.9 99.1756 24.05C98.6089 24.2167 97.9422 24.3 97.1756 24.3C96.2422 24.3 95.4589 24.175 94.8256 23.925C94.2089 23.675 93.7172 23.3167 93.3506 22.85C92.9839 22.3667 92.7256 21.7917 92.5756 21.125C92.4256 20.4417 92.3506 19.6667 92.3506 18.8V7.475Z" fill="white"/>
<path d="M15.5942 16.5966C15.5596 16.1806 15.5203 15.7654 15.4734 15.3508C15.4513 15.1567 15.4286 14.9635 15.4037 14.7696C15.393 14.6945 15.3823 14.6194 15.3711 14.5442C15.2658 13.8395 15.1426 13.1369 14.9796 12.4435C14.9329 12.2438 14.882 12.0446 14.8286 11.8459C14.8217 11.8677 14.8136 11.8888 14.8067 11.9111C14.4896 12.8995 14.2402 13.9097 14.0234 14.9254C13.5297 17.2349 13.234 19.579 12.7703 21.8942C12.5358 23.0672 12.295 24.2713 11.8511 25.3868C11.4508 26.3935 10.953 27.3797 9.84245 27.7376C7.72267 28.4206 6.72557 25.8636 6.24411 24.3396C5.67914 22.5523 5.294 20.7099 4.84717 18.8904C4.7622 18.5438 4.67533 18.1975 4.58614 17.8515C4.08781 20.2558 3.83028 22.7355 2.89821 25.0089C2.89122 25.0261 2.88351 25.0441 2.87653 25.0612L11.0542 29.7995C11.9035 30.2916 13.0599 30.5024 14.1743 30.4343C14.2086 30.3668 14.2431 30.2999 14.2751 30.2313C14.3035 30.1711 14.331 30.1112 14.358 30.0506C14.4778 29.7495 14.5888 29.4442 14.6857 29.1344C14.9169 28.3957 15.0998 27.6417 15.2422 26.8808C15.3192 26.4713 15.388 26.0599 15.4461 25.6472C15.4464 25.6453 15.4464 25.6442 15.4471 25.6426C15.4583 25.5527 15.4698 25.4633 15.4803 25.3734C15.5057 25.1568 15.53 24.94 15.5513 24.7226C15.6389 23.8329 15.6973 22.9396 15.7262 22.0457C15.7845 20.2297 15.7448 18.4079 15.5942 16.5966Z" fill="#CEE2FD"/>
<path d="M19.2653 22.1591C19.1872 24.2607 19.0258 26.4919 18.5289 28.6125L24.9601 24.8697C26.4522 24.0049 27.6449 21.8868 27.6449 20.1625V19.6512L17.1004 8.24743C17.7898 9.15331 18.1298 10.4075 18.3818 11.5015C19.18 14.9612 19.397 18.6191 19.2653 22.1591Z" fill="#CEE2FD"/>
<path d="M24.9603 5.57841L16.4654 0.648309C14.9732 -0.216103 12.539 -0.216103 11.0469 0.648309L2.62554 5.57841C1.13359 6.44311 0 8.56144 0 10.2853V20.1625C0 20.6984 0.0341929 21.2721 0.241529 21.8345C0.598003 20.3633 0.799812 18.8688 1.10405 17.3855C1.33423 16.2623 1.54782 15.1025 1.99261 14.0408C2.37237 13.1333 2.89631 12.0106 3.98363 11.7982C5.14995 11.5709 6.08886 12.1416 6.6742 13.1304L10.0856 16.7571C10.3859 14.9782 10.7198 13.2039 11.2355 11.4751C11.6087 10.223 12.0795 8.50731 13.1582 7.64741C14.5606 6.52925 16.0522 6.86899 17.1007 8.24745L27.6449 19.6512V10.2853C27.6449 8.56144 26.4522 6.44311 24.9603 5.57841Z" fill="white"/>
<path d="M8.26376 17.9486C8.57426 19.2162 8.85537 20.4957 9.189 21.7596C9.40739 20.77 9.58359 19.7694 9.74917 18.7717C9.86048 18.1011 9.96946 17.4289 10.0829 16.7569L6.66895 13.1302C7.51764 14.5646 7.87164 16.3482 8.26376 17.9486Z" fill="#CEE2FD"/>
</svg>
