<svg width="80" height="25" viewBox="0 0 80 25" fill="none" xmlns="http://www.w3.org/2000/svg">
<path d="M32.6722 18.68C32.2055 18.8 31.5988 18.92 30.8522 19.04C30.1055 19.1733 29.2855 19.24 28.3922 19.24C27.5522 19.24 26.8455 19.12 26.2722 18.88C25.7122 18.64 25.2588 18.3067 24.9122 17.88C24.5788 17.4533 24.3388 16.9467 24.1922 16.36C24.0455 15.76 23.9722 15.1067 23.9722 14.4V8.54H26.3922V14.02C26.3922 15.14 26.5522 15.94 26.8722 16.42C27.2055 16.9 27.7788 17.14 28.5922 17.14C28.8855 17.14 29.1922 17.1267 29.5122 17.1C29.8455 17.0733 30.0922 17.04 30.2522 17V8.54H32.6722V18.68ZM39.3923 19.2C38.6723 19.1867 38.0723 19.1067 37.5923 18.96C37.1256 18.8133 36.7523 18.6067 36.4723 18.34C36.1923 18.06 35.9923 17.72 35.8723 17.32C35.7656 16.9067 35.7123 16.44 35.7123 15.92V3.88L38.1323 3.48V15.46C38.1323 15.7533 38.1523 16 38.1923 16.2C38.2456 16.4 38.3323 16.5733 38.4523 16.72C38.5723 16.8533 38.7323 16.96 38.9323 17.04C39.1456 17.1067 39.4123 17.16 39.7323 17.2L39.3923 19.2ZM41.5698 5.78L43.9898 5.38V8.54H47.7098V10.56H43.9898V14.82C43.9898 15.66 44.1231 16.26 44.3898 16.62C44.6565 16.98 45.1098 17.16 45.7498 17.16C46.1898 17.16 46.5765 17.1133 46.9098 17.02C47.2565 16.9267 47.5298 16.84 47.7298 16.76L48.1298 18.68C47.8498 18.8 47.4831 18.92 47.0298 19.04C46.5765 19.1733 46.0431 19.24 45.4298 19.24C44.6831 19.24 44.0565 19.14 43.5498 18.94C43.0565 18.74 42.6631 18.4533 42.3698 18.08C42.0765 17.6933 41.8698 17.2333 41.7498 16.7C41.6298 16.1533 41.5698 15.5333 41.5698 14.84V5.78ZM52.4892 19H50.0692V8.54H52.4892V19ZM52.7492 5.48C52.7492 5.93333 52.6025 6.29333 52.3092 6.56C52.0159 6.82667 51.6692 6.96 51.2692 6.96C50.8559 6.96 50.5025 6.82667 50.2092 6.56C49.9159 6.29333 49.7692 5.93333 49.7692 5.48C49.7692 5.01333 49.9159 4.64667 50.2092 4.38C50.5025 4.11333 50.8559 3.98 51.2692 3.98C51.6692 3.98 52.0159 4.11333 52.3092 4.38C52.6025 4.64667 52.7492 5.01333 52.7492 5.48ZM57.9965 12.62C58.3032 12.3 58.6299 11.96 58.9765 11.6C59.3232 11.2267 59.6632 10.86 59.9965 10.5C60.3299 10.1267 60.6432 9.77333 60.9365 9.44C61.2432 9.09333 61.5032 8.79333 61.7165 8.54H64.5765C63.9099 9.28667 63.2032 10.06 62.4565 10.86C61.7232 11.66 60.9832 12.44 60.2365 13.2C60.6365 13.5333 61.0565 13.94 61.4965 14.42C61.9365 14.8867 62.3632 15.3867 62.7765 15.92C63.1899 16.4533 63.5765 16.9867 63.9365 17.52C64.2965 18.0533 64.5965 18.5467 64.8365 19H62.0365C61.7965 18.5867 61.5165 18.1533 61.1965 17.7C60.8899 17.2467 60.5565 16.8067 60.1965 16.38C59.8365 15.9533 59.4699 15.5533 59.0965 15.18C58.7232 14.7933 58.3565 14.4667 57.9965 14.2V19H55.5765V3.88L57.9965 3.48V12.62ZM69.0322 19H66.6122V8.54H69.0322V19ZM69.2922 5.48C69.2922 5.93333 69.1455 6.29333 68.8522 6.56C68.5588 6.82667 68.2122 6.96 67.8122 6.96C67.3988 6.96 67.0455 6.82667 66.7522 6.56C66.4588 6.29333 66.3122 5.93333 66.3122 5.48C66.3122 5.01333 66.4588 4.64667 66.7522 4.38C67.0455 4.11333 67.3988 3.98 67.8122 3.98C68.2122 3.98 68.5588 4.11333 68.8522 4.38C69.1455 4.64667 69.2922 5.01333 69.2922 5.48ZM71.9995 5.78L74.4195 5.38V8.54H78.1395V10.56H74.4195V14.82C74.4195 15.66 74.5528 16.26 74.8195 16.62C75.0862 16.98 75.5395 17.16 76.1795 17.16C76.6195 17.16 77.0062 17.1133 77.3395 17.02C77.6862 16.9267 77.9595 16.84 78.1595 16.76L78.5595 18.68C78.2795 18.8 77.9128 18.92 77.4595 19.04C77.0062 19.1733 76.4728 19.24 75.8595 19.24C75.1128 19.24 74.4862 19.14 73.9795 18.94C73.4862 18.74 73.0928 18.4533 72.7995 18.08C72.5062 17.6933 72.2995 17.2333 72.1795 16.7C72.0595 16.1533 71.9995 15.5333 71.9995 14.84V5.78Z" fill="#545454"/>
<path d="M11.9047 13.67C11.8783 13.3524 11.8483 13.0354 11.8125 12.7189C11.7956 12.5708 11.7783 12.4233 11.7593 12.2752C11.7511 12.2179 11.743 12.1606 11.7344 12.1031C11.654 11.5652 11.5599 11.0288 11.4355 10.4994C11.3999 10.347 11.361 10.195 11.3202 10.0432C11.315 10.0599 11.3088 10.076 11.3036 10.093C11.0614 10.8475 10.8711 11.6187 10.7055 12.3942C10.3287 14.1573 10.103 15.9468 9.74897 17.7142C9.56991 18.6097 9.38608 19.5289 9.04719 20.3805C8.74162 21.149 8.36163 21.9019 7.5138 22.1751C5.89554 22.6965 5.13434 20.7445 4.76679 19.5811C4.33549 18.2166 4.04147 16.8101 3.70036 15.4211C3.63549 15.1565 3.56918 14.8921 3.50109 14.628C3.12066 16.4634 2.92405 18.3565 2.21251 20.092C2.20717 20.1051 2.20128 20.1189 2.19595 20.1319L8.43883 23.7492C9.08718 24.1248 9.97001 24.2858 10.8207 24.2338C10.8469 24.1822 10.8733 24.1311 10.8977 24.0788C10.9194 24.0328 10.9404 23.9871 10.961 23.9409C11.0524 23.711 11.1372 23.4779 11.2112 23.2414C11.3877 22.6775 11.5273 22.1019 11.636 21.521C11.6948 21.2084 11.7473 20.8943 11.7916 20.5793C11.7919 20.5779 11.7919 20.577 11.7924 20.5757C11.801 20.5071 11.8097 20.4389 11.8177 20.3702C11.8372 20.2049 11.8557 20.0394 11.8719 19.8734C11.9388 19.1942 11.9835 18.5123 12.0055 17.8298C12.05 16.4435 12.0197 15.0527 11.9047 13.67Z" fill="#FFAF28"/>
<path d="M14.7073 17.9164C14.6476 19.5208 14.5244 21.2241 14.1451 22.843L19.0547 19.9857C20.1938 19.3255 21.1043 17.7086 21.1043 16.3922V16.0019L13.0546 7.29616C13.5808 7.98771 13.8404 8.94518 14.0328 9.78036C14.6422 12.4215 14.8078 15.2139 14.7073 17.9164Z" fill="#FFAF28"/>
<path d="M19.0549 5.2586L12.5698 1.49492C11.4307 0.835025 9.57236 0.835025 8.43328 1.49492L2.00436 5.2586C0.865389 5.91872 0 7.53587 0 8.85189V16.3922C0 16.8013 0.0261031 17.2393 0.184385 17.6686C0.45652 16.5455 0.610583 15.4046 0.842841 14.2723C1.01856 13.4148 1.18162 12.5294 1.52118 11.7189C1.81108 11.0261 2.21107 10.169 3.04113 10.0068C3.93151 9.83335 4.64828 10.269 5.09514 11.0239L7.69941 13.7925C7.92867 12.4345 8.18359 11.0799 8.57724 9.76015C8.86215 8.80435 9.22159 7.49455 10.0451 6.83809C11.1156 5.98448 12.2544 6.24384 13.0548 7.29617L21.1043 16.0019V8.85189C21.1043 7.53587 20.1938 5.91872 19.0549 5.2586Z" fill="#FFBA46"/>
<path d="M6.30864 14.7021C6.54567 15.6698 6.76027 16.6466 7.01497 17.6115C7.18169 16.8559 7.3162 16.0921 7.44261 15.3304C7.52758 14.8185 7.61078 14.3053 7.69741 13.7924L5.09114 11.0237C5.73904 12.1187 6.00929 13.4804 6.30864 14.7021Z" fill="#FFAF28"/>
</svg>
