<svg width="80" height="25" viewBox="0 0 80 25" fill="none" xmlns="http://www.w3.org/2000/svg">
<path d="M32.6721 18.68C32.2055 18.8 31.5988 18.92 30.8521 19.04C30.1055 19.1733 29.2855 19.24 28.3921 19.24C27.5521 19.24 26.8455 19.12 26.2721 18.88C25.7121 18.64 25.2588 18.3067 24.9121 17.88C24.5788 17.4533 24.3388 16.9467 24.1921 16.36C24.0455 15.76 23.9721 15.1067 23.9721 14.4V8.54H26.3921V14.02C26.3921 15.14 26.5521 15.94 26.8721 16.42C27.2055 16.9 27.7788 17.14 28.5921 17.14C28.8855 17.14 29.1921 17.1267 29.5121 17.1C29.8455 17.0733 30.0921 17.04 30.2521 17V8.54H32.6721V18.68ZM39.3923 19.2C38.6723 19.1867 38.0723 19.1067 37.5923 18.96C37.1256 18.8133 36.7523 18.6067 36.4723 18.34C36.1923 18.06 35.9923 17.72 35.8723 17.32C35.7656 16.9067 35.7123 16.44 35.7123 15.92V3.88L38.1323 3.48V15.46C38.1323 15.7533 38.1523 16 38.1923 16.2C38.2456 16.4 38.3323 16.5733 38.4523 16.72C38.5723 16.8533 38.7323 16.96 38.9323 17.04C39.1456 17.1067 39.4123 17.16 39.7323 17.2L39.3923 19.2ZM41.5698 5.78L43.9898 5.38V8.54H47.7098V10.56H43.9898V14.82C43.9898 15.66 44.1231 16.26 44.3898 16.62C44.6564 16.98 45.1098 17.16 45.7498 17.16C46.1898 17.16 46.5764 17.1133 46.9098 17.02C47.2564 16.9267 47.5298 16.84 47.7298 16.76L48.1298 18.68C47.8498 18.8 47.4831 18.92 47.0298 19.04C46.5764 19.1733 46.0431 19.24 45.4298 19.24C44.6831 19.24 44.0564 19.14 43.5498 18.94C43.0564 18.74 42.6631 18.4533 42.3698 18.08C42.0764 17.6933 41.8698 17.2333 41.7498 16.7C41.6298 16.1533 41.5698 15.5333 41.5698 14.84V5.78ZM52.4892 19H50.0692V8.54H52.4892V19ZM52.7492 5.48C52.7492 5.93333 52.6025 6.29333 52.3092 6.56C52.0158 6.82667 51.6692 6.96 51.2692 6.96C50.8558 6.96 50.5025 6.82667 50.2092 6.56C49.9158 6.29333 49.7692 5.93333 49.7692 5.48C49.7692 5.01333 49.9158 4.64667 50.2092 4.38C50.5025 4.11333 50.8558 3.98 51.2692 3.98C51.6692 3.98 52.0158 4.11333 52.3092 4.38C52.6025 4.64667 52.7492 5.01333 52.7492 5.48ZM57.9965 12.62C58.3032 12.3 58.6298 11.96 58.9765 11.6C59.3232 11.2267 59.6632 10.86 59.9965 10.5C60.3298 10.1267 60.6432 9.77333 60.9365 9.44C61.2432 9.09333 61.5032 8.79333 61.7165 8.54H64.5765C63.9098 9.28667 63.2032 10.06 62.4565 10.86C61.7232 11.66 60.9832 12.44 60.2365 13.2C60.6365 13.5333 61.0565 13.94 61.4965 14.42C61.9365 14.8867 62.3632 15.3867 62.7765 15.92C63.1898 16.4533 63.5765 16.9867 63.9365 17.52C64.2965 18.0533 64.5965 18.5467 64.8365 19H62.0365C61.7965 18.5867 61.5165 18.1533 61.1965 17.7C60.8898 17.2467 60.5565 16.8067 60.1965 16.38C59.8365 15.9533 59.4698 15.5533 59.0965 15.18C58.7232 14.7933 58.3565 14.4667 57.9965 14.2V19H55.5765V3.88L57.9965 3.48V12.62ZM69.0321 19H66.6121V8.54H69.0321V19ZM69.2921 5.48C69.2921 5.93333 69.1455 6.29333 68.8521 6.56C68.5588 6.82667 68.2121 6.96 67.8121 6.96C67.3988 6.96 67.0455 6.82667 66.7521 6.56C66.4588 6.29333 66.3121 5.93333 66.3121 5.48C66.3121 5.01333 66.4588 4.64667 66.7521 4.38C67.0455 4.11333 67.3988 3.98 67.8121 3.98C68.2121 3.98 68.5588 4.11333 68.8521 4.38C69.1455 4.64667 69.2921 5.01333 69.2921 5.48ZM71.9995 5.78L74.4195 5.38V8.54H78.1395V10.56H74.4195V14.82C74.4195 15.66 74.5528 16.26 74.8195 16.62C75.0861 16.98 75.5395 17.16 76.1795 17.16C76.6195 17.16 77.0061 17.1133 77.3395 17.02C77.6861 16.9267 77.9595 16.84 78.1595 16.76L78.5595 18.68C78.2795 18.8 77.9128 18.92 77.4595 19.04C77.0061 19.1733 76.4728 19.24 75.8595 19.24C75.1128 19.24 74.4861 19.14 73.9795 18.94C73.4861 18.74 73.0928 18.4533 72.7995 18.08C72.5061 17.6933 72.2995 17.2333 72.1795 16.7C72.0595 16.1533 71.9995 15.5333 71.9995 14.84V5.78Z" fill="#1B1B3E"/>
<path d="M11.9047 13.6699C11.8783 13.3524 11.8483 13.0354 11.8125 12.7189C11.7956 12.5707 11.7783 12.4232 11.7593 12.2752C11.7511 12.2178 11.743 12.1605 11.7344 12.1031C11.654 11.5652 11.5599 11.0288 11.4355 10.4994C11.3998 10.347 11.361 10.1949 11.3202 10.0432C11.315 10.0599 11.3088 10.076 11.3035 10.093C11.0614 10.8475 10.871 11.6187 10.7055 12.3941C10.3286 14.1572 10.1029 15.9468 9.74894 17.7142C9.56988 18.6097 9.38605 19.5288 9.04716 20.3804C8.74159 21.149 8.3616 21.9018 7.51377 22.1751C5.89551 22.6965 5.13431 20.7444 4.76676 19.581C4.33546 18.2166 4.04144 16.81 3.70033 15.421C3.63546 15.1565 3.56915 14.8921 3.50106 14.628C3.12063 16.4634 2.92402 18.3564 2.21248 20.092C2.20714 20.1051 2.20125 20.1189 2.19592 20.1319L8.4388 23.7491C9.08715 24.1248 9.96998 24.2857 10.8207 24.2338C10.8469 24.1822 10.8732 24.1311 10.8977 24.0788C10.9193 24.0328 10.9403 23.9871 10.961 23.9408C11.0524 23.7109 11.1372 23.4779 11.2111 23.2414C11.3876 22.6775 11.5273 22.1019 11.636 21.521C11.6948 21.2084 11.7473 20.8943 11.7916 20.5793C11.7918 20.5778 11.7918 20.5769 11.7924 20.5757C11.8009 20.5071 11.8097 20.4389 11.8177 20.3702C11.8372 20.2048 11.8557 20.0393 11.8719 19.8734C11.9388 19.1942 11.9834 18.5123 12.0054 17.8298C12.05 16.4435 12.0196 15.0527 11.9047 13.6699Z" fill="#326F80"/>
<path d="M14.7073 17.9164C14.6476 19.5208 14.5244 21.2241 14.1451 22.843L19.0547 19.9857C20.1938 19.3255 21.1043 17.7086 21.1043 16.3922V16.0019L13.0546 7.29614C13.5808 7.9877 13.8404 8.94517 14.0328 9.78034C14.6422 12.4215 14.8078 15.2139 14.7073 17.9164Z" fill="#326F80"/>
<path d="M19.0549 5.2586L12.5698 1.49492C11.4307 0.835025 9.57236 0.835025 8.43328 1.49492L2.00436 5.2586C0.865389 5.91872 0 7.53587 0 8.85189V16.3922C0 16.8013 0.0261031 17.2393 0.184385 17.6686C0.45652 16.5455 0.610583 15.4046 0.842841 14.2723C1.01856 13.4148 1.18162 12.5294 1.52118 11.7189C1.81108 11.0261 2.21107 10.169 3.04113 10.0068C3.93151 9.83335 4.64828 10.269 5.09514 11.0239L7.69941 13.7925C7.92867 12.4345 8.18359 11.0799 8.57724 9.76015C8.86215 8.80435 9.22159 7.49455 10.0451 6.83809C11.1156 5.98448 12.2544 6.24384 13.0548 7.29617L21.1043 16.0019V8.85189C21.1043 7.53587 20.1938 5.91872 19.0549 5.2586Z" fill="#3C8599"/>
<path d="M6.30868 14.7021C6.54572 15.6697 6.76032 16.6465 7.01501 17.6115C7.18174 16.8559 7.31625 16.0921 7.44265 15.3304C7.52763 14.8185 7.61082 14.3053 7.69746 13.7923L5.09119 11.0237C5.73909 12.1187 6.00934 13.4803 6.30868 14.7021Z" fill="#326F80"/>
</svg>
