<svg width="85" height="25" viewBox="0 0 85 25" fill="none" xmlns="http://www.w3.org/2000/svg">
<path d="M34.4881 18.68C34.0214 18.8 33.4148 18.92 32.6681 19.04C31.9214 19.1733 31.1014 19.24 30.2081 19.24C29.3681 19.24 28.6614 19.12 28.0881 18.88C27.5281 18.64 27.0748 18.3067 26.7281 17.88C26.3948 17.4533 26.1548 16.9467 26.0081 16.36C25.8614 15.76 25.7881 15.1067 25.7881 14.4V8.54H28.2081V14.02C28.2081 15.14 28.3681 15.94 28.6881 16.42C29.0214 16.9 29.5948 17.14 30.4081 17.14C30.7014 17.14 31.0081 17.1267 31.3281 17.1C31.6614 17.0733 31.9081 17.04 32.0681 17V8.54H34.4881V18.68ZM41.2083 19.2C40.4883 19.1867 39.8883 19.1067 39.4083 18.96C38.9416 18.8133 38.5683 18.6067 38.2883 18.34C38.0083 18.06 37.8083 17.72 37.6883 17.32C37.5816 16.9067 37.5283 16.44 37.5283 15.92V3.88L39.9483 3.48V15.46C39.9483 15.7533 39.9683 16 40.0083 16.2C40.0616 16.4 40.1483 16.5733 40.2683 16.72C40.3883 16.8533 40.5483 16.96 40.7483 17.04C40.9616 17.1067 41.2283 17.16 41.5483 17.2L41.2083 19.2ZM43.3858 5.78L45.8058 5.38V8.54H49.5258V10.56H45.8058V14.82C45.8058 15.66 45.9391 16.26 46.2058 16.62C46.4724 16.98 46.9258 17.16 47.5658 17.16C48.0058 17.16 48.3924 17.1133 48.7258 17.02C49.0724 16.9267 49.3458 16.84 49.5458 16.76L49.9458 18.68C49.6658 18.8 49.2991 18.92 48.8458 19.04C48.3924 19.1733 47.8591 19.24 47.2458 19.24C46.4991 19.24 45.8724 19.14 45.3658 18.94C44.8724 18.74 44.4791 18.4533 44.1858 18.08C43.8924 17.6933 43.6858 17.2333 43.5658 16.7C43.4458 16.1533 43.3858 15.5333 43.3858 14.84V5.78ZM54.3051 19H51.8851V8.54H54.3051V19ZM54.5651 5.48C54.5651 5.93333 54.4185 6.29333 54.1251 6.56C53.8318 6.82667 53.4851 6.96 53.0851 6.96C52.6718 6.96 52.3185 6.82667 52.0251 6.56C51.7318 6.29333 51.5851 5.93333 51.5851 5.48C51.5851 5.01333 51.7318 4.64667 52.0251 4.38C52.3185 4.11333 52.6718 3.98 53.0851 3.98C53.4851 3.98 53.8318 4.11333 54.1251 4.38C54.4185 4.64667 54.5651 5.01333 54.5651 5.48ZM59.8125 12.62C60.1191 12.3 60.4458 11.96 60.7925 11.6C61.1391 11.2267 61.4791 10.86 61.8125 10.5C62.1458 10.1267 62.4591 9.77333 62.7525 9.44C63.0591 9.09333 63.3191 8.79333 63.5325 8.54H66.3925C65.7258 9.28667 65.0191 10.06 64.2725 10.86C63.5391 11.66 62.7991 12.44 62.0525 13.2C62.4525 13.5333 62.8725 13.94 63.3125 14.42C63.7525 14.8867 64.1791 15.3867 64.5925 15.92C65.0058 16.4533 65.3925 16.9867 65.7525 17.52C66.1125 18.0533 66.4125 18.5467 66.6525 19H63.8525C63.6125 18.5867 63.3325 18.1533 63.0125 17.7C62.7058 17.2467 62.3725 16.8067 62.0125 16.38C61.6525 15.9533 61.2858 15.5533 60.9125 15.18C60.5391 14.7933 60.1725 14.4667 59.8125 14.2V19H57.3925V3.88L59.8125 3.48V12.62ZM70.8481 19H68.4281V8.54H70.8481V19ZM71.1081 5.48C71.1081 5.93333 70.9614 6.29333 70.6681 6.56C70.3748 6.82667 70.0281 6.96 69.6281 6.96C69.2148 6.96 68.8614 6.82667 68.5681 6.56C68.2748 6.29333 68.1281 5.93333 68.1281 5.48C68.1281 5.01333 68.2748 4.64667 68.5681 4.38C68.8614 4.11333 69.2148 3.98 69.6281 3.98C70.0281 3.98 70.3748 4.11333 70.6681 4.38C70.9614 4.64667 71.1081 5.01333 71.1081 5.48ZM73.8154 5.78L76.2354 5.38V8.54H79.9554V10.56H76.2354V14.82C76.2354 15.66 76.3688 16.26 76.6354 16.62C76.9021 16.98 77.3554 17.16 77.9954 17.16C78.4354 17.16 78.8221 17.1133 79.1554 17.02C79.5021 16.9267 79.7754 16.84 79.9754 16.76L80.3754 18.68C80.0954 18.8 79.7288 18.92 79.2754 19.04C78.8221 19.1733 78.2888 19.24 77.6754 19.24C76.9288 19.24 76.3021 19.14 75.7954 18.94C75.3021 18.74 74.9088 18.4533 74.6154 18.08C74.3221 17.6933 74.1154 17.2333 73.9954 16.7C73.8754 16.1533 73.8154 15.5333 73.8154 14.84V5.78Z" fill="#1B1B3E"/>
<path d="M12.7178 13.5354C12.6896 13.1961 12.6576 12.8575 12.6194 12.5194C12.6013 12.3611 12.5828 12.2035 12.5625 12.0453C12.5537 11.9841 12.5451 11.9229 12.5359 11.8615C12.45 11.2869 12.3495 10.7138 12.2166 10.1483C12.1785 9.98549 12.137 9.82304 12.0935 9.66095C12.0879 9.67875 12.0812 9.69595 12.0757 9.71411C11.817 10.5202 11.6136 11.344 11.4368 12.1724C11.0342 14.0559 10.793 15.9677 10.4149 17.8559C10.2236 18.8125 10.0272 19.7944 9.66515 20.7042C9.33872 21.5252 8.93277 22.3295 8.02703 22.6214C6.29825 23.1784 5.48506 21.0931 5.09241 19.8502C4.63164 18.3926 4.31754 16.8899 3.95313 15.4061C3.88383 15.1234 3.81299 14.841 3.74025 14.5588C3.33384 16.5196 3.12381 18.542 2.36366 20.396C2.35796 20.41 2.35167 20.4248 2.34598 20.4386L9.01524 24.303C9.70787 24.7043 10.651 24.8762 11.5598 24.8207C11.5878 24.7656 11.616 24.7111 11.6421 24.6552C11.6652 24.606 11.6876 24.5572 11.7097 24.5078C11.8074 24.2622 11.8979 24.0132 11.9769 23.7606C12.1655 23.1581 12.3146 22.5432 12.4308 21.9226C12.4936 21.5887 12.5497 21.2531 12.597 20.9166C12.5973 20.9151 12.5973 20.9141 12.5979 20.9128C12.607 20.8395 12.6164 20.7666 12.6249 20.6933C12.6457 20.5166 12.6655 20.3398 12.6828 20.1625C12.7543 19.4369 12.802 18.7084 12.8255 17.9794C12.8731 16.4984 12.8407 15.0126 12.7178 13.5354Z" fill="#E6B300"/>
<path d="M15.7118 18.0717C15.648 19.7857 15.5164 21.6054 15.1112 23.3349L20.3562 20.2824C21.5731 19.5771 22.5457 17.8497 22.5457 16.4435V16.0265L13.9462 6.72614C14.5084 7.46492 14.7857 8.48779 14.9913 9.38C15.6422 12.2015 15.8192 15.1847 15.7118 18.0717Z" fill="#E6B300"/>
<path d="M20.3563 4.54946L13.4284 0.528727C12.2114 -0.176242 10.2262 -0.176242 9.00928 0.528727L2.14125 4.54946C0.924495 5.25467 0 6.98227 0 8.38817V16.4435C0 16.8806 0.027886 17.3484 0.196979 17.8071C0.4877 16.6073 0.652285 15.3884 0.900407 14.1787C1.08813 13.2627 1.26232 12.3168 1.62507 11.4509C1.93478 10.7109 2.36208 9.79526 3.24884 9.62201C4.20003 9.43666 4.96576 9.90206 5.44313 10.7085L8.22528 13.6662C8.47019 12.2155 8.74252 10.7684 9.16306 9.35847C9.46743 8.33739 9.85142 6.93812 10.7312 6.23683C11.8748 5.32492 13.0914 5.60199 13.9464 6.72619L22.5457 16.0265V8.38817C22.5457 6.98227 21.5731 5.25467 20.3563 4.54946Z" fill="#FFC700"/>
<path d="M6.73949 14.6379C6.99272 15.6717 7.22197 16.7152 7.49407 17.746C7.67218 16.9389 7.81588 16.1229 7.95091 15.3092C8.04169 14.7623 8.13057 14.2141 8.22312 13.6661L5.43884 10.7083C6.131 11.8781 6.4197 13.3328 6.73949 14.6379Z" fill="#E6B300"/>
</svg>
