<svg width="85" height="25" viewBox="0 0 85 25" fill="none" xmlns="http://www.w3.org/2000/svg">
<path d="M34.4882 18.68C34.0215 18.8 33.4148 18.92 32.6682 19.04C31.9215 19.1733 31.1015 19.24 30.2082 19.24C29.3682 19.24 28.6615 19.12 28.0882 18.88C27.5282 18.64 27.0748 18.3067 26.7282 17.88C26.3948 17.4533 26.1548 16.9467 26.0082 16.36C25.8615 15.76 25.7882 15.1067 25.7882 14.4V8.54H28.2082V14.02C28.2082 15.14 28.3682 15.94 28.6882 16.42C29.0215 16.9 29.5948 17.14 30.4082 17.14C30.7015 17.14 31.0082 17.1267 31.3282 17.1C31.6615 17.0733 31.9082 17.04 32.0682 17V8.54H34.4882V18.68ZM41.2083 19.2C40.4883 19.1867 39.8883 19.1067 39.4083 18.96C38.9417 18.8133 38.5683 18.6067 38.2883 18.34C38.0083 18.06 37.8083 17.72 37.6883 17.32C37.5817 16.9067 37.5283 16.44 37.5283 15.92V3.88L39.9483 3.48V15.46C39.9483 15.7533 39.9683 16 40.0083 16.2C40.0617 16.4 40.1483 16.5733 40.2683 16.72C40.3883 16.8533 40.5483 16.96 40.7483 17.04C40.9617 17.1067 41.2283 17.16 41.5483 17.2L41.2083 19.2ZM43.3858 5.78L45.8058 5.38V8.54H49.5258V10.56H45.8058V14.82C45.8058 15.66 45.9392 16.26 46.2058 16.62C46.4725 16.98 46.9258 17.16 47.5658 17.16C48.0058 17.16 48.3925 17.1133 48.7258 17.02C49.0725 16.9267 49.3458 16.84 49.5458 16.76L49.9458 18.68C49.6658 18.8 49.2992 18.92 48.8458 19.04C48.3925 19.1733 47.8592 19.24 47.2458 19.24C46.4992 19.24 45.8725 19.14 45.3658 18.94C44.8725 18.74 44.4792 18.4533 44.1858 18.08C43.8925 17.6933 43.6858 17.2333 43.5658 16.7C43.4458 16.1533 43.3858 15.5333 43.3858 14.84V5.78ZM54.3052 19H51.8852V8.54H54.3052V19ZM54.5652 5.48C54.5652 5.93333 54.4185 6.29333 54.1252 6.56C53.8319 6.82667 53.4852 6.96 53.0852 6.96C52.6719 6.96 52.3185 6.82667 52.0252 6.56C51.7319 6.29333 51.5852 5.93333 51.5852 5.48C51.5852 5.01333 51.7319 4.64667 52.0252 4.38C52.3185 4.11333 52.6719 3.98 53.0852 3.98C53.4852 3.98 53.8319 4.11333 54.1252 4.38C54.4185 4.64667 54.5652 5.01333 54.5652 5.48ZM59.8125 12.62C60.1192 12.3 60.4459 11.96 60.7925 11.6C61.1392 11.2267 61.4792 10.86 61.8125 10.5C62.1459 10.1267 62.4592 9.77333 62.7525 9.44C63.0592 9.09333 63.3192 8.79333 63.5325 8.54H66.3925C65.7259 9.28667 65.0192 10.06 64.2725 10.86C63.5392 11.66 62.7992 12.44 62.0525 13.2C62.4525 13.5333 62.8725 13.94 63.3125 14.42C63.7525 14.8867 64.1792 15.3867 64.5925 15.92C65.0059 16.4533 65.3925 16.9867 65.7525 17.52C66.1125 18.0533 66.4125 18.5467 66.6525 19H63.8525C63.6125 18.5867 63.3325 18.1533 63.0125 17.7C62.7059 17.2467 62.3725 16.8067 62.0125 16.38C61.6525 15.9533 61.2859 15.5533 60.9125 15.18C60.5392 14.7933 60.1725 14.4667 59.8125 14.2V19H57.3925V3.88L59.8125 3.48V12.62ZM70.8482 19H68.4282V8.54H70.8482V19ZM71.1082 5.48C71.1082 5.93333 70.9615 6.29333 70.6682 6.56C70.3748 6.82667 70.0282 6.96 69.6282 6.96C69.2148 6.96 68.8615 6.82667 68.5682 6.56C68.2748 6.29333 68.1282 5.93333 68.1282 5.48C68.1282 5.01333 68.2748 4.64667 68.5682 4.38C68.8615 4.11333 69.2148 3.98 69.6282 3.98C70.0282 3.98 70.3748 4.11333 70.6682 4.38C70.9615 4.64667 71.1082 5.01333 71.1082 5.48ZM73.8155 5.78L76.2355 5.38V8.54H79.9555V10.56H76.2355V14.82C76.2355 15.66 76.3688 16.26 76.6355 16.62C76.9022 16.98 77.3555 17.16 77.9955 17.16C78.4355 17.16 78.8222 17.1133 79.1555 17.02C79.5022 16.9267 79.7755 16.84 79.9755 16.76L80.3755 18.68C80.0955 18.8 79.7288 18.92 79.2755 19.04C78.8222 19.1733 78.2888 19.24 77.6755 19.24C76.9288 19.24 76.3022 19.14 75.7955 18.94C75.3022 18.74 74.9088 18.4533 74.6155 18.08C74.3222 17.6933 74.1155 17.2333 73.9955 16.7C73.8755 16.1533 73.8155 15.5333 73.8155 14.84V5.78Z" fill="#1B1B3E"/>
<path d="M12.7181 13.5354C12.6898 13.1961 12.6578 12.8575 12.6196 12.5194C12.6015 12.3611 12.583 12.2035 12.5627 12.0453C12.554 11.9841 12.5453 11.9229 12.5362 11.8615C12.4502 11.2869 12.3497 10.7138 12.2168 10.1483C12.1787 9.98549 12.1372 9.82304 12.0937 9.66095C12.0881 9.67875 12.0814 9.69595 12.0759 9.71411C11.8172 10.5202 11.6138 11.344 11.437 12.1724C11.0344 14.0559 10.7933 15.9677 10.4151 17.8559C10.2238 18.8125 10.0274 19.7944 9.66537 20.7042C9.33893 21.5252 8.93299 22.3295 8.02724 22.6214C6.29846 23.1784 5.48527 21.0931 5.09262 19.8502C4.63186 18.3926 4.31776 16.8899 3.95335 15.4061C3.88405 15.1234 3.81321 14.841 3.74047 14.5588C3.33405 16.5196 3.12402 18.542 2.36387 20.396C2.35818 20.41 2.35189 20.4248 2.34619 20.4386L9.01546 24.303C9.70809 24.7043 10.6512 24.8762 11.56 24.8207C11.588 24.7656 11.6162 24.7111 11.6423 24.6552C11.6654 24.606 11.6878 24.5572 11.7099 24.5078C11.8076 24.2622 11.8981 24.0132 11.9771 23.7606C12.1657 23.1581 12.3148 22.5432 12.431 21.9226C12.4938 21.5887 12.5499 21.2531 12.5973 20.9166C12.5975 20.9151 12.5975 20.9141 12.5981 20.9128C12.6072 20.8395 12.6166 20.7666 12.6252 20.6933C12.6459 20.5166 12.6657 20.3398 12.6831 20.1625C12.7545 19.4369 12.8022 18.7084 12.8257 17.9794C12.8733 16.4984 12.8409 15.0126 12.7181 13.5354Z" fill="#4466F2"/>
<path d="M15.7119 18.0718C15.6481 19.7857 15.5165 21.6054 15.1113 23.3349L20.3563 20.2824C21.5732 19.5771 22.5458 17.8498 22.5458 16.4435V16.0265L13.9463 6.72617C14.5085 7.46495 14.7858 8.48782 14.9913 9.38004C15.6423 12.2016 15.8192 15.1847 15.7119 18.0718Z" fill="#4466F2"/>
<path d="M20.3563 4.54946L13.4284 0.528727C12.2114 -0.176242 10.2262 -0.176242 9.00928 0.528727L2.14125 4.54946C0.924495 5.25467 0 6.98227 0 8.38817V16.4435C0 16.8806 0.027886 17.3484 0.196979 17.8071C0.4877 16.6073 0.652285 15.3884 0.900407 14.1787C1.08813 13.2627 1.26232 12.3168 1.62507 11.4509C1.93478 10.7109 2.36208 9.79526 3.24884 9.62201C4.20003 9.43666 4.96576 9.90206 5.44313 10.7085L8.22528 13.6662C8.47019 12.2155 8.74252 10.7684 9.16306 9.35847C9.46743 8.33739 9.85142 6.93812 10.7312 6.23683C11.8748 5.32492 13.0914 5.60199 13.9464 6.72619L22.5457 16.0265V8.38817C22.5457 6.98227 21.5731 5.25467 20.3563 4.54946Z" fill="#1EA5EC"/>
<path d="M6.73962 14.6379C6.99284 15.6717 7.2221 16.7152 7.49419 17.746C7.6723 16.9389 7.816 16.1229 7.95104 15.3092C8.04181 14.7623 8.13069 14.2141 8.22325 13.6661L5.43896 10.7083C6.13112 11.8781 6.41982 13.3328 6.73962 14.6379Z" fill="#4466F2"/>
</svg>
