<svg version="1.2" xmlns="http://www.w3.org/2000/svg" viewBox="0 0 80 25" width="80" height="25">
	<title>6-svg</title>
	<style>
		.s0 { fill: #1b1b3e } 
		.s1 { fill: #326f80 } 
		.s2 { fill: #2c6355 } 
	</style>
	<path id="Layer" class="s0" d="m32.7 18.7q-0.7 0.2-1.8 0.3-1.2 0.2-2.5 0.2-1.3 0-2.1-0.3-0.9-0.4-1.4-1-0.5-0.7-0.7-1.5-0.2-0.9-0.2-2v-5.9h2.4v5.5q0 1.7 0.5 2.4 0.5 0.7 1.7 0.7 0.4 0 0.9 0 0.5 0 0.8-0.1v-8.5h2.4zm6.7 0.6q-1.1-0.1-1.8-0.3-0.7-0.2-1.1-0.6-0.4-0.4-0.6-1-0.2-0.6-0.2-1.4v-12.1l2.4-0.4v12q0 0.5 0.1 0.8 0.1 0.3 0.3 0.5 0.1 0.2 0.4 0.3 0.4 0.1 0.8 0.2zm2.2-13.5l2.4-0.4v3.2h3.7v2h-3.7v4.3q0 1.2 0.4 1.8 0.4 0.5 1.4 0.5 0.6 0 1.1-0.1 0.6-0.2 0.9-0.3l0.4 1.9q-0.5 0.2-1.1 0.4-0.7 0.2-1.6 0.2-1.2 0-1.9-0.3-0.8-0.3-1.2-0.9-0.4-0.5-0.6-1.3-0.2-0.9-0.2-1.9zm10.9 13.2h-2.4v-10.4h2.4zm0.3-13.6q0 0.7-0.5 1.1-0.4 0.4-1 0.4-0.6 0-1.1-0.4-0.4-0.4-0.4-1.1 0-0.7 0.4-1.1 0.5-0.4 1.1-0.4 0.6 0 1 0.4 0.5 0.4 0.5 1.1zm5.2 7.2q0.5-0.5 1-1 0.5-0.6 1-1.1 0.5-0.6 1-1.1 0.4-0.5 0.8-0.9h2.8q-1 1.1-2.1 2.3-1.1 1.2-2.2 2.4 0.6 0.5 1.2 1.2 0.7 0.7 1.3 1.5 0.6 0.8 1.2 1.6 0.5 0.8 0.9 1.5h-2.8q-0.4-0.7-0.9-1.3-0.4-0.7-1-1.4-0.5-0.6-1.1-1.2-0.5-0.5-1.1-0.9v4.8h-2.4v-15.2l2.4-0.4zm11.1 6.4h-2.4v-10.4h2.4zm0.2-13.6q0 0.7-0.4 1.1-0.4 0.4-1 0.4-0.7 0-1.1-0.4-0.4-0.4-0.4-1.1 0-0.7 0.4-1.1 0.4-0.4 1.1-0.4 0.6 0 1 0.4 0.4 0.4 0.4 1.1zm2.7 0.3l2.5-0.4v3.2h3.7v2h-3.7v4.3q0 1.2 0.4 1.8 0.4 0.5 1.3 0.5 0.7 0 1.2-0.1 0.5-0.2 0.8-0.3l0.4 1.9q-0.4 0.2-1.1 0.4-0.7 0.2-1.6 0.2-1.1 0-1.9-0.3-0.7-0.3-1.2-0.9-0.4-0.5-0.6-1.3-0.2-0.9-0.2-1.9z"/>
	<filter id="f0">
		<feFlood flood-color="#1f574a" flood-opacity="1" />
		<feBlend mode="normal" in2="SourceGraphic"/>
		<feComposite in2="SourceAlpha" operator="in" />
	</filter>
	<g id="Folder 1" filter="url(#f0)">
		<path id="Layer" class="s1" d="m11.9 13.7q0-0.5-0.1-1 0-0.2 0-0.4-0.1-0.1-0.1-0.2-0.1-0.8-0.3-1.6 0-0.2-0.1-0.5 0 0.1 0 0.1-0.4 1.1-0.6 2.3c-0.4 1.8-0.6 3.5-1 5.3-0.1 0.9-0.3 1.8-0.7 2.7-0.3 0.7-0.6 1.5-1.5 1.8-1.6 0.5-2.4-1.5-2.7-2.6-0.5-1.4-0.8-2.8-1.1-4.2q-0.1-0.4-0.2-0.8c-0.4 1.9-0.6 3.8-1.3 5.5q0 0 0 0l6.2 3.6c0.7 0.4 1.6 0.6 2.4 0.5q0.1 0 0.1-0.1 0-0.1 0.1-0.2 0.1-0.3 0.2-0.7 0.3-0.8 0.4-1.7 0.1-0.4 0.2-0.9 0 0 0 0 0-0.1 0-0.2 0-0.3 0.1-0.5 0.1-1 0.1-2.1 0.1-2.1-0.1-4.1z"/>
		<path id="Layer" class="s1" d="m14.7 17.9c-0.1 1.6-0.2 3.3-0.6 4.9l5-2.8c1.1-0.7 2-2.3 2-3.6v-0.4l-8-8.7c0.5 0.7 0.7 1.6 0.9 2.5 0.6 2.6 0.8 5.4 0.7 8.1z"/>
	</g>
	<path id="Layer" class="s2" d="m19.1 5.3l-6.5-3.8c-1.2-0.7-3-0.7-4.2 0l-6.4 3.8c-1.1 0.6-2 2.2-2 3.6v7.5c0 0.4 0 0.8 0.2 1.3 0.3-1.2 0.4-2.3 0.6-3.4 0.2-0.9 0.4-1.8 0.7-2.6 0.3-0.7 0.7-1.5 1.5-1.7 0.9-0.2 1.6 0.3 2.1 1l2.6 2.8c0.2-1.4 0.5-2.7 0.9-4 0.3-1 0.6-2.3 1.4-3 1.1-0.8 2.3-0.6 3.1 0.5l8 8.7v-7.1c0-1.4-0.9-3-2-3.6z"/>
	<path id="Layer" class="s1" d="m6.3 14.7c0.2 1 0.5 1.9 0.7 2.9q0.3-1.1 0.4-2.3 0.2-0.7 0.3-1.5l-2.6-2.8c0.6 1.1 0.9 2.5 1.2 3.7z"/>
</svg>