<svg width="0" height="0" fill="none" style="visibility: hidden; position: absolute;" aria-hidden="true">
    <symbol id="gym" viewBox="0 0 34 34" xmlns="http://www.w3.org/2000/svg">
        <g>
            <path d="M10.4832 9.91666H6.5165C6.04706 9.91666 5.6665 10.2972 5.6665 10.7667V23.2333C5.6665 23.7028 6.04706 24.0833 6.5165 24.0833H10.4832C10.9526 24.0833 11.3332 23.7028 11.3332 23.2333V10.7667C11.3332 10.2972 10.9526 9.91666 10.4832 9.91666Z" stroke-width="1.5" stroke-linecap="round" stroke-linejoin="round"/>
            <path d="M27.4832 9.91666H23.5165C23.047 9.91666 22.6665 10.2972 22.6665 10.7667V23.2333C22.6665 23.7028 23.047 24.0833 23.5165 24.0833H27.4832C27.9527 24.0833 28.3332 23.7028 28.3332 23.2333V10.7667C28.3332 10.2972 27.9527 9.91666 27.4832 9.91666Z" stroke-width="1.5" stroke-linecap="round" stroke-linejoin="round"/>
            <path d="M1.4165 20.4V13.6C1.4165 13.1306 1.79706 12.75 2.2665 12.75H4.8165C5.28594 12.75 5.6665 13.1306 5.6665 13.6V20.4C5.6665 20.8695 5.28594 21.25 4.8165 21.25H2.2665C1.79706 21.25 1.4165 20.8695 1.4165 20.4Z" stroke-width="1.5" stroke-linecap="round" stroke-linejoin="round"/>
            <path d="M32.5835 20.4V13.6C32.5835 13.1306 32.203 12.75 31.7335 12.75H29.1835C28.714 12.75 28.3335 13.1306 28.3335 13.6V20.4C28.3335 20.8695 28.714 21.25 29.1835 21.25H31.7335C32.203 21.25 32.5835 20.8695 32.5835 20.4Z" stroke-width="1.5" stroke-linecap="round" stroke-linejoin="round"/>
            <path d="M11.3335 17H22.6668" stroke-width="1.5" stroke-linecap="round" stroke-linejoin="round"/>
        </g>
    </symbol>
    <symbol id="running" viewBox="0 0 40 40" xmlns="http://www.w3.org/2000/svg">
        <g opacity="0.8">
            <path d="M24.9998 11.6667C26.8408 11.6667 28.3332 10.1743 28.3332 8.33333C28.3332 6.49238 26.8408 5 24.9998 5C23.1588 5 21.6665 6.49238 21.6665 8.33333C21.6665 10.1743 23.1588 11.6667 24.9998 11.6667Z" stroke-width="1.5" stroke-linecap="round" stroke-linejoin="round"/>
            <path d="M21.0221 13.7782L15.5083 20.6702L22.4004 27.5623L18.9544 35.1435" stroke-width="1.5" stroke-linecap="round" stroke-linejoin="round"/>
            <path d="M10.6841 15.8458L16.3289 10.3322L21.0221 13.7782L25.8468 19.292H32.0496" stroke-width="1.5" stroke-linecap="round" stroke-linejoin="round"/>
            <path d="M14.819 26.1838L12.7514 27.5623H7.23779" stroke-width="1.5" stroke-linecap="round" stroke-linejoin="round"/>
        </g>
    </symbol>
    <symbol id="stretching" viewBox="0 0 44 44" xmlns="http://www.w3.org/2000/svg">
        <g opacity="0.8">
            <path d="M29.3332 12.8333C31.3583 12.8333 32.9998 11.1917 32.9998 9.16667C32.9998 7.14162 31.3583 5.5 29.3332 5.5C27.3081 5.5 25.6665 7.14162 25.6665 9.16667C25.6665 11.1917 27.3081 12.8333 29.3332 12.8333Z" stroke-width="1.5" stroke-linecap="round" stroke-linejoin="round"/>
            <path d="M9.1665 36.6667L18.1665 35.7064L23.1666 26.1032L25.1666 16.5L16.1665 18.4206L19.1664 22.262" stroke-width="1.5" stroke-linecap="round" stroke-linejoin="round"/>
            <path d="M27.1665 28.0238H31.1665V36.6667" stroke-width="1.5" stroke-linecap="round" stroke-linejoin="round"/>
        </g>
    </symbol>
    <symbol id="yoga" viewBox="0 0 40 40" xmlns="http://www.w3.org/2000/svg">
        <g opacity="0.8">
            <path d="M24.2855 25.006L25.7142 28.081C25.7142 28.081 32.1427 29.4463 32.1427 32.6937C32.1427 35 29.2855 35 29.2855 35H21.6665L17.9165 32.9167" stroke-width="1.5" stroke-linecap="round" stroke-linejoin="round"/>
            <path d="M15.7146 25.006L14.286 28.081C14.286 28.081 7.85742 29.4463 7.85742 32.6937C7.85742 35 10.7146 35 10.7146 35H14.1669L17.917 32.9167L22.5003 30" stroke-width="1.5" stroke-linecap="round" stroke-linejoin="round"/>
            <path d="M5 26.5435C5 26.5435 8.57143 25.7748 10.7143 25.006C12.8571 14.2432 19.2857 15.012 20 15.012C20.7143 15.012 27.1428 14.2432 29.2857 25.006C31.4285 25.7748 35 26.5435 35 26.5435" stroke-width="1.5" stroke-linecap="round" stroke-linejoin="round"/>
            <path d="M19.9998 11.6667C21.8408 11.6667 23.3332 10.1743 23.3332 8.33333C23.3332 6.49238 21.8408 5 19.9998 5C18.1588 5 16.6665 6.49238 16.6665 8.33333C16.6665 10.1743 18.1588 11.6667 19.9998 11.6667Z" stroke-width="1.5" stroke-linecap="round" stroke-linejoin="round"/>
        </g>
    </symbol>
</svg>