<svg width="330" height="77" viewBox="0 0 330 77" fill="none" xmlns="http://www.w3.org/2000/svg">
<g clip-path="url(#clip0_2632_2687)">
<g filter="url(#filter0_d_2632_2687)">
<path d="M5 42.9016L8.26042 44.3914C11.5208 45.8812 18.0417 48.8609 24.5625 42.5365C31.0833 36.2121 37.6042 20.5837 44.125 12.8439C50.6458 5.10421 57.1667 5.25318 63.6875 12.102C70.2083 18.9508 76.7292 32.4994 83.25 38.8601C89.7708 45.2207 96.2917 44.3934 102.812 45.7962C109.333 47.1989 115.854 50.8317 122.375 45.0744C128.896 39.3172 135.417 24.1698 141.937 23.5777C148.458 22.9856 154.979 36.9489 161.5 39.8721C168.021 42.7953 174.542 34.6784 181.062 31.6116C187.583 28.5449 194.104 30.5282 200.625 31.5825C207.146 32.6369 213.667 32.7622 220.187 33.5594C226.708 34.3566 233.229 35.8257 239.75 35.1081C246.271 34.3905 252.792 31.4863 259.312 33.428C265.833 35.3698 272.354 42.1575 278.875 46.4395C285.396 50.7215 291.917 52.4979 298.437 49.5302C304.958 46.5625 311.479 38.8507 314.74 34.9948L318 31.1389" stroke="white" stroke-width="2"/>
</g>
<path d="M54.5 49.5V-2" stroke="#74A9F4"/>
<path d="M104.5 49.5V-2" stroke="#74A9F4"/>
<path d="M153.5 49.5V-2" stroke="#74A9F4"/>
<path d="M205.5 49.5V-2" stroke="#74A9F4"/>
<path d="M263.5 49.5V-2" stroke="#74A9F4"/>
<path d="M317.5 49.5V-2" stroke="#74A9F4"/>
<path d="M5.5 49.5V-2" stroke="#74A9F4"/>
<path d="M6.536 72.126C5.76133 72.126 5.09867 71.9393 4.548 71.566C4.00667 71.1833 3.596 70.6327 3.316 69.914C3.036 69.1953 2.896 68.3273 2.896 67.31C2.896 66.4513 2.98467 65.6953 3.162 65.042C3.33933 64.3887 3.60067 63.838 3.946 63.39C4.29133 62.9327 4.71133 62.5873 5.206 62.354C5.70067 62.1207 6.26067 62.004 6.886 62.004C7.31533 62.004 7.754 62.088 8.202 62.256C8.65933 62.424 9.06067 62.662 9.406 62.97C9.50867 63.0447 9.56933 63.138 9.588 63.25C9.616 63.3527 9.616 63.4553 9.588 63.558C9.56 63.6513 9.50867 63.7307 9.434 63.796C9.36867 63.8613 9.28467 63.8987 9.182 63.908C9.07933 63.908 8.972 63.866 8.86 63.782C8.54267 63.5113 8.216 63.32 7.88 63.208C7.544 63.0867 7.20333 63.026 6.858 63.026C6.25133 63.026 5.73333 63.1753 5.304 63.474C4.884 63.7727 4.562 64.2253 4.338 64.832C4.12333 65.4293 4.016 66.1807 4.016 67.086V68.388H3.89C3.946 67.856 4.1 67.3987 4.352 67.016C4.61333 66.624 4.94467 66.3253 5.346 66.12C5.74733 65.9147 6.2 65.812 6.704 65.812C7.28267 65.812 7.796 65.9427 8.244 66.204C8.692 66.4653 9.042 66.834 9.294 67.31C9.546 67.7767 9.672 68.3133 9.672 68.92C9.672 69.536 9.54133 70.0867 9.28 70.572C9.01867 71.0573 8.65 71.44 8.174 71.72C7.698 71.9907 7.152 72.126 6.536 72.126ZM6.466 71.146C6.87667 71.146 7.24067 71.0573 7.558 70.88C7.87533 70.6933 8.12267 70.4367 8.3 70.11C8.47733 69.774 8.566 69.3913 8.566 68.962C8.566 68.5327 8.47733 68.1547 8.3 67.828C8.12267 67.5013 7.87533 67.2447 7.558 67.058C7.24067 66.8713 6.87667 66.778 6.466 66.778C6.05533 66.778 5.69133 66.8713 5.374 67.058C5.05667 67.2447 4.80933 67.5013 4.632 67.828C4.45467 68.1547 4.366 68.5327 4.366 68.962C4.366 69.3913 4.45467 69.774 4.632 70.11C4.80933 70.4367 5.05667 70.6933 5.374 70.88C5.69133 71.0573 6.05533 71.146 6.466 71.146Z" fill="#F4F4F4"/>
<path d="M53.352 72.098C53.2213 72.098 53.1093 72.0653 53.016 72C52.9227 71.9347 52.862 71.846 52.834 71.734C52.8153 71.6127 52.8433 71.482 52.918 71.342L57.412 62.62V63.124H52.372C52.204 63.124 52.0733 63.082 51.98 62.998C51.8867 62.9047 51.84 62.7787 51.84 62.62C51.84 62.4613 51.8867 62.34 51.98 62.256C52.0733 62.172 52.204 62.13 52.372 62.13H57.93C58.098 62.13 58.2333 62.172 58.336 62.256C58.4387 62.34 58.49 62.4613 58.49 62.62C58.49 62.7507 58.4713 62.8673 58.434 62.97C58.406 63.0633 58.364 63.1707 58.308 63.292L53.996 71.706C53.9307 71.8367 53.8467 71.9347 53.744 72C53.6413 72.0653 53.5107 72.098 53.352 72.098Z" fill="#F4F4F4"/>
<path d="M104.2 72.126C103.463 72.126 102.828 72.0187 102.296 71.804C101.773 71.5893 101.372 71.2767 101.092 70.866C100.821 70.4553 100.686 69.9607 100.686 69.382C100.686 68.9247 100.779 68.5187 100.966 68.164C101.153 67.8 101.414 67.506 101.75 67.282C102.086 67.058 102.473 66.918 102.912 66.862V67.072C102.305 66.9413 101.82 66.6567 101.456 66.218C101.101 65.77 100.924 65.2427 100.924 64.636C100.924 64.076 101.055 63.6047 101.316 63.222C101.587 62.83 101.969 62.5313 102.464 62.326C102.959 62.1113 103.537 62.004 104.2 62.004C104.872 62.004 105.451 62.1113 105.936 62.326C106.431 62.5313 106.813 62.83 107.084 63.222C107.355 63.6047 107.49 64.076 107.49 64.636C107.49 65.0373 107.406 65.4107 107.238 65.756C107.079 66.092 106.851 66.372 106.552 66.596C106.253 66.82 105.903 66.974 105.502 67.058V66.862C106.165 66.9553 106.697 67.2307 107.098 67.688C107.509 68.136 107.714 68.7007 107.714 69.382C107.714 69.9607 107.574 70.4553 107.294 70.866C107.023 71.2767 106.622 71.5893 106.09 71.804C105.567 72.0187 104.937 72.126 104.2 72.126ZM104.2 71.174C104.993 71.174 105.591 71.02 105.992 70.712C106.403 70.404 106.608 69.9373 106.608 69.312C106.608 68.696 106.403 68.2387 105.992 67.94C105.591 67.632 104.993 67.478 104.2 67.478C103.416 67.478 102.819 67.632 102.408 67.94C101.997 68.2387 101.792 68.696 101.792 69.312C101.792 69.9373 101.997 70.404 102.408 70.712C102.819 71.02 103.416 71.174 104.2 71.174ZM104.2 66.526C104.657 66.526 105.045 66.456 105.362 66.316C105.689 66.1667 105.941 65.9567 106.118 65.686C106.295 65.4153 106.384 65.098 106.384 64.734C106.384 64.174 106.188 63.74 105.796 63.432C105.413 63.1147 104.881 62.956 104.2 62.956C103.519 62.956 102.987 63.1147 102.604 63.432C102.221 63.74 102.03 64.174 102.03 64.734C102.03 65.294 102.221 65.7327 102.604 66.05C102.987 66.3673 103.519 66.526 104.2 66.526Z" fill="#F4F4F4"/>
<path d="M152.514 72.126C152.094 72.126 151.655 72.042 151.198 71.874C150.741 71.706 150.339 71.4633 149.994 71.146C149.891 71.0713 149.826 70.9827 149.798 70.88C149.779 70.7773 149.784 70.6793 149.812 70.586C149.84 70.4833 149.887 70.3993 149.952 70.334C150.027 70.2593 150.115 70.222 150.218 70.222C150.321 70.2127 150.428 70.25 150.54 70.334C150.857 70.6047 151.184 70.8007 151.52 70.922C151.856 71.0433 152.197 71.104 152.542 71.104C153.149 71.104 153.662 70.9547 154.082 70.656C154.511 70.3573 154.833 69.9047 155.048 69.298C155.272 68.6913 155.384 67.94 155.384 67.044V65.742H155.51C155.454 66.2647 155.295 66.722 155.034 67.114C154.782 67.506 154.455 67.8047 154.054 68.01C153.653 68.2153 153.2 68.318 152.696 68.318C152.117 68.318 151.604 68.1873 151.156 67.926C150.708 67.6647 150.358 67.296 150.106 66.82C149.854 66.344 149.728 65.8073 149.728 65.21C149.728 64.5847 149.859 64.034 150.12 63.558C150.391 63.0727 150.759 62.6947 151.226 62.424C151.702 62.144 152.248 62.004 152.864 62.004C153.639 62.004 154.297 62.1953 154.838 62.578C155.389 62.9513 155.804 63.4973 156.084 64.216C156.364 64.9347 156.504 65.8027 156.504 66.82C156.504 67.6787 156.415 68.4347 156.238 69.088C156.061 69.7413 155.799 70.2967 155.454 70.754C155.109 71.202 154.689 71.5427 154.194 71.776C153.699 72.0093 153.139 72.126 152.514 72.126ZM152.934 67.352C153.354 67.352 153.723 67.2587 154.04 67.072C154.357 66.8853 154.605 66.6287 154.782 66.302C154.959 65.966 155.048 65.5833 155.048 65.154C155.048 64.7247 154.959 64.3467 154.782 64.02C154.605 63.6933 154.357 63.4367 154.04 63.25C153.723 63.0633 153.354 62.97 152.934 62.97C152.523 62.97 152.159 63.0633 151.842 63.25C151.534 63.4367 151.287 63.6933 151.1 64.02C150.923 64.3467 150.834 64.7247 150.834 65.154C150.834 65.5833 150.923 65.966 151.1 66.302C151.287 66.6287 151.534 66.8853 151.842 67.072C152.159 67.2587 152.523 67.352 152.934 67.352Z" fill="#F4F4F4"/>
<path d="M200.17 72C200.002 72 199.871 71.958 199.778 71.874C199.685 71.7807 199.638 71.6547 199.638 71.496C199.638 71.3373 199.685 71.2207 199.778 71.146C199.871 71.062 200.002 71.02 200.17 71.02H201.99V63.082H202.592L200.562 64.426C200.441 64.4913 200.324 64.5193 200.212 64.51C200.109 64.5007 200.021 64.4633 199.946 64.398C199.881 64.3233 199.834 64.2393 199.806 64.146C199.778 64.0433 199.783 63.9407 199.82 63.838C199.857 63.726 199.937 63.6327 200.058 63.558L201.99 62.284C202.111 62.2093 202.228 62.1487 202.34 62.102C202.452 62.0553 202.564 62.032 202.676 62.032C202.807 62.032 202.914 62.074 202.998 62.158C203.091 62.2327 203.138 62.354 203.138 62.522V71.02H204.818C204.986 71.02 205.117 71.062 205.21 71.146C205.303 71.2207 205.35 71.3373 205.35 71.496C205.35 71.664 205.303 71.79 205.21 71.874C205.117 71.958 204.986 72 204.818 72H200.17ZM210.595 72.126C209.465 72.126 208.607 71.692 208.019 70.824C207.431 69.956 207.137 68.7007 207.137 67.058C207.137 65.9567 207.267 65.0327 207.529 64.286C207.79 63.53 208.177 62.9607 208.691 62.578C209.213 62.1953 209.848 62.004 210.595 62.004C211.733 62.004 212.592 62.4333 213.171 63.292C213.759 64.1413 214.053 65.392 214.053 67.044C214.053 68.1453 213.922 69.074 213.661 69.83C213.399 70.586 213.012 71.16 212.499 71.552C211.985 71.9347 211.351 72.126 210.595 72.126ZM210.595 71.132C211.379 71.132 211.957 70.8007 212.331 70.138C212.713 69.466 212.905 68.4347 212.905 67.044C212.905 65.644 212.713 64.622 212.331 63.978C211.957 63.3247 211.379 62.998 210.595 62.998C209.82 62.998 209.241 63.3247 208.859 63.978C208.476 64.6313 208.285 65.6533 208.285 67.044C208.285 68.4347 208.476 69.466 208.859 70.138C209.241 70.8007 209.82 71.132 210.595 71.132Z" fill="#F4F4F4"/>
<path d="M257.17 72C257.002 72 256.871 71.958 256.778 71.874C256.685 71.7807 256.638 71.6547 256.638 71.496C256.638 71.3373 256.685 71.2207 256.778 71.146C256.871 71.062 257.002 71.02 257.17 71.02H258.99V63.082H259.592L257.562 64.426C257.441 64.4913 257.324 64.5193 257.212 64.51C257.109 64.5007 257.021 64.4633 256.946 64.398C256.881 64.3233 256.834 64.2393 256.806 64.146C256.778 64.0433 256.783 63.9407 256.82 63.838C256.857 63.726 256.937 63.6327 257.058 63.558L258.99 62.284C259.111 62.2093 259.228 62.1487 259.34 62.102C259.452 62.0553 259.564 62.032 259.676 62.032C259.807 62.032 259.914 62.074 259.998 62.158C260.091 62.2327 260.138 62.354 260.138 62.522V71.02H261.818C261.986 71.02 262.117 71.062 262.21 71.146C262.303 71.2207 262.35 71.3373 262.35 71.496C262.35 71.664 262.303 71.79 262.21 71.874C262.117 71.958 261.986 72 261.818 72H257.17ZM265.565 72C265.397 72 265.266 71.958 265.173 71.874C265.079 71.7807 265.033 71.6547 265.033 71.496C265.033 71.3373 265.079 71.2207 265.173 71.146C265.266 71.062 265.397 71.02 265.565 71.02H267.385V63.082H267.987L265.957 64.426C265.835 64.4913 265.719 64.5193 265.607 64.51C265.504 64.5007 265.415 64.4633 265.341 64.398C265.275 64.3233 265.229 64.2393 265.201 64.146C265.173 64.0433 265.177 63.9407 265.215 63.838C265.252 63.726 265.331 63.6327 265.453 63.558L267.385 62.284C267.506 62.2093 267.623 62.1487 267.735 62.102C267.847 62.0553 267.959 62.032 268.071 62.032C268.201 62.032 268.309 62.074 268.393 62.158C268.486 62.2327 268.533 62.354 268.533 62.522V71.02H270.213C270.381 71.02 270.511 71.062 270.605 71.146C270.698 71.2207 270.745 71.3373 270.745 71.496C270.745 71.664 270.698 71.79 270.605 71.874C270.511 71.958 270.381 72 270.213 72H265.565Z" fill="#F4F4F4"/>
<path d="M314.184 72C313.941 72 313.75 71.9347 313.61 71.804C313.479 71.664 313.414 71.4773 313.414 71.244C313.414 71.0013 313.479 70.8193 313.61 70.698C313.75 70.5767 313.941 70.516 314.184 70.516H315.752V63.642H316.62L314.562 64.888C314.385 64.9907 314.217 65.0327 314.058 65.014C313.909 64.986 313.778 64.9207 313.666 64.818C313.563 64.706 313.493 64.5753 313.456 64.426C313.419 64.2767 313.428 64.1273 313.484 63.978C313.549 63.8193 313.671 63.6887 313.848 63.586L315.78 62.424C315.967 62.312 316.153 62.2187 316.34 62.144C316.527 62.06 316.699 62.018 316.858 62.018C317.054 62.018 317.217 62.074 317.348 62.186C317.479 62.2887 317.544 62.4613 317.544 62.704V70.516H318.972C319.215 70.516 319.401 70.5767 319.532 70.698C319.672 70.8193 319.742 71.0013 319.742 71.244C319.742 71.4867 319.672 71.6733 319.532 71.804C319.401 71.9347 319.215 72 318.972 72H314.184ZM322.257 72C321.958 72 321.739 71.9347 321.599 71.804C321.468 71.664 321.403 71.4633 321.403 71.202C321.403 71.0433 321.445 70.8893 321.529 70.74C321.613 70.5907 321.734 70.432 321.893 70.264L324.707 67.268C325.136 66.82 325.444 66.414 325.631 66.05C325.817 65.6767 325.911 65.3033 325.911 64.93C325.911 64.4633 325.761 64.1087 325.463 63.866C325.173 63.6233 324.749 63.502 324.189 63.502C323.871 63.502 323.554 63.5487 323.237 63.642C322.919 63.726 322.597 63.8753 322.271 64.09C322.103 64.202 321.944 64.2487 321.795 64.23C321.655 64.2113 321.529 64.1507 321.417 64.048C321.314 63.9453 321.244 63.8193 321.207 63.67C321.169 63.5207 321.174 63.3713 321.221 63.222C321.277 63.0633 321.389 62.928 321.557 62.816C321.958 62.5453 322.406 62.34 322.901 62.2C323.405 62.06 323.909 61.99 324.413 61.99C325.122 61.99 325.719 62.0973 326.205 62.312C326.69 62.5267 327.059 62.8393 327.311 63.25C327.563 63.6607 327.689 64.16 327.689 64.748C327.689 65.14 327.623 65.5227 327.493 65.896C327.371 66.2693 327.18 66.6473 326.919 67.03C326.667 67.4127 326.335 67.8187 325.925 68.248L323.293 70.992V70.516H327.409C327.661 70.516 327.852 70.5767 327.983 70.698C328.113 70.8193 328.179 71.0013 328.179 71.244C328.179 71.4867 328.113 71.6733 327.983 71.804C327.852 71.9347 327.661 72 327.409 72H322.257Z" fill="white"/>
<g filter="url(#filter1_d_2632_2687)">
<circle cx="5" cy="43" r="3" fill="white"/>
</g>
<g filter="url(#filter2_d_2632_2687)">
<circle cx="54" cy="7" r="3" fill="white"/>
</g>
<g filter="url(#filter3_d_2632_2687)">
<circle cx="104" cy="46" r="3" fill="white"/>
</g>
<g filter="url(#filter4_d_2632_2687)">
<circle cx="154" cy="32" r="3" fill="white"/>
</g>
<g filter="url(#filter5_d_2632_2687)">
<circle cx="206" cy="32" r="3" fill="white"/>
</g>
<g filter="url(#filter6_d_2632_2687)">
<circle cx="264" cy="34" r="3" fill="white"/>
</g>
<g filter="url(#filter7_d_2632_2687)">
<circle cx="317" cy="32" r="5" fill="white"/>
</g>
</g>
<defs>
<filter id="filter0_d_2632_2687" x="0.584473" y="5.99998" width="322.179" height="55.0012" filterUnits="userSpaceOnUse" color-interpolation-filters="sRGB">
<feFlood flood-opacity="0" result="BackgroundImageFix"/>
<feColorMatrix in="SourceAlpha" type="matrix" values="0 0 0 0 0 0 0 0 0 0 0 0 0 0 0 0 0 0 127 0" result="hardAlpha"/>
<feOffset dy="5"/>
<feGaussianBlur stdDeviation="2"/>
<feComposite in2="hardAlpha" operator="out"/>
<feColorMatrix type="matrix" values="0 0 0 0 0.12549 0 0 0 0 0.639216 0 0 0 0 0.92549 0 0 0 0.12 0"/>
<feBlend mode="normal" in2="BackgroundImageFix" result="effect1_dropShadow_2632_2687"/>
<feBlend mode="normal" in="SourceGraphic" in2="effect1_dropShadow_2632_2687" result="shape"/>
</filter>
<filter id="filter1_d_2632_2687" x="-2" y="39" width="14" height="14" filterUnits="userSpaceOnUse" color-interpolation-filters="sRGB">
<feFlood flood-opacity="0" result="BackgroundImageFix"/>
<feColorMatrix in="SourceAlpha" type="matrix" values="0 0 0 0 0 0 0 0 0 0 0 0 0 0 0 0 0 0 127 0" result="hardAlpha"/>
<feOffset dy="3"/>
<feGaussianBlur stdDeviation="2"/>
<feComposite in2="hardAlpha" operator="out"/>
<feColorMatrix type="matrix" values="0 0 0 0 0.2 0 0 0 0 0.513725 0 0 0 0 0.937255 0 0 0 0.21 0"/>
<feBlend mode="normal" in2="BackgroundImageFix" result="effect1_dropShadow_2632_2687"/>
<feBlend mode="normal" in="SourceGraphic" in2="effect1_dropShadow_2632_2687" result="shape"/>
</filter>
<filter id="filter2_d_2632_2687" x="47" y="3" width="14" height="14" filterUnits="userSpaceOnUse" color-interpolation-filters="sRGB">
<feFlood flood-opacity="0" result="BackgroundImageFix"/>
<feColorMatrix in="SourceAlpha" type="matrix" values="0 0 0 0 0 0 0 0 0 0 0 0 0 0 0 0 0 0 127 0" result="hardAlpha"/>
<feOffset dy="3"/>
<feGaussianBlur stdDeviation="2"/>
<feComposite in2="hardAlpha" operator="out"/>
<feColorMatrix type="matrix" values="0 0 0 0 0.2 0 0 0 0 0.513725 0 0 0 0 0.937255 0 0 0 0.21 0"/>
<feBlend mode="normal" in2="BackgroundImageFix" result="effect1_dropShadow_2632_2687"/>
<feBlend mode="normal" in="SourceGraphic" in2="effect1_dropShadow_2632_2687" result="shape"/>
</filter>
<filter id="filter3_d_2632_2687" x="97" y="42" width="14" height="14" filterUnits="userSpaceOnUse" color-interpolation-filters="sRGB">
<feFlood flood-opacity="0" result="BackgroundImageFix"/>
<feColorMatrix in="SourceAlpha" type="matrix" values="0 0 0 0 0 0 0 0 0 0 0 0 0 0 0 0 0 0 127 0" result="hardAlpha"/>
<feOffset dy="3"/>
<feGaussianBlur stdDeviation="2"/>
<feComposite in2="hardAlpha" operator="out"/>
<feColorMatrix type="matrix" values="0 0 0 0 0.2 0 0 0 0 0.513725 0 0 0 0 0.937255 0 0 0 0.21 0"/>
<feBlend mode="normal" in2="BackgroundImageFix" result="effect1_dropShadow_2632_2687"/>
<feBlend mode="normal" in="SourceGraphic" in2="effect1_dropShadow_2632_2687" result="shape"/>
</filter>
<filter id="filter4_d_2632_2687" x="147" y="28" width="14" height="14" filterUnits="userSpaceOnUse" color-interpolation-filters="sRGB">
<feFlood flood-opacity="0" result="BackgroundImageFix"/>
<feColorMatrix in="SourceAlpha" type="matrix" values="0 0 0 0 0 0 0 0 0 0 0 0 0 0 0 0 0 0 127 0" result="hardAlpha"/>
<feOffset dy="3"/>
<feGaussianBlur stdDeviation="2"/>
<feComposite in2="hardAlpha" operator="out"/>
<feColorMatrix type="matrix" values="0 0 0 0 0.2 0 0 0 0 0.513725 0 0 0 0 0.937255 0 0 0 0.21 0"/>
<feBlend mode="normal" in2="BackgroundImageFix" result="effect1_dropShadow_2632_2687"/>
<feBlend mode="normal" in="SourceGraphic" in2="effect1_dropShadow_2632_2687" result="shape"/>
</filter>
<filter id="filter5_d_2632_2687" x="199" y="28" width="14" height="14" filterUnits="userSpaceOnUse" color-interpolation-filters="sRGB">
<feFlood flood-opacity="0" result="BackgroundImageFix"/>
<feColorMatrix in="SourceAlpha" type="matrix" values="0 0 0 0 0 0 0 0 0 0 0 0 0 0 0 0 0 0 127 0" result="hardAlpha"/>
<feOffset dy="3"/>
<feGaussianBlur stdDeviation="2"/>
<feComposite in2="hardAlpha" operator="out"/>
<feColorMatrix type="matrix" values="0 0 0 0 0.2 0 0 0 0 0.513725 0 0 0 0 0.937255 0 0 0 0.21 0"/>
<feBlend mode="normal" in2="BackgroundImageFix" result="effect1_dropShadow_2632_2687"/>
<feBlend mode="normal" in="SourceGraphic" in2="effect1_dropShadow_2632_2687" result="shape"/>
</filter>
<filter id="filter6_d_2632_2687" x="257" y="30" width="14" height="14" filterUnits="userSpaceOnUse" color-interpolation-filters="sRGB">
<feFlood flood-opacity="0" result="BackgroundImageFix"/>
<feColorMatrix in="SourceAlpha" type="matrix" values="0 0 0 0 0 0 0 0 0 0 0 0 0 0 0 0 0 0 127 0" result="hardAlpha"/>
<feOffset dy="3"/>
<feGaussianBlur stdDeviation="2"/>
<feComposite in2="hardAlpha" operator="out"/>
<feColorMatrix type="matrix" values="0 0 0 0 0.2 0 0 0 0 0.513725 0 0 0 0 0.937255 0 0 0 0.21 0"/>
<feBlend mode="normal" in2="BackgroundImageFix" result="effect1_dropShadow_2632_2687"/>
<feBlend mode="normal" in="SourceGraphic" in2="effect1_dropShadow_2632_2687" result="shape"/>
</filter>
<filter id="filter7_d_2632_2687" x="308" y="26" width="18" height="18" filterUnits="userSpaceOnUse" color-interpolation-filters="sRGB">
<feFlood flood-opacity="0" result="BackgroundImageFix"/>
<feColorMatrix in="SourceAlpha" type="matrix" values="0 0 0 0 0 0 0 0 0 0 0 0 0 0 0 0 0 0 127 0" result="hardAlpha"/>
<feOffset dy="3"/>
<feGaussianBlur stdDeviation="2"/>
<feComposite in2="hardAlpha" operator="out"/>
<feColorMatrix type="matrix" values="0 0 0 0 0.2 0 0 0 0 0.513725 0 0 0 0 0.937255 0 0 0 0.21 0"/>
<feBlend mode="normal" in2="BackgroundImageFix" result="effect1_dropShadow_2632_2687"/>
<feBlend mode="normal" in="SourceGraphic" in2="effect1_dropShadow_2632_2687" result="shape"/>
</filter>
<clipPath id="clip0_2632_2687">
<rect width="330" height="77" fill="white"/>
</clipPath>
</defs>
</svg>
