<svg width="0" height="0" fill="none" style="visibility: hidden; position: absolute;" aria-hidden="true">
	<symbol id="gym" viewBox="0 0 28 28" xmlns="http://www.w3.org/2000/svg">
		<path d="M8.63317 7.47223H5.3665C4.97991 7.47223 4.6665 7.78563 4.6665 8.17223V18.4389C4.6665 18.8255 4.97991 19.1389 5.3665 19.1389H8.63317C9.01977 19.1389 9.33317 18.8255 9.33317 18.4389V8.17223C9.33317 7.78563 9.01977 7.47223 8.63317 7.47223Z" stroke-width="1.5" stroke-linecap="round" stroke-linejoin="round" />
		<path d="M22.6332 7.47223H19.3665C18.9799 7.47223 18.6665 7.78563 18.6665 8.17223V18.4389C18.6665 18.8255 18.9799 19.1389 19.3665 19.1389H22.6332C23.0198 19.1389 23.3332 18.8255 23.3332 18.4389V8.17223C23.3332 7.78563 23.0198 7.47223 22.6332 7.47223Z" stroke-width="1.5" stroke-linecap="round" stroke-linejoin="round" />
		<path d="M1.1665 16.1055V10.5055C1.1665 10.1189 1.47991 9.80554 1.8665 9.80554H3.9665C4.3531 9.80554 4.6665 10.1189 4.6665 10.5055V16.1055C4.6665 16.4922 4.3531 16.8055 3.9665 16.8055H1.8665C1.47991 16.8055 1.1665 16.4922 1.1665 16.1055Z" stroke-width="1.5" stroke-linecap="round" stroke-linejoin="round" />
		<path d="M26.8335 16.1055V10.5055C26.8335 10.1189 26.5201 9.80554 26.1335 9.80554H24.0335C23.6469 9.80554 23.3335 10.1189 23.3335 10.5055V16.1055C23.3335 16.4922 23.6469 16.8055 24.0335 16.8055H26.1335C26.5201 16.8055 26.8335 16.4922 26.8335 16.1055Z" stroke-width="1.5" stroke-linecap="round" stroke-linejoin="round" />
		<path d="M9.3335 13.3055H18.6668" stroke-width="1.5" stroke-linecap="round" stroke-linejoin="round" />
	</symbol>
	<symbol id="home" viewBox="0 0 28 28" xmlns="http://www.w3.org/2000/svg">
		<path d="M10.5 23.8055H17.5M10.5 23.8055H8.16667C5.58934 23.8055 3.5 21.7162 3.5 19.1389V11.7977C3.5 10.1659 4.35238 8.65258 5.74792 7.8068L11.5813 4.27145C13.0679 3.37045 14.932 3.37045 16.4187 4.27145L22.2521 7.8068C23.6476 8.65258 24.5 10.1659 24.5 11.7977V19.1389C24.5 21.7162 22.4106 23.8055 19.8333 23.8055H17.5H10.5ZM10.5 23.8055V19.1389C10.5 17.2058 12.0669 15.6389 14 15.6389C15.933 15.6389 17.5 17.2058 17.5 19.1389V23.8055H10.5Z" stroke-width="1.5" stroke-linecap="round" stroke-linejoin="round" />
	</symbol>
	<symbol id="reports" viewBox="0 0 24 24" xmlns="http://www.w3.org/2000/svg">
		<path d="M15 8.33337H9.6C9.26863 8.33337 9 8.602 9 8.93337V15.3334M9 20.3334H15H9ZM9 20.3334V15.3334V20.3334ZM9 20.3334H3.6C3.26863 20.3334 3 20.0648 3 19.7334V15.9334C3 15.602 3.26863 15.3334 3.6 15.3334H9V20.3334ZM15 20.3334V8.33337V20.3334ZM15 20.3334H20.4C20.7314 20.3334 21 20.0648 21 19.7334V2.93337C21 2.602 20.7314 2.33337 20.4 2.33337H15.6C15.2686 2.33337 15 2.602 15 2.93337V8.33337V20.3334Z" stroke-width="1.5" />
	</symbol>
	<symbol id="user" viewBox="0 0 24 24" xmlns="http://www.w3.org/2000/svg">
		<path d="M5 19.3334V18.3334C5 14.4674 8.13401 11.3334 12 11.3334C15.866 11.3334 19 14.4674 19 18.3334V19.3334" stroke-width="1.5" stroke-linecap="round" stroke-linejoin="round" />
		<path d="M12 11.3334C14.2091 11.3334 16 9.54247 16 7.33337C16 5.12423 14.2091 3.33337 12 3.33337C9.79086 3.33337 8 5.12423 8 7.33337C8 9.54247 9.79086 11.3334 12 11.3334Z" stroke-width="1.5" stroke-linecap="round" stroke-linejoin="round" />
	</symbol>
</svg>
