<svg viewBox="0 0 20 24" id="apple" xmlns="http://www.w3.org/2000/svg">
	<path d="M10.1239 7.222C9.24794 7.222 7.89194 6.226 6.46394 6.262C4.57994 6.286 2.85194 7.354 1.87994 9.046C-0.0760605 12.442 1.37594 17.458 3.28394 20.218C4.21994 21.562 5.32394 23.074 6.78794 23.026C8.19194 22.966 8.71994 22.114 10.4239 22.114C12.1159 22.114 12.5959 23.026 14.0839 22.99C15.5959 22.966 16.5559 21.622 17.4799 20.266C18.5479 18.706 18.9919 17.194 19.0159 17.11C18.9799 17.098 16.0759 15.982 16.0399 12.622C16.0159 9.814 18.3319 8.47 18.4399 8.41C17.1199 6.478 15.0919 6.262 14.3839 6.214C12.5359 6.07 10.9879 7.222 10.1239 7.222ZM13.2439 4.39C14.0239 3.454 14.5399 2.146 14.3959 0.85C13.2799 0.898 11.9359 1.594 11.1319 2.53C10.4119 3.358 9.78794 4.69 9.95594 5.962C11.1919 6.058 12.4639 5.326 13.2439 4.39Z" />
</svg>
