<svg viewBox="0 0 21 20" id="google" xmlns="http://www.w3.org/2000/svg">
	<path d="M1.76395 5.51C2.59596 3.85324 3.87232 2.46051 5.45038 1.48747C7.02844 0.514427 8.84601 -0.000583569 10.7 4.96231e-07C13.395 4.96231e-07 15.659 0.99 17.39 2.605L14.523 5.473C13.486 4.482 12.168 3.977 10.7 3.977C8.09495 3.977 5.88995 5.737 5.10495 8.1C4.90495 8.7 4.79095 9.34 4.79095 10C4.79095 10.66 4.90495 11.3 5.10495 11.9C5.89095 14.264 8.09495 16.023 10.7 16.023C12.045 16.023 13.19 15.668 14.086 15.068C14.6054 14.726 15.0501 14.2822 15.3932 13.7635C15.7362 13.2448 15.9705 12.6619 16.082 12.05H10.7V8.182H20.118C20.236 8.836 20.3 9.518 20.3 10.227C20.3 13.273 19.21 15.837 17.318 17.577C15.664 19.105 13.4 20 10.7 20C9.38659 20.0005 8.08599 19.7422 6.8725 19.2399C5.659 18.7375 4.5564 18.0009 3.62771 17.0722C2.69902 16.1436 1.96245 15.041 1.46009 13.8275C0.957725 12.614 0.699426 11.3134 0.699952 10C0.699952 8.386 1.08595 6.86 1.76395 5.51Z" />
</svg>
