<svg width="22" height="24" viewBox="0 0 22 24" fill="none" xmlns="http://www.w3.org/2000/svg">
<path d="M11.9047 12.67C11.8783 12.3524 11.8483 12.0354 11.8125 11.7189C11.7956 11.5708 11.7783 11.4233 11.7593 11.2752C11.7511 11.2179 11.743 11.1606 11.7344 11.1031C11.654 10.5652 11.5599 10.0288 11.4355 9.49943C11.3998 9.34703 11.361 9.19497 11.3202 9.04324C11.315 9.0599 11.3088 9.07601 11.3035 9.093C11.0614 9.84754 10.871 10.6187 10.7055 11.3942C10.3286 13.1573 10.1029 14.9468 9.74894 16.7142C9.56988 17.6097 9.38605 18.5289 9.04716 19.3805C8.74159 20.149 8.3616 20.9019 7.51377 21.1751C5.89551 21.6965 5.13431 19.7445 4.76676 18.5811C4.33546 17.2166 4.04144 15.8101 3.70033 14.4211C3.63546 14.1565 3.56915 13.8921 3.50106 13.628C3.12063 15.4634 2.92402 17.3565 2.21248 19.092C2.20714 19.1051 2.20125 19.1189 2.19592 19.1319L8.4388 22.7492C9.08715 23.1248 9.96998 23.2858 10.8207 23.2338C10.8469 23.1822 10.8732 23.1311 10.8977 23.0788C10.9193 23.0328 10.9403 22.9871 10.961 22.9409C11.0524 22.711 11.1372 22.4779 11.2111 22.2414C11.3876 21.6775 11.5273 21.1019 11.636 20.521C11.6948 20.2084 11.7473 19.8943 11.7916 19.5793C11.7918 19.5779 11.7918 19.577 11.7924 19.5757C11.8009 19.5071 11.8097 19.4389 11.8177 19.3702C11.8372 19.2049 11.8557 19.0394 11.8719 18.8734C11.9388 18.1942 11.9834 17.5123 12.0054 16.8298C12.05 15.4435 12.0196 14.0527 11.9047 12.67Z" fill="#CDEAE2"/>
<path d="M14.7073 16.9164C14.6476 18.5208 14.5244 20.2241 14.1451 21.843L19.0547 18.9857C20.1938 18.3255 21.1043 16.7086 21.1043 15.3922V15.0019L13.0546 6.29616C13.5808 6.98771 13.8404 7.94518 14.0328 8.78036C14.6422 11.4215 14.8078 14.2139 14.7073 16.9164Z" fill="#CDEAE2"/>
<path d="M19.0549 4.2586L12.5698 0.494924C11.4307 -0.164975 9.57236 -0.164975 8.43328 0.494924L2.00436 4.2586C0.865389 4.91872 0 6.53587 0 7.85189V15.3922C0 15.8013 0.0261031 16.2393 0.184385 16.6686C0.45652 15.5455 0.610583 14.4046 0.842841 13.2723C1.01856 12.4148 1.18162 11.5294 1.52118 10.7189C1.81108 10.0261 2.21107 9.16902 3.04113 9.00685C3.93151 8.83335 4.64828 9.26899 5.09514 10.0239L7.69941 12.7925C7.92867 11.4345 8.18359 10.0799 8.57724 8.76015C8.86215 7.80435 9.22159 6.49455 10.0451 5.83809C11.1156 4.98448 12.2544 5.24384 13.0548 6.29617L21.1043 15.0019V7.85189C21.1043 6.53587 20.1938 4.91872 19.0549 4.2586Z" fill="white"/>
<path d="M6.30868 13.7021C6.54572 14.6698 6.76032 15.6466 7.01501 16.6115C7.18174 15.8559 7.31625 15.0921 7.44265 14.3304C7.52763 13.8185 7.61082 13.3053 7.69746 12.7924L5.09119 10.0237C5.73909 11.1187 6.00934 12.4804 6.30868 13.7021Z" fill="#CDEAE2"/>
</svg>
