<svg version="1.2" xmlns="http://www.w3.org/2000/svg" viewBox="0 0 18 20" width="18" height="20">
	<title>9-svg</title>
	<style>
		.s0 { fill: #2e4c59 } 
		.s1 { fill: #2c6355 } 
	</style>
	<filter id="f0">
		<feFlood flood-color="#005640" flood-opacity="1" />
		<feBlend mode="normal" in2="SourceGraphic"/>
		<feComposite in2="SourceAlpha" operator="in" />
	</filter>
	<g id="Folder 1" filter="url(#f0)">
		<path id="Layer" class="s0" d="m10.2 10.8q-0.1-0.4-0.1-0.8 0-0.2-0.1-0.4 0-0.1 0-0.1-0.1-0.7-0.2-1.4-0.1-0.2-0.1-0.4-0.1 0-0.1 0.1-0.3 0.9-0.5 1.9c-0.3 1.5-0.5 3-0.8 4.6-0.1 0.7-0.3 1.5-0.6 2.2-0.2 0.7-0.6 1.3-1.3 1.6-1.4 0.4-2-1.3-2.3-2.3-0.4-1.1-0.7-2.3-0.9-3.5q-0.1-0.3-0.2-0.7c-0.3 1.6-0.5 3.2-1.1 4.7q0 0 0 0l5.3 3.1c0.6 0.3 1.3 0.5 2 0.4q0.1 0 0.1-0.1 0-0.1 0-0.1 0.2-0.3 0.3-0.6 0.2-0.8 0.3-1.5 0.1-0.4 0.2-0.8 0 0 0 0 0-0.1 0-0.2 0-0.2 0-0.4 0.1-0.9 0.1-1.7 0.1-1.8 0-3.6z"/>
		<path id="Layer" class="s0" d="m12.5 14.4c0 1.4-0.1 2.8-0.4 4.2l4.2-2.4c0.9-0.6 1.7-1.9 1.7-3.1v-0.3l-6.9-7.4c0.5 0.6 0.7 1.4 0.9 2.1 0.5 2.2 0.6 4.6 0.5 6.9z"/>
	</g>
	<path id="Layer" class="s1" d="m16.3 3.6l-5.6-3.2c-1-0.5-2.5-0.5-3.5 0l-5.5 3.2c-1 0.6-1.7 2-1.7 3.1v6.4c0 0.4 0 0.8 0.2 1.1 0.2-0.9 0.3-1.9 0.5-2.9 0.2-0.7 0.3-1.5 0.6-2.2 0.2-0.5 0.6-1.3 1.3-1.4 0.8-0.2 1.4 0.2 1.7 0.8l2.3 2.4c0.2-1.1 0.4-2.3 0.7-3.4 0.3-0.8 0.6-2 1.3-2.5 0.9-0.7 1.9-0.5 2.5 0.4l6.9 7.4v-6.1c0-1.1-0.8-2.5-1.7-3.1z"/>
	<path id="Layer" class="s0" d="m5.4 11.7q0.3 1.2 0.6 2.5 0.2-1 0.3-2 0.2-0.6 0.3-1.3l-2.3-2.4c0.6 1 0.8 2.1 1.1 3.2z"/>
</svg>