<svg width="32" height="36" viewBox="0 0 32 36" fill="none" xmlns="http://www.w3.org/2000/svg">
<path d="M18.0509 19.2112C18.0108 18.7297 17.9653 18.249 17.9111 17.7692C17.8855 17.5445 17.8592 17.3208 17.8304 17.0963C17.818 17.0094 17.8057 16.9225 17.7927 16.8354C17.6708 16.0198 17.5281 15.2065 17.3395 14.4038C17.2854 14.1727 17.2265 13.9421 17.1647 13.7121C17.1567 13.7373 17.1473 13.7618 17.1394 13.7875C16.7722 14.9316 16.4836 16.101 16.2326 17.2767C15.6612 19.95 15.3189 22.6635 14.7822 25.3434C14.5107 26.7012 14.2319 28.0949 13.7181 29.3862C13.2548 30.5515 12.6786 31.693 11.393 32.1074C8.93931 32.8979 7.78513 29.9381 7.22782 28.174C6.57384 26.1052 6.12803 23.9724 5.61081 21.8663C5.51245 21.4652 5.4119 21.0643 5.30866 20.6638C4.73182 23.4468 4.43371 26.3172 3.35481 28.9488C3.34673 28.9687 3.3378 28.9895 3.32971 29.0092L12.7957 34.494C13.7787 35.0636 15.1173 35.3077 16.4073 35.2289C16.447 35.1507 16.4869 35.0732 16.524 34.9939C16.5568 34.9242 16.5887 34.8548 16.62 34.7847C16.7586 34.4361 16.8871 34.0828 16.9993 33.7242C17.2669 32.8691 17.4786 31.9964 17.6435 31.1155C17.7326 30.6416 17.8122 30.1653 17.8794 29.6876C17.8798 29.6855 17.8798 29.6841 17.8806 29.6823C17.8936 29.5782 17.9069 29.4748 17.919 29.3707C17.9485 29.1199 17.9766 28.869 18.0012 28.6173C18.1026 27.5874 18.1703 26.5535 18.2037 25.5187C18.2712 23.4167 18.2252 21.3079 18.0509 19.2112Z" fill="#FFA507"/>
<path d="M22.3002 25.65C22.2098 28.0826 22.023 30.6654 21.4479 33.1201L28.8923 28.7877C30.6194 27.7866 32 25.3348 32 23.3389V22.7471L19.7943 9.54672C20.5923 10.5953 20.9859 12.0471 21.2776 13.3135C22.2016 17.3182 22.4527 21.5523 22.3002 25.65Z" fill="#FFA507"/>
<path d="M28.8925 6.45722L19.0594 0.750442C17.332 -0.250147 14.5144 -0.250147 12.7872 0.750442L3.03916 6.45722C1.31217 7.45815 0 9.91019 0 11.9056V23.3389C0 23.9592 0.0395796 24.6233 0.27958 25.2742C0.692211 23.5713 0.925813 21.8413 1.27798 20.1244C1.54442 18.8242 1.79166 17.4817 2.30653 16.2528C2.74611 15.2023 3.35259 13.9028 4.6112 13.6569C5.96126 13.3938 7.04808 14.0544 7.72564 15.1989L11.6744 19.397C12.0221 17.3379 12.4086 15.284 13.0055 13.2828C13.4375 11.8336 13.9825 9.84754 15.2312 8.85217C16.8544 7.55785 18.5811 7.95112 19.7947 9.54674L32 22.7471V11.9056C32 9.91019 30.6195 7.45815 28.8925 6.45722Z" fill="#FFBB12"/>
<path d="M9.56567 20.7762C9.92508 22.2434 10.2505 23.7245 10.6367 25.1876C10.8895 24.042 11.0934 22.8838 11.2851 21.7289C11.4139 20.9527 11.5401 20.1746 11.6714 19.3968L7.7196 15.1987C8.702 16.859 9.11177 18.9237 9.56567 20.7762Z" fill="#FFA507"/>
</svg>
