<svg width="48" height="54" viewBox="0 0 48 54" fill="none" xmlns="http://www.w3.org/2000/svg">
<path d="M27.0766 29.2964C27.0165 28.5741 26.9482 27.8531 26.8669 27.1334C26.8285 26.7964 26.7891 26.4609 26.7459 26.1241C26.7272 25.9938 26.7088 25.8634 26.6893 25.7328C26.5064 24.5093 26.2924 23.2894 26.0095 22.0853C25.9284 21.7387 25.84 21.3929 25.7472 21.0478C25.7354 21.0857 25.7212 21.1223 25.7093 21.1609C25.1586 22.8771 24.7256 24.6311 24.3492 26.3947C23.492 30.4047 22.9787 34.4748 22.1735 38.4947C21.7663 40.5314 21.3482 42.6219 20.5774 44.5589C19.8824 46.3068 19.0182 48.0191 17.0898 48.6406C13.4093 49.8265 11.678 45.3867 10.842 42.7407C9.86105 39.6374 9.19234 36.4383 8.41651 33.2791C8.26897 32.6774 8.11815 32.0761 7.96329 31.4754C7.09803 35.6498 6.65087 39.9554 5.03252 43.9028C5.02039 43.9326 5.007 43.9639 4.99487 43.9935L19.1937 52.2206C20.6683 53.075 22.6763 53.4411 24.6112 53.3229C24.6708 53.2057 24.7307 53.0894 24.7862 52.9704C24.8355 52.8659 24.8832 52.7618 24.9302 52.6567C25.1381 52.1337 25.3309 51.6037 25.4992 51.0659C25.9006 49.7833 26.2181 48.4741 26.4655 47.1529C26.5991 46.442 26.7186 45.7275 26.8194 45.0111C26.8199 45.0078 26.8199 45.0058 26.8212 45.003C26.8406 44.8469 26.8606 44.6917 26.8788 44.5356C26.923 44.1594 26.9652 43.783 27.0021 43.4056C27.1541 41.8608 27.2557 40.3099 27.3057 38.7577C27.407 35.6046 27.3381 32.4414 27.0766 29.2964Z" fill="#65012C"/>
<path d="M33.4504 38.9545C33.3148 42.6035 33.0346 46.4776 32.1719 50.1597L43.3384 43.661C45.9291 42.1594 47.9999 38.4818 47.9999 35.4879V34.6002L29.6915 14.7997C30.8885 16.3726 31.4789 18.5503 31.9165 20.4498C33.3024 26.4569 33.6791 32.808 33.4504 38.9545Z" fill="#65012C"/>
<path d="M43.3386 10.1655L28.589 1.60535C25.998 0.104471 21.7715 0.104471 19.1807 1.60535L4.55873 10.1655C1.96825 11.6669 0 15.3449 0 18.3381V35.4879C0 36.4184 0.0593692 37.4145 0.419368 38.3909C1.03831 35.8366 1.38872 33.2416 1.91697 30.6662C2.31663 28.7159 2.68749 26.7022 3.45978 24.8588C4.11915 23.2831 5.02887 21.3338 6.91678 20.965C8.94187 20.5703 10.5721 21.5612 11.5884 23.278L17.5116 29.5751C18.033 26.4865 18.6128 23.4056 19.5082 20.4039C20.1562 18.23 20.9737 15.251 22.8467 13.7579C25.2815 11.8164 27.8715 12.4063 29.692 14.7998L47.9999 34.6002V18.3381C47.9999 15.3449 45.9291 11.6669 43.3386 10.1655Z" fill="#9B0144"/>
<path d="M14.3483 31.6438C14.8874 33.8448 15.3755 36.0664 15.9548 38.261C16.334 36.5426 16.6399 34.8053 16.9274 33.073C17.1207 31.9086 17.3099 30.7414 17.507 29.5748L11.5792 23.2777C13.0528 25.7682 13.6675 28.8652 14.3483 31.6438Z" fill="#65012C"/>
</svg>
