<svg width="23" height="25" viewBox="0 0 23 25" fill="none" xmlns="http://www.w3.org/2000/svg">
<path d="M12.7181 13.5354C12.6898 13.1961 12.6578 12.8575 12.6196 12.5194C12.6015 12.3611 12.583 12.2035 12.5627 12.0453C12.554 11.9841 12.5453 11.9229 12.5362 11.8615C12.4502 11.2869 12.3497 10.7138 12.2168 10.1483C12.1787 9.98549 12.1372 9.82304 12.0937 9.66095C12.0881 9.67875 12.0814 9.69595 12.0759 9.71411C11.8172 10.5202 11.6138 11.344 11.437 12.1724C11.0344 14.0559 10.7933 15.9677 10.4151 17.8559C10.2238 18.8125 10.0274 19.7944 9.66537 20.7042C9.33893 21.5252 8.93299 22.3295 8.02724 22.6214C6.29846 23.1784 5.48527 21.0931 5.09262 19.8502C4.63186 18.3926 4.31776 16.8899 3.95335 15.4061C3.88405 15.1234 3.81321 14.841 3.74047 14.5588C3.33405 16.5196 3.12402 18.542 2.36387 20.396C2.35818 20.41 2.35189 20.4248 2.34619 20.4386L9.01546 24.303C9.70809 24.7043 10.6512 24.8762 11.56 24.8207C11.588 24.7656 11.6162 24.7111 11.6423 24.6552C11.6654 24.606 11.6878 24.5572 11.7099 24.5078C11.8076 24.2622 11.8981 24.0132 11.9771 23.7606C12.1657 23.1581 12.3148 22.5432 12.431 21.9226C12.4938 21.5887 12.5499 21.2531 12.5973 20.9166C12.5975 20.9151 12.5975 20.9141 12.5981 20.9128C12.6072 20.8395 12.6166 20.7666 12.6252 20.6933C12.6459 20.5166 12.6657 20.3398 12.6831 20.1625C12.7545 19.4369 12.8022 18.7084 12.8257 17.9794C12.8733 16.4984 12.8409 15.0126 12.7181 13.5354Z" fill="#4466F2"/>
<path d="M15.7119 18.0718C15.6481 19.7857 15.5165 21.6054 15.1113 23.3349L20.3563 20.2824C21.5732 19.5771 22.5458 17.8498 22.5458 16.4435V16.0265L13.9463 6.72617C14.5085 7.46495 14.7858 8.48782 14.9913 9.38004C15.6423 12.2016 15.8192 15.1847 15.7119 18.0718Z" fill="#4466F2"/>
<path d="M20.3563 4.54946L13.4284 0.528727C12.2114 -0.176242 10.2262 -0.176242 9.00928 0.528727L2.14125 4.54946C0.924495 5.25467 0 6.98227 0 8.38817V16.4435C0 16.8806 0.027886 17.3484 0.196979 17.8071C0.4877 16.6073 0.652285 15.3884 0.900407 14.1787C1.08813 13.2627 1.26232 12.3168 1.62507 11.4509C1.93478 10.7109 2.36208 9.79526 3.24884 9.62201C4.20003 9.43666 4.96576 9.90206 5.44313 10.7085L8.22528 13.6662C8.47019 12.2155 8.74252 10.7684 9.16306 9.35847C9.46743 8.33739 9.85142 6.93812 10.7312 6.23683C11.8748 5.32492 13.0914 5.60199 13.9464 6.72619L22.5457 16.0265V8.38817C22.5457 6.98227 21.5731 5.25467 20.3563 4.54946Z" fill="#1EA5EC"/>
<path d="M6.73962 14.6379C6.99284 15.6717 7.2221 16.7152 7.49419 17.746C7.6723 16.9389 7.816 16.1229 7.95104 15.3092C8.04181 14.7623 8.13069 14.2141 8.22325 13.6661L5.43896 10.7083C6.13112 11.8781 6.41982 13.3328 6.73962 14.6379Z" fill="#4466F2"/>
</svg>
