<svg width="22" height="24" viewBox="0 0 22 24" fill="none" xmlns="http://www.w3.org/2000/svg">
<path d="M11.9048 12.67C11.8784 12.3524 11.8484 12.0354 11.8126 11.7189C11.7957 11.5708 11.7784 11.4233 11.7594 11.2752C11.7512 11.2179 11.7431 11.1606 11.7345 11.1031C11.6541 10.5652 11.56 10.0288 11.4356 9.49943C11.4 9.34703 11.3611 9.19497 11.3203 9.04324C11.3151 9.0599 11.3089 9.07601 11.3037 9.093C11.0615 9.84754 10.8711 10.6187 10.7056 11.3942C10.3288 13.1573 10.1031 14.9468 9.74906 16.7142C9.57001 17.6097 9.38617 18.5289 9.04728 19.3805C8.74171 20.149 8.36173 20.9019 7.51389 21.1751C5.89563 21.6965 5.13443 19.7445 4.76689 18.5811C4.33558 17.2166 4.04156 15.8101 3.70045 14.4211C3.63558 14.1565 3.56927 13.8921 3.50118 13.628C3.12075 15.4634 2.92415 17.3565 2.2126 19.092C2.20727 19.1051 2.20138 19.1189 2.19604 19.1319L8.43892 22.7492C9.08727 23.1248 9.9701 23.2858 10.8208 23.2338C10.847 23.1822 10.8734 23.1311 10.8978 23.0788C10.9195 23.0328 10.9405 22.9871 10.9611 22.9409C11.0525 22.711 11.1373 22.4779 11.2113 22.2414C11.3878 21.6775 11.5274 21.1019 11.6361 20.521C11.6949 20.2084 11.7474 19.8943 11.7917 19.5793C11.792 19.5779 11.792 19.577 11.7925 19.5757C11.8011 19.5071 11.8098 19.4389 11.8178 19.3702C11.8373 19.2049 11.8558 19.0394 11.872 18.8734C11.9389 18.1942 11.9836 17.5123 12.0056 16.8298C12.0501 15.4435 12.0198 14.0527 11.9048 12.67Z" fill="#384849"/>
<path d="M14.7071 16.9164C14.6475 18.5208 14.5243 20.2241 14.145 21.843L19.0546 18.9857C20.1937 18.3255 21.1042 16.7086 21.1042 15.3922V15.0019L13.0544 6.29614C13.5807 6.9877 13.8403 7.94517 14.0327 8.78034C14.642 11.4215 14.8077 14.2139 14.7071 16.9164Z" fill="#384849"/>
<path d="M19.0549 4.2586L12.5698 0.494924C11.4307 -0.164975 9.57236 -0.164975 8.43328 0.494924L2.00436 4.2586C0.865389 4.91872 0 6.53587 0 7.85189V15.3922C0 15.8013 0.0261031 16.2393 0.184385 16.6686C0.45652 15.5455 0.610583 14.4046 0.842841 13.2723C1.01856 12.4148 1.18162 11.5294 1.52118 10.7189C1.81108 10.0261 2.21107 9.16902 3.04113 9.00685C3.93151 8.83335 4.64828 9.26899 5.09514 10.0239L7.69941 12.7925C7.92867 11.4345 8.18359 10.0799 8.57724 8.76015C8.86215 7.80435 9.22159 6.49455 10.0451 5.83809C11.1156 4.98448 12.2544 5.24384 13.0548 6.29617L21.1043 15.0019V7.85189C21.1043 6.53587 20.1938 4.91872 19.0549 4.2586Z" fill="#CDE9DD"/>
<path d="M6.30856 13.7021C6.5456 14.6698 6.76019 15.6466 7.01489 16.6115C7.18161 15.8559 7.31613 15.0921 7.44253 14.3304C7.5275 13.8185 7.6107 13.3053 7.69734 12.7924L5.09106 10.0237C5.73897 11.1187 6.00921 12.4804 6.30856 13.7021Z" fill="#384849"/>
</svg>
