<svg width="18" height="20" viewBox="0 0 18 20" fill="none" xmlns="http://www.w3.org/2000/svg">
<path d="M10.1537 10.8062C10.1311 10.5354 10.1055 10.265 10.075 9.99508C10.0606 9.8687 10.0458 9.74289 10.0296 9.61661C10.0226 9.56773 10.0157 9.51885 10.0084 9.46987C9.93984 9.01106 9.85959 8.55358 9.75349 8.10206C9.72308 7.97209 9.68992 7.84239 9.65515 7.71298C9.6507 7.72719 9.6454 7.74093 9.64094 7.75542C9.43442 8.39897 9.27204 9.05672 9.13088 9.71807C8.80944 11.2218 8.61694 12.7481 8.31502 14.2556C8.1623 15.0193 8.00551 15.8033 7.71647 16.5296C7.45585 17.1851 7.13176 17.8272 6.40864 18.0603C5.02843 18.505 4.3792 16.8401 4.06572 15.8478C3.69786 14.6841 3.44709 13.4844 3.15615 12.2997C3.10083 12.0741 3.04427 11.8486 2.9862 11.6233C2.66173 13.1887 2.49404 14.8033 1.88716 16.2836C1.88262 16.2948 1.87759 16.3065 1.87305 16.3176L7.1976 19.4028C7.75058 19.7232 8.50354 19.8604 9.22913 19.8161C9.25148 19.7721 9.27393 19.7286 9.29478 19.6839C9.31325 19.6447 9.33116 19.6057 9.34878 19.5663C9.42674 19.3702 9.49903 19.1714 9.56212 18.9697C9.71266 18.4888 9.83174 17.9978 9.92449 17.5024C9.9746 17.2358 10.0194 16.9679 10.0572 16.6992C10.0574 16.698 10.0574 16.6972 10.0579 16.6962C10.0652 16.6376 10.0727 16.5794 10.0795 16.5209C10.0961 16.3798 10.1119 16.2387 10.1257 16.0971C10.1827 15.5178 10.2208 14.9362 10.2396 14.3542C10.2776 13.1718 10.2517 11.9856 10.1537 10.8062Z" fill="#2E4C59"/>
<path d="M12.5439 14.428C12.493 15.7964 12.3879 17.2492 12.0644 18.6299L16.2518 16.1929C17.2234 15.6298 17.9999 14.2508 17.9999 13.128V12.7951L11.1343 5.37C11.5831 5.95982 11.8045 6.77645 11.9686 7.48877C12.4883 9.74141 12.6296 12.1231 12.5439 14.428Z" fill="#2E4C59"/>
<path d="M16.2519 3.63216L10.7208 0.422121C9.74921 -0.140707 8.16427 -0.140707 7.19275 0.422121L1.70952 3.63216C0.738091 4.19518 0 5.57445 0 6.69688V13.128C0 13.477 0.0222634 13.8505 0.157262 14.2167C0.389366 13.2588 0.520766 12.2857 0.71886 11.3199C0.868732 10.5885 1.0078 9.8334 1.29741 9.14211C1.54467 8.55124 1.88582 7.82026 2.59378 7.68195C3.35319 7.53397 3.96452 7.90552 4.34564 8.54935L6.56683 10.9107C6.76236 9.7525 6.97979 8.59719 7.31553 7.47154C7.55853 6.65633 7.86509 5.5392 8.56747 4.97931C9.48054 4.25126 10.4518 4.47247 11.1344 5.37L17.9999 12.7951V6.69688C17.9999 5.57445 17.2233 4.19518 16.2519 3.63216Z" fill="#203951"/>
<path d="M5.38057 11.6865C5.58273 12.5119 5.76576 13.345 5.98299 14.1679C6.12519 13.5235 6.23992 12.872 6.34773 12.2224C6.4202 11.7858 6.49116 11.3481 6.56506 10.9106L4.34216 8.54922C4.89476 9.48313 5.12525 10.6445 5.38057 11.6865Z" fill="#2E4C59"/>
</svg>
