<svg xmlns="http://www.w3.org/2000/svg">
    <!-- BBQ Icon -->
    <symbol viewBox="0 0 24 24" id="bbq" xmlns="http://www.w3.org/2000/svg">
        <path d="M8.5 14.5L5 22" stroke-width="1.2" stroke-linecap="round" stroke-linejoin="round" />
        <path d="M8 6C8 6 9 4.9387 9 4C9 2.66667 8 2 8 2" stroke-width="1.2" stroke-linecap="round"
            stroke-linejoin="round" />
        <path d="M12 6C12 6 13 4.9387 13 4C13 2.66667 12 2 12 2" stroke-width="1.2" stroke-linecap="round"
            stroke-linejoin="round" />
        <path d="M16 6C16 6 17 4.9387 17 4C17 2.66667 16 2 16 2" stroke-width="1.2" stroke-linecap="round"
            stroke-linejoin="round" />
        <path d="M16.5 17.5H7.5" stroke-width="1.2" stroke-linejoin="round" />
        <path d="M15.5 14.5L17.6 19" stroke-width="1.2" stroke-linecap="round" stroke-linejoin="round" />
        <path
            d="M18.5 22C19.3284 22 20 21.3284 20 20.5C20 19.6716 19.3284 19 18.5 19C17.6716 19 17 19.6716 17 20.5C17 21.3284 17.6716 22 18.5 22Z"
            stroke-width="1.2" stroke-linecap="round" stroke-linejoin="round" />
        <path
            d="M12.0001 15C15.6641 15 18.6706 12.185 18.9748 8.59974C19.0028 8.26956 18.7315 8 18.4001 8H5.6001C5.26873 8 4.99742 8.26956 5.02543 8.59974C5.32965 12.185 8.33613 15 12.0001 15Z"
            stroke-width="1.2" />
    </symbol>

    <!-- Car Icon -->
    <symbol viewBox="0 0 24 24" id="car" xmlns="http://www.w3.org/2000/svg">
        <path d="M8 10H16" stroke-width="1.2" stroke-linecap="round" stroke-linejoin="round" />
        <path d="M7 14H8" stroke-width="1.2" stroke-linecap="round" stroke-linejoin="round" />
        <path d="M16 14H17" stroke-width="1.2" stroke-linecap="round" stroke-linejoin="round" />
        <path
            d="M7 18H17M3 18V11.4105C3 11.1397 3.05502 10.8716 3.16171 10.6227L5.4805 5.21216C5.79566 4.47679 6.51874 4 7.31879 4H16.6812C17.4813 4 18.2043 4.47679 18.5195 5.21216L20.8383 10.6227C20.945 10.8716 21 11.1397 21 11.4105V18H3ZM3 18V20.4C3 20.7314 3.26863 21 3.6 21H6.4C6.73137 21 7 20.7314 7 20.4V18H3ZM3 18H7H3ZM21 18V20.4C21 20.7314 20.7314 21 20.4 21H17.6C17.2686 21 17 20.7314 17 20.4V18H21ZM21 18H17H21Z"
            stroke-width="1.2" />
    </symbol>

    <!-- Flower Icon -->
    <symbol viewBox="0 0 20 20" id="flower" xmlns="http://www.w3.org/2000/svg">
        <g clip-path="url(#clip0_772_761)">
            <path
                d="M9.99973 12.4996C11.3805 12.4996 12.4997 11.3803 12.4997 9.99956C12.4997 8.6189 11.3805 7.49957 9.99973 7.49957C8.61906 7.49957 7.49976 8.6189 7.49976 9.99956C7.49976 11.3803 8.61906 12.4996 9.99973 12.4996Z"
                stroke-miterlimit="1.5" stroke-linecap="round" stroke-linejoin="round" />
            <path
                d="M10.8333 7.50001C10.8333 7.50001 11.6666 5.83334 11.6666 4.16668C11.6666 2.50001 9.99992 0.833344 9.99992 0.833344C9.99992 0.833344 8.33325 2.50001 8.33325 4.16668C8.33325 5.83334 9.16659 7.50001 9.16659 7.50001"
                stroke-miterlimit="1.5" stroke-linecap="round" stroke-linejoin="round" />
            <path
                d="M7.49992 9.16665C7.49992 9.16665 5.83325 8.33331 4.16659 8.33331C2.49992 8.33331 0.833252 9.99998 0.833252 9.99998C0.833252 9.99998 2.49992 11.6666 4.16659 11.6666C5.83325 11.6666 7.49992 10.8333 7.49992 10.8333"
                stroke-miterlimit="1.5" stroke-linecap="round" stroke-linejoin="round" />
            <path
                d="M10.8333 12.5C10.8333 12.5 11.6666 14.1667 11.6666 15.8333C11.6666 17.5 9.99992 19.1667 9.99992 19.1667C9.99992 19.1667 8.33325 17.5 8.33325 15.8333C8.33325 14.1667 9.16659 12.5 9.16659 12.5"
                stroke-miterlimit="1.5" stroke-linecap="round" stroke-linejoin="round" />
            <path
                d="M12.5 9.16665C12.5 9.16665 14.1667 8.33331 15.8333 8.33331C17.5 8.33331 19.1667 9.99998 19.1667 9.99998C19.1667 9.99998 17.5 11.6666 15.8333 11.6666C14.1667 11.6666 12.5 10.8333 12.5 10.8333"
                stroke-miterlimit="1.5" stroke-linecap="round" stroke-linejoin="round" />
            <path
                d="M8.82162 7.64315C8.82162 7.64315 8.23235 5.87539 7.05384 4.69688C5.87534 3.51837 3.51831 3.51837 3.51831 3.51837C3.51831 3.51837 3.51831 5.87539 4.69682 7.0539C5.87534 8.23241 7.6431 8.82169 7.6431 8.82169"
                stroke-miterlimit="1.5" stroke-linecap="round" stroke-linejoin="round" />
            <path
                d="M7.64286 11.1785C7.64286 11.1785 5.87509 11.7678 4.69658 12.9463C3.51807 14.1248 3.51807 16.4819 3.51807 16.4819C3.51807 16.4819 5.87509 16.4819 7.0536 15.3034C8.23212 14.1248 8.82134 12.357 8.82134 12.357"
                stroke-miterlimit="1.5" stroke-linecap="round" stroke-linejoin="round" />
            <path
                d="M12.357 11.1785C12.357 11.1785 14.1247 11.7678 15.3032 12.9463C16.4817 14.1248 16.4817 16.4819 16.4817 16.4819C16.4817 16.4819 14.1247 16.4819 12.9462 15.3034C11.7677 14.1248 11.1785 12.357 11.1785 12.357"
                stroke-miterlimit="1.5" stroke-linecap="round" stroke-linejoin="round" />
            <path
                d="M11.1785 7.64315C11.1785 7.64315 11.7677 5.87539 12.9462 4.69688C14.1247 3.51837 16.4818 3.51837 16.4818 3.51837C16.4818 3.51837 16.4818 5.87539 15.3033 7.0539C14.1247 8.23241 12.357 8.82169 12.357 8.82169"
                stroke-miterlimit="1.5" stroke-linecap="round" stroke-linejoin="round" />
        </g>
        <defs>
            <clipPath id="clip0_772_761">
                <rect width="20" height="20" fill="white" />
            </clipPath>
        </defs>
    </symbol>

    <!-- Gym Icon -->
    <symbol viewBox="0 0 24 24" id="gym" xmlns="http://www.w3.org/2000/svg">
        <path
            d="M7.4 7H4.6C4.26863 7 4 7.26863 4 7.6V16.4C4 16.7314 4.26863 17 4.6 17H7.4C7.73137 17 8 16.7314 8 16.4V7.6C8 7.26863 7.73137 7 7.4 7Z"
            stroke-width="1.2" stroke-linecap="round" stroke-linejoin="round" />
        <path
            d="M19.4 7H16.6C16.2686 7 16 7.26863 16 7.6V16.4C16 16.7314 16.2686 17 16.6 17H19.4C19.7314 17 20 16.7314 20 16.4V7.6C20 7.26863 19.7314 7 19.4 7Z"
            stroke-width="1.2" stroke-linecap="round" stroke-linejoin="round" />
        <path
            d="M1 14.4V9.6C1 9.26863 1.26863 9 1.6 9H3.4C3.73137 9 4 9.26863 4 9.6V14.4C4 14.7314 3.73137 15 3.4 15H1.6C1.26863 15 1 14.7314 1 14.4Z"
            stroke-width="1.2" stroke-linecap="round" stroke-linejoin="round" />
        <path
            d="M23 14.4V9.6C23 9.26863 22.7314 9 22.4 9H20.6C20.2686 9 20 9.26863 20 9.6V14.4C20 14.7314 20.2686 15 20.6 15H22.4C22.7314 15 23 14.7314 23 14.4Z"
            stroke-width="1.2" stroke-linecap="round" stroke-linejoin="round" />
        <path d="M8 12H16" stroke-width="1.2" stroke-linecap="round" stroke-linejoin="round" />
    </symbol>

    <!-- Wifi Icon -->
    <symbol viewBox="0 0 24 24" id="wifi" xmlns="http://www.w3.org/2000/svg">
        <path d="M12 19.5109L12.0108 19.4989" stroke-width="1.5" stroke-linecap="round" stroke-linejoin="round" />
        <path d="M2 8C8 3.5 16 3.5 22 8" stroke-width="1.5" stroke-linecap="round" stroke-linejoin="round" />
        <path d="M5 12C9 9 15 9 19 12" stroke-width="1.5" stroke-linecap="round" stroke-linejoin="round" />
        <path d="M8.5 15.5C10.7504 14.1 13.2498 14.0996 15.5001 15.5" stroke-width="1.5" stroke-linecap="round"
            stroke-linejoin="round" />
    </symbol>
</svg>