<svg viewBox="0 0 36 36" id="box" xmlns="http://www.w3.org/2000/svg">
<path d="M31.5 24V12C31.4995 11.4739 31.3606 10.9572 31.0973 10.5017C30.834 10.0462 30.4556 9.66802 30 9.40498L19.5 3.40498C19.0439 3.14167 18.5266 3.00305 18 3.00305C17.4734 3.00305 16.9561 3.14167 16.5 3.40498L6 9.40498C5.54439 9.66802 5.16597 10.0462 4.90269 10.5017C4.63941 10.9572 4.50054 11.4739 4.5 12V24C4.50054 24.5261 4.63941 25.0428 4.90269 25.4982C5.16597 25.9537 5.54439 26.3319 6 26.595L16.5 32.595C16.9561 32.8583 17.4734 32.9969 18 32.9969C18.5266 32.9969 19.0439 32.8583 19.5 32.595L30 26.595C30.4556 26.3319 30.834 25.9537 31.0973 25.4982C31.3606 25.0428 31.4995 24.5261 31.5 24Z" stroke-width="1.5" stroke-linecap="round" stroke-linejoin="round"/>
<path d="M4.90479 10.4399L17.9998 18.0149L31.0948 10.4399" stroke-width="1.5" stroke-linecap="round" stroke-linejoin="round"/>
<path d="M18 33.12V18" stroke-width="1.5" stroke-linecap="round" stroke-linejoin="round"/>
</svg>
