<svg width="0" height="0" style="visibility: hidden; position: absolute;" aria-hidden="true">
    <symbol id="chat" viewBox="0 0 47 44" xmlns="http://www.w3.org/2000/svg">
        <path d="M23.5 0.0703125C10.9152 0.0703125 0.570312 8.92537 0.570312 20C0.570312 26.4273 4.12196 32.0866 9.5 35.7129C9.4916 35.9285 9.5081 36.2807 9.22656 37.3242C8.87782 38.617 8.17319 40.4317 6.74023 42.4648C6.64239 42.6038 6.5845 42.7669 6.57285 42.9364C6.5612 43.1059 6.59624 43.2754 6.67416 43.4264C6.75208 43.5774 6.86989 43.7041 7.0148 43.7929C7.15971 43.8816 7.32617 43.9289 7.49609 43.9297C13.6734 43.9566 17.2488 39.9048 17.8047 39.252C19.6335 39.6591 21.5284 39.9297 23.5 39.9297C36.0839 39.9297 46.4297 31.0747 46.4297 20C46.4297 8.92531 36.0839 0.0703125 23.5 0.0703125ZM23.5 1.92969C35.2161 1.92969 44.5703 10.0887 44.5703 20C44.5703 29.9113 35.2161 38.0703 23.5 38.0703C21.498 38.0703 19.5635 37.8312 17.7305 37.3848C17.5588 37.3427 17.3786 37.3506 17.2112 37.4073C17.0437 37.464 16.896 37.5673 16.7852 37.7051C16.7852 37.7051 13.8949 40.9848 9.28711 41.7598C10.1201 40.2649 10.7352 38.8699 11.0215 37.8086C11.4205 36.3294 11.4258 35.3262 11.4258 35.3262C11.4258 35.1695 11.3863 35.0154 11.3108 34.8782C11.2353 34.7409 11.1264 34.6249 10.9941 34.541C5.7672 31.2276 2.42969 25.9433 2.42969 20C2.42969 10.0886 11.7828 1.92969 23.5 1.92969ZM12.5 13C12.3675 12.9981 12.2359 13.0226 12.113 13.072C11.99 13.1214 11.8781 13.1948 11.7837 13.2878C11.6893 13.3809 11.6144 13.4918 11.5632 13.614C11.5121 13.7363 11.4858 13.8675 11.4858 14C11.4858 14.1325 11.5121 14.2637 11.5632 14.386C11.6144 14.5082 11.6893 14.6191 11.7837 14.7122C11.8781 14.8052 11.99 14.8786 12.113 14.928C12.2359 14.9774 12.3675 15.0019 12.5 15H34.5C34.6325 15.0019 34.7641 14.9774 34.887 14.928C35.01 14.8786 35.1219 14.8052 35.2163 14.7122C35.3107 14.6191 35.3856 14.5082 35.4368 14.386C35.4879 14.2637 35.5142 14.1325 35.5142 14C35.5142 13.8675 35.4879 13.7363 35.4368 13.614C35.3856 13.4918 35.3107 13.3809 35.2163 13.2878C35.1219 13.1948 35.01 13.1214 34.887 13.072C34.7641 13.0226 34.6325 12.9981 34.5 13H12.5ZM8.5 19C8.36749 18.9981 8.23593 19.0226 8.11296 19.072C7.98999 19.1214 7.87807 19.1948 7.7837 19.2878C7.68933 19.3809 7.61439 19.4918 7.56324 19.614C7.5121 19.7363 7.48576 19.8675 7.48576 20C7.48576 20.1325 7.5121 20.2637 7.56324 20.386C7.61439 20.5082 7.68933 20.6191 7.7837 20.7122C7.87807 20.8052 7.98999 20.8786 8.11296 20.928C8.23593 20.9774 8.36749 21.0019 8.5 21H25.5C25.6325 21.0019 25.7641 20.9774 25.887 20.928C26.01 20.8786 26.1219 20.8052 26.2163 20.7122C26.3107 20.6191 26.3856 20.5082 26.4368 20.386C26.4879 20.2637 26.5142 20.1325 26.5142 20C26.5142 19.8675 26.4879 19.7363 26.4368 19.614C26.3856 19.4918 26.3107 19.3809 26.2163 19.2878C26.1219 19.1948 26.01 19.1214 25.887 19.072C25.7641 19.0226 25.6325 18.9981 25.5 19H8.5ZM31.5 19C31.3675 18.9981 31.2359 19.0226 31.113 19.072C30.99 19.1214 30.8781 19.1948 30.7837 19.2878C30.6893 19.3809 30.6144 19.4918 30.5632 19.614C30.5121 19.7363 30.4858 19.8675 30.4858 20C30.4858 20.1325 30.5121 20.2637 30.5632 20.386C30.6144 20.5082 30.6893 20.6191 30.7837 20.7122C30.8781 20.8052 30.99 20.8786 31.113 20.928C31.2359 20.9774 31.3675 21.0019 31.5 21H38.5C38.6325 21.0019 38.7641 20.9774 38.887 20.928C39.01 20.8786 39.1219 20.8052 39.2163 20.7122C39.3107 20.6191 39.3856 20.5082 39.4368 20.386C39.4879 20.2637 39.5142 20.1325 39.5142 20C39.5142 19.8675 39.4879 19.7363 39.4368 19.614C39.3856 19.4918 39.3107 19.3809 39.2163 19.2878C39.1219 19.1948 39.01 19.1214 38.887 19.072C38.7641 19.0226 38.6325 18.9981 38.5 19H31.5ZM12.5 25C12.3675 24.9981 12.2359 25.0226 12.113 25.072C11.99 25.1214 11.8781 25.1948 11.7837 25.2878C11.6893 25.3809 11.6144 25.4918 11.5632 25.614C11.5121 25.7363 11.4858 25.8675 11.4858 26C11.4858 26.1325 11.5121 26.2637 11.5632 26.386C11.6144 26.5082 11.6893 26.6191 11.7837 26.7122C11.8781 26.8052 11.99 26.8786 12.113 26.928C12.2359 26.9774 12.3675 27.0019 12.5 27H34.5C34.6325 27.0019 34.7641 26.9774 34.887 26.928C35.01 26.8786 35.1219 26.8052 35.2163 26.7122C35.3107 26.6191 35.3856 26.5082 35.4368 26.386C35.4879 26.2637 35.5142 26.1325 35.5142 26C35.5142 25.8675 35.4879 25.7363 35.4368 25.614C35.3856 25.4918 35.3107 25.3809 35.2163 25.2878C35.1219 25.1948 35.01 25.1214 34.887 25.072C34.7641 25.0226 34.6325 24.9981 34.5 25H12.5Z" />
    </symbol>
    <symbol id="mail"  viewBox="0 0 48 49" xmlns="http://www.w3.org/2000/svg">
        <path d="M35 0.712158C28.885 0.712158 23.756 4.45488 22.377 9.47388C20.49 8.55988 18.2015 8.77231 16.5645 10.1223L11.6719 13.7122H8C7.447 13.7122 7 14.1602 7 14.7122V18.011C6.986 18.022 6.96712 18.0234 6.95312 18.0344L0.363281 23.4602C0.133281 23.6502 0 23.9346 0 24.2336V47.7004C0 48.2524 0.447 48.7004 1 48.7004H38.9961C39.5491 48.7004 39.9961 48.2524 39.9961 47.7004V24.2336C39.9961 23.9216 39.8496 23.6277 39.6016 23.4387L39.0703 23.0325C44.2493 21.5235 48 17.2253 48 12.1633C48 5.84933 42.168 0.712158 35 0.712158ZM35 2.71216C41.065 2.71216 46 6.95233 46 12.1633C46 17.3753 41.065 21.6145 35 21.6145C34.072 21.6145 33.1711 21.5083 32.2441 21.2903C31.8801 21.2033 31.4989 21.3305 31.2559 21.6145C30.8899 22.0425 29.6495 23.311 27.6055 23.636C28.0945 22.769 28.3571 22.0184 28.4961 21.4954C28.6431 20.9534 28.6698 20.671 28.6758 20.425C28.6888 20.081 28.5213 19.7548 28.2363 19.5618C25.5433 17.7398 24 15.0423 24 12.1633C24 6.95233 28.935 2.71216 35 2.71216ZM35 5.81177C34.4 5.81177 34 6.21177 34 6.81177V10.7122H30.0996C29.4996 10.7122 29.0996 11.1122 29.0996 11.7122C29.0996 12.3122 29.4996 12.7122 30.0996 12.7122H34V16.6125C34 17.2125 34.4 17.6125 35 17.6125C35.6 17.6125 36 17.2125 36 16.6125V12.7122H39.9004C40.5004 12.7122 40.9004 12.3122 40.9004 11.7122C40.9004 11.1122 40.5004 10.7122 39.9004 10.7122H36V6.81177C36 6.21177 35.6 5.81177 35 5.81177ZM19.8945 10.9172C20.6433 10.8985 21.3982 11.1213 22.0332 11.5833C22.0222 11.7763 22 11.9673 22 12.1633C22 12.6873 22.0548 13.2022 22.1348 13.7122H15.0527L17.793 11.7004C18.404 11.1964 19.1458 10.936 19.8945 10.9172ZM22.6328 15.6575C23.3668 17.6485 24.7177 19.4448 26.5957 20.8508C26.5857 20.8898 26.5745 20.9308 26.5625 20.9758C26.4175 21.5198 26.1012 22.3783 25.4082 23.3743L24.873 24.1399C24.66 24.4459 24.6366 24.845 24.8086 25.175C24.9806 25.505 25.3204 25.7122 25.6934 25.7122H26.627C28.488 25.7122 29.9481 25.0999 30.9961 24.4309V30.3254L26.6133 33.7454L24.834 32.3606C22.031 30.1786 17.9651 30.1786 15.1621 32.3606L13.3848 33.7434L9 30.3235V15.7122H22.3633C22.4583 15.7122 22.5458 15.6825 22.6328 15.6575ZM7 20.5872V28.7629L2 24.8625V24.7043L7 20.5872ZM32.9961 23.4524C33.6641 23.5504 34.334 23.6145 35 23.6145C35.486 23.6145 35.9655 23.5863 36.4375 23.5403L37.9961 24.7278V24.8625L32.9961 28.7649V23.4524ZM2 27.3997L11.7559 35.011L2 42.6047V27.3997ZM37.9961 27.3997V42.6047L28.2402 35.0129L37.9961 27.3997ZM19.998 32.7161C21.2793 32.7161 22.5605 33.1233 23.6055 33.9368L37.9961 45.1399V46.7004H2V45.1399L16.3906 33.9368C17.4356 33.1233 18.7168 32.7161 19.998 32.7161Z" />
    </symbol>
    <symbol id="twitter" viewBox="0 0 51 42" xmlns="http://www.w3.org/2000/svg">
        <path d="M34.7185 0.912231C28.738 0.912231 23.8748 5.77551 23.8748 11.756C23.8748 12.1154 23.9646 12.4669 23.9998 12.8185C16.6052 12.1115 10.0662 8.54895 5.62476 3.09973C5.41773 2.83801 5.09741 2.69739 4.76148 2.72083C4.42945 2.74426 4.13257 2.93567 3.96851 3.22473C3.03491 4.8302 2.49976 6.67786 2.49976 8.66223C2.49976 11.0646 3.35913 13.2638 4.68726 15.0685C4.42945 14.9552 4.1482 14.8927 3.90601 14.756C3.59741 14.5919 3.22632 14.5997 2.92554 14.7794C2.62476 14.9591 2.44116 15.2833 2.43726 15.631V15.756C2.43726 19.4396 4.34351 22.6388 7.15601 24.5997C7.12476 24.5958 7.09351 24.6075 7.06226 24.5997C6.71851 24.5411 6.37085 24.6622 6.14038 24.924C5.90991 25.1857 5.8357 25.549 5.93726 25.881C7.05445 29.3536 9.90601 32.006 13.4373 32.9747C10.6248 34.6466 7.36304 35.631 3.84351 35.631C3.08179 35.631 2.35132 35.5919 1.62476 35.506C1.15601 35.4435 0.706789 35.7169 0.550539 36.1622C0.390383 36.6075 0.566164 37.1036 0.968508 37.3497C5.48023 40.2443 10.8357 41.9435 16.5935 41.9435C25.9255 41.9435 33.2459 38.045 38.156 32.4747C43.0662 26.9044 45.6248 19.67 45.6248 12.9122C45.6248 12.6271 45.6013 12.3497 45.5935 12.0685C47.4255 10.6661 49.0623 9.02161 50.3435 7.09973C50.5974 6.72864 50.5701 6.23254 50.2771 5.88879C49.988 5.54504 49.4998 5.43958 49.0935 5.63098C48.5779 5.86145 47.9763 5.88489 47.4373 6.06848C48.1482 5.11926 48.7576 4.09583 49.1248 2.94348C49.2498 2.54895 49.113 2.11536 48.7888 1.85754C48.4646 1.60364 48.0115 1.57239 47.656 1.78723C45.949 2.79895 44.0584 3.50989 42.0623 3.94348C40.1248 2.13098 37.574 0.912231 34.7185 0.912231ZM34.7185 2.91223C37.2693 2.91223 39.574 4.00208 41.1873 5.72473C41.4294 5.97473 41.7849 6.0802 42.1248 6.00598C43.4294 5.74817 44.6677 5.36926 45.8748 4.88098C45.1794 5.81848 44.3201 6.61926 43.3123 7.22473C42.8552 7.44739 42.6404 7.97473 42.8084 8.4552C42.9724 8.93176 43.4724 9.20911 43.9685 9.09973C44.9685 8.97864 45.8591 8.57239 46.8123 8.31848C45.9568 9.24426 45.0193 10.0802 43.9998 10.8185C43.7224 11.0216 43.5701 11.3497 43.5935 11.6935C43.6091 12.0997 43.6248 12.5021 43.6248 12.9122C43.6248 19.1622 41.2263 25.9474 36.656 31.131C32.0857 36.3146 25.3748 39.9435 16.5935 39.9435C12.6052 39.9435 8.8396 39.0607 5.43726 37.506C9.65601 37.1818 13.5466 35.6896 16.6873 33.2247C17.0154 32.963 17.1443 32.5255 17.0115 32.1271C16.8787 31.7286 16.5115 31.4552 16.0935 31.4435C12.7966 31.3849 10.0349 29.4669 8.56226 26.756C8.61695 26.756 8.66382 26.756 8.71851 26.756C9.70679 26.756 10.6834 26.631 11.5935 26.381C12.031 26.2521 12.3318 25.8458 12.3162 25.3888C12.3005 24.9318 11.9763 24.5411 11.531 24.4435C7.97241 23.7247 5.30445 20.8263 4.68726 17.2247C5.69507 17.5724 6.72632 17.8458 7.84351 17.881C8.30054 17.9083 8.7146 17.6232 8.85523 17.1896C8.99585 16.756 8.82398 16.2794 8.43726 16.0372C6.06226 14.4474 4.49976 11.7404 4.49976 8.66223C4.49976 7.52161 4.79663 6.47473 5.18726 5.47473C10.1873 10.963 17.1873 14.6075 25.0935 15.006C25.406 15.0216 25.7107 14.8927 25.9138 14.6544C26.1169 14.4122 26.1951 14.0919 26.1248 13.7872C25.9724 13.1388 25.8748 12.4513 25.8748 11.756C25.8748 6.85754 29.8201 2.91223 34.7185 2.91223Z" />
    </symbol>
</svg>