<?xml version="1.0" encoding="iso-8859-1"?>
<!-- Generator: Adobe Illustrator 19.0.0, SVG Export Plug-In . SVG Version: 6.00 Build 0)  -->
<svg version="1.1" id="Capa_1" xmlns="http://www.w3.org/2000/svg" xmlns:xlink="http://www.w3.org/1999/xlink" x="0px" y="0px"
	 viewBox="0 0 512 512" style="enable-background:new 0 0 512 512;" xml:space="preserve">
<g>
	<g>
		<path d="M394.667,277.332c-64.704,0-117.333,52.629-117.333,117.333s52.629,117.333,117.333,117.333S512,459.37,512,394.666
			S459.371,277.332,394.667,277.332z M394.667,490.666c-52.928,0-96-43.072-96-96s43.072-96,96-96c52.928,0,96,43.072,96,96
			S447.595,490.666,394.667,490.666z"/>
	</g>
</g>
<g>
	<g>
		<path d="M480,127.999H10.667C4.779,127.999,0,132.778,0,138.666s4.779,10.667,10.667,10.667H480
			c5.888,0,10.667-4.779,10.667-10.667S485.888,127.999,480,127.999z"/>
	</g>
</g>
<g>
	<g>
		<path d="M461.461,128.362c-5.632-1.536-11.563,1.792-13.099,7.488L419.264,242.58c-1.557,5.675,1.792,11.541,7.488,13.099
			c0.939,0.277,1.877,0.384,2.816,0.384c4.693,0,9.003-3.115,10.283-7.872l29.099-106.731
			C470.507,135.786,467.157,129.919,461.461,128.362z"/>
	</g>
</g>
<g>
	<g>
		<path d="M245.333,362.666H128.597c-14.4,0-27.093-9.707-30.891-23.573L42.283,135.871c-1.536-5.696-7.424-9.024-13.077-7.488
			c-5.696,1.536-9.045,7.403-7.488,13.077l55.424,203.243c6.315,23.147,27.456,39.296,51.456,39.296h116.736
			c5.888,0,10.667-4.779,10.667-10.667C256,367.444,251.221,362.666,245.333,362.666z"/>
	</g>
</g>
<g>
	<g>
		<path d="M229.909,1.791c-4.928-3.264-11.541-1.92-14.784,2.965l-85.333,128c-3.264,4.907-1.941,11.52,2.965,14.784
			c1.813,1.216,3.861,1.792,5.909,1.792c3.435,0,6.827-1.664,8.875-4.757l85.333-128C236.139,11.668,234.816,5.055,229.909,1.791z"
			/>
	</g>
</g>
<g>
	<g>
		<path d="M360.853,132.756l-85.333-128c-3.264-4.907-9.877-6.229-14.784-2.965c-4.907,3.264-6.229,9.877-2.965,14.784l85.333,128
			c2.069,3.093,5.44,4.757,8.896,4.757c2.048,0,4.096-0.576,5.888-1.792C362.795,144.276,364.117,137.663,360.853,132.756z"/>
	</g>
</g>
<g>
	<g>
		<path d="M437.333,383.999H352c-5.888,0-10.667,4.779-10.667,10.667s4.779,10.667,10.667,10.667h85.333
			c5.888,0,10.667-4.779,10.667-10.667S443.221,383.999,437.333,383.999z"/>
	</g>
</g>
<g>
	<g>
		<path d="M394.667,341.332c-5.888,0-10.667,4.779-10.667,10.667v85.333c0,5.888,4.779,10.667,10.667,10.667
			s10.667-4.779,10.667-10.667v-85.333C405.333,346.111,400.555,341.332,394.667,341.332z"/>
	</g>
</g>
<g>
</g>
<g>
</g>
<g>
</g>
<g>
</g>
<g>
</g>
<g>
</g>
<g>
</g>
<g>
</g>
<g>
</g>
<g>
</g>
<g>
</g>
<g>
</g>
<g>
</g>
<g>
</g>
<g>
</g>
</svg>
