<svg width="27" height="78" viewBox="0 0 27 78" fill="none" xmlns="http://www.w3.org/2000/svg">
<path d="M15.5 1V0.5H15.46L15.4206 0.506352L15.5 1ZM1 11.8148L0.50085 11.7857L0.5 11.8002V11.8148H1ZM1 64.9877H0.5V65.063L0.522181 65.1349L1 64.9877ZM15.5 74L15.4626 74.4986L15.4813 74.5H15.5V74ZM26.3536 74.3536C26.5488 74.1583 26.5488 73.8417 26.3536 73.6464L23.1716 70.4645C22.9763 70.2692 22.6597 70.2692 22.4645 70.4645C22.2692 70.6597 22.2692 70.9763 22.4645 71.1716L25.2929 74L22.4645 76.8284C22.2692 77.0237 22.2692 77.3403 22.4645 77.5355C22.6597 77.7308 22.9763 77.7308 23.1716 77.5355L26.3536 74.3536ZM26 0.5H23.375V1.5H26V0.5ZM18.125 0.5H15.5V1.5H18.125V0.5ZM15.4206 0.506352C14.0978 0.719237 12.4091 1.124 10.6487 1.74561L10.9816 2.68855C12.685 2.08706 14.3155 1.69707 15.5794 1.49365L15.4206 0.506352ZM2.35745 7.06693C1.30696 8.40213 0.606821 9.97109 0.50085 11.7857L1.49915 11.844C1.59135 10.2652 2.19799 8.88685 3.14337 7.68526L2.35745 7.06693ZM0.5 11.8148V16.2459H1.5V11.8148H0.5ZM0.5 25.108V33.9702H1.5V25.108H0.5ZM0.5 42.8323V51.6944H1.5V42.8323H0.5ZM0.5 60.5566V64.9877H1.5V60.5566H0.5ZM0.522181 65.1349C0.855733 66.2171 1.64916 67.6761 3.00249 69.1203L3.73217 68.4365C2.46786 67.0873 1.7606 65.7579 1.47782 64.8404L0.522181 65.1349ZM10.9287 73.7275C12.2875 74.1038 13.7952 74.3734 15.4626 74.4986L15.5374 73.5014C13.9324 73.3809 12.4891 73.122 11.1956 72.7637L10.9287 73.7275ZM15.5 74.5H18.125V73.5H15.5V74.5ZM23.375 74.5H26V73.5H23.375V74.5Z" fill="#C4C4C4"/>
</svg>
