<svg width="20" height="20" id="offer" viewBox="0 0 19 20" xmlns="http://www.w3.org/2000/svg">
    <path
        d="M9.21448 1.13479C9.42137 0.95507 9.72901 0.95507 9.9359 1.13479L11.7218 2.68635C11.8344 2.78412 11.9818 2.83202 12.1303 2.81907L14.4872 2.61361C14.7602 2.58981 15.0091 2.77064 15.0709 3.03764L15.6037 5.34266C15.6374 5.4879 15.7284 5.61329 15.8562 5.69012L17.8838 6.90923C18.1186 7.05045 18.2137 7.34303 18.1066 7.59533L17.183 9.77333C17.1248 9.91065 17.1248 10.0656 17.183 10.2029L18.1066 12.3809C18.2137 12.6331 18.1186 12.9257 17.8838 13.067L15.8562 14.2861C15.7284 14.3629 15.6374 14.4883 15.6037 14.6336L15.0709 16.9385C15.0091 17.2056 14.7602 17.3864 14.4872 17.3626L12.1303 17.1572C11.9818 17.1442 11.8344 17.1921 11.7218 17.2898L9.9359 18.8415C9.72901 19.0211 9.42137 19.0211 9.21448 18.8415L7.4285 17.2898C7.31597 17.1921 7.16856 17.1442 7.02004 17.1572L4.66316 17.3626C4.39015 17.3864 4.14126 17.2056 4.07954 16.9385L3.54662 14.6336C3.51305 14.4883 3.42194 14.3629 3.29417 14.2861L1.26666 13.067C1.03179 12.9257 0.936726 12.6331 1.04373 12.3809L1.96745 10.2029C2.02565 10.0656 2.02565 9.91065 1.96745 9.77333L1.04373 7.59533C0.936726 7.34303 1.03179 7.05045 1.26666 6.90923L3.29417 5.69012C3.42194 5.61329 3.51305 5.4879 3.54662 5.34266L4.07954 3.03764C4.14126 2.77064 4.39015 2.58981 4.66316 2.61361L7.02004 2.81907C7.16856 2.83202 7.31597 2.78412 7.4285 2.68635L9.21448 1.13479Z"
        stroke-width="1.5" />
    <path d="M6.8252 10.9048L8.65853 12.7381L13.2419 8.15479" stroke-width="1.5" stroke-linecap="round"
        stroke-linejoin="round" />
</svg>