<svg xmlns="http://www.w3.org/2000/svg">
    <!-- Train Icon -->
    <symbol viewBox="0 0 20 20" id="train" xmlns="http://www.w3.org/2000/svg">
        <path
            d="M8.00717 5.83337H11.9927C13.1933 5.83337 14.1666 6.80667 14.1666 8.00729C14.1666 8.18738 14.0206 8.33337 13.8405 8.33337H6.15934C5.97924 8.33337 5.83325 8.18738 5.83325 8.00729C5.83325 6.80667 6.80654 5.83337 8.00717 5.83337Z"
            stroke-linecap="round" stroke-linejoin="round" />
        <path
            d="M6.44982 18.4824L6.44982 18.4824C6.39335 18.5954 6.27794 18.6667 6.15168 18.6667H5.51507C5.26727 18.6667 5.10611 18.4059 5.21693 18.1843L4.76972 17.9607L5.21693 18.1843L6.14239 16.3334H7.52436L6.44982 18.4824Z"
            fill="black" />
        <path
            d="M13.5503 18.4824L12.4758 16.3334H13.8577L14.7832 18.1843C14.7832 18.1843 14.7832 18.1843 14.7832 18.1843C14.894 18.406 14.7328 18.6667 14.4851 18.6667H13.8484C13.7222 18.6667 13.6068 18.5954 13.5503 18.4824Z"
            fill="black" />
        <path
            d="M7.5 2.5H12.5C15.2614 2.5 17.5 4.73858 17.5 7.5V10.8333C17.5 13.5948 15.2614 15.8333 12.5 15.8333H7.5C4.73857 15.8333 2.5 13.5948 2.5 10.8333V7.5C2.5 4.73858 4.73857 2.5 7.5 2.5Z"
            stroke-linecap="round" stroke-linejoin="round" />
        <path d="M13.3333 12.5091L13.3423 12.499" stroke-linecap="round" stroke-linejoin="round" />
        <path d="M6.66675 12.5091L6.67584 12.499" stroke-linecap="round" stroke-linejoin="round" />
    </symbol>

    <!-- Airplane Icon -->
    <symbol viewBox="0 0 18 17" id="airplane" xmlns="http://www.w3.org/2000/svg">
        <path
            d="M7.74992 1.75V5.63954C7.74992 5.81194 7.66109 5.97218 7.51492 6.06354L1.31825 9.93642C1.17206 10.0278 1.08325 10.1881 1.08325 10.3604V11.1096C1.08325 11.4349 1.38894 11.6736 1.70452 11.5947L7.12865 10.2387C7.44425 10.1598 7.74992 10.3984 7.74992 10.7238V13.1898C7.74992 13.334 7.68767 13.4712 7.57917 13.5661L5.77893 15.1413C5.397 15.4755 5.69832 16.1003 6.19762 16.0095L8.9105 15.5163C8.96959 15.5055 9.03025 15.5055 9.08933 15.5163L11.8023 16.0095C12.3015 16.1003 12.6028 15.4755 12.2209 15.1413L10.4207 13.5661C10.3122 13.4712 10.2499 13.334 10.2499 13.1898V10.7238C10.2499 10.3984 10.5556 10.1598 10.8712 10.2387L16.2953 11.5947C16.6109 11.6736 16.9166 11.4349 16.9166 11.1096V10.3604C16.9166 10.1881 16.8278 10.0278 16.6816 9.93642L10.4849 6.06354C10.3388 5.97218 10.2499 5.81194 10.2499 5.63954V1.75C10.2499 1.05964 9.69025 0.5 8.99992 0.5C8.30959 0.5 7.74992 1.05964 7.74992 1.75Z"
            stroke-linecap="round" stroke-linejoin="round" />
    </symbol>
</svg>