<svg viewBox="0 0 19 19" id="discount" xmlns="http://www.w3.org/2000/svg">
    <path fill-rule="evenodd" clip-rule="evenodd"
        d="M11.1134 0.802438L11.7835 1.47252C12.0429 1.7301 12.3894 1.8731 12.7579 1.8731H13.7002C15.2228 1.8731 16.4612 3.11152 16.4612 4.6341V5.57552C16.4612 5.9431 16.6042 6.29052 16.8637 6.55177L17.5218 7.21085C18.0434 7.72877 18.3331 8.42085 18.3358 9.15877C18.3386 9.89669 18.0535 10.5906 17.5337 11.114L16.8618 11.7841C16.6042 12.0435 16.4612 12.3891 16.4612 12.7576V13.7009C16.4612 15.2225 15.2228 16.4609 13.7012 16.4609H12.7561C12.3931 16.4609 12.0383 16.6076 11.7807 16.8634L11.1226 17.5215C10.5845 18.0633 9.875 18.3346 9.1655 18.3346C8.46241 18.3346 7.75933 18.0688 7.22125 17.5353C7.21391 17.5279 7.20658 17.5206 7.19925 17.5124L6.54841 16.8624C6.289 16.6049 5.9425 16.4619 5.574 16.4609H4.6335C3.11091 16.4609 1.87341 15.2225 1.87341 13.7009V12.7558C1.87341 12.3873 1.7295 12.0417 1.471 11.7814L0.811912 11.1232C-0.258755 10.058 -0.271588 8.32369 0.779829 7.24202L0.804579 7.21727L1.47191 6.5481C1.7295 6.28869 1.87341 5.94127 1.87341 5.57369V4.6341C1.87341 3.11244 3.11091 1.87402 4.63258 1.8731H5.57675C5.94433 1.8731 6.29083 1.72919 6.55391 1.46977L7.20933 0.812521C8.28091 -0.266396 10.0327 -0.271896 11.1134 0.802438ZM8.18375 1.78327L7.52466 2.44419C6.9985 2.96394 6.30825 3.2481 5.57675 3.2481H4.6335C3.86991 3.24902 3.24841 3.87052 3.24841 4.6341V5.57369C3.24841 6.30794 2.96333 6.99819 2.44633 7.51885L1.7955 8.1706C1.78908 8.17794 1.78266 8.18344 1.77625 8.18985C1.23816 8.7316 1.24091 9.61069 1.78266 10.1488L2.4445 10.8106C2.96333 11.3313 3.24841 12.0215 3.24841 12.7558V13.7009C3.24841 14.4644 3.869 15.0859 4.6335 15.0859H5.57491C6.31008 15.0869 7.00033 15.3719 7.52008 15.8899L8.181 16.5489L8.19933 16.5691C8.74016 17.0971 9.611 17.0907 10.1482 16.5508L10.81 15.8908C11.3233 15.3784 12.0328 15.0859 12.7561 15.0859H13.7002C14.4647 15.0859 15.0862 14.4644 15.0862 13.7009V12.7576C15.0862 12.0234 15.3704 11.3331 15.8892 10.8134L16.5492 10.1524C16.8178 9.88294 16.9617 9.53369 16.9608 9.16335C16.9599 8.79394 16.8142 8.44652 16.5511 8.18435L15.8902 7.52252C15.3704 6.9991 15.0862 6.30977 15.0862 5.57552V4.6341C15.0862 3.8696 14.4647 3.2481 13.7002 3.2481H12.7579C12.0237 3.2481 11.3334 2.96302 10.8137 2.44694L10.1518 1.78419C9.60091 1.23877 8.72183 1.24152 8.18375 1.78327ZM11.4614 10.5408C11.9683 10.5408 12.378 10.9506 12.378 11.4575C12.378 11.9644 11.9683 12.3742 11.4614 12.3742C10.9545 12.3742 10.5401 11.9644 10.5401 11.4575C10.5401 10.9506 10.9462 10.5408 11.4531 10.5408H11.4614ZM12.0094 6.32535C12.2779 6.59394 12.2779 7.02935 12.0094 7.29794L7.29678 12.0096C7.16295 12.1444 6.98695 12.2113 6.81095 12.2113C6.63495 12.2113 6.45895 12.1444 6.32511 12.0096C6.05653 11.741 6.05653 11.3065 6.32511 11.0379L11.0368 6.32535C11.3054 6.05677 11.7408 6.05677 12.0094 6.32535ZM6.87805 5.9575C7.38496 5.9575 7.79471 6.36725 7.79471 6.87416C7.79471 7.38108 7.38496 7.79083 6.87805 7.79083C6.37113 7.79083 5.9568 7.38108 5.9568 6.87416C5.9568 6.36725 6.36288 5.9575 6.8698 5.9575H6.87805Z" />
</svg>