<svg id="low" viewBox="0 0 21 14" xmlns="http://www.w3.org/2000/svg">
	<g clip-path="url(#clip0_121_2425)">
		<path d="M7 0.583374V13.4167" stroke-width="1.2" stroke-linecap="round" stroke-linejoin="round" />
		<path d="M9.91667 2.91663H5.54167C5.00018 2.91663 4.48088 3.13173 4.09799 3.51462C3.7151 3.8975 3.5 4.41681 3.5 4.95829C3.5 5.49978 3.7151 6.01908 4.09799 6.40197C4.48088 6.78486 5.00018 6.99996 5.54167 6.99996H8.45833C8.99982 6.99996 9.51912 7.21506 9.90201 7.59795C10.2849 7.98084 10.5 8.50014 10.5 9.04163C10.5 9.58311 10.2849 10.1024 9.90201 10.4853C9.51912 10.8682 8.99982 11.0833 8.45833 11.0833H3.5" stroke-width="1.2" stroke-linecap="round" stroke-linejoin="round" />
	</g>
	<path d="M16 12V3" stroke-width="1.2" stroke-linecap="round" stroke-linejoin="round" />
	<path d="M19 10L16 12L13 10" stroke-width="1.2" stroke-linecap="round" stroke-linejoin="round" />
	<defs>
		<clipPath id="clip0_121_2425">
			<rect width="14" height="14" />
		</clipPath>
	</defs>
</svg>
