<svg width="375" height="199" viewBox="0 0 375 199" fill="none" xmlns="http://www.w3.org/2000/svg">
<path opacity="0.5" d="M-9.5 115C10.3333 117 58.5 114.9 92.5 90.5C113.167 75.3333 165.4 55.2 209 96C222 107.333 261.1 121.3 313.5 86.5C334.833 68.5 382.4 37.9 402 59.5" stroke="white"/>
<path fill-rule="evenodd" clip-rule="evenodd" d="M279 47C277.902 47 277 46.0984 277 45C277 43.9015 277.902 43 279 43C280.098 43 281 43.9015 281 45C281 46.0984 280.098 47 279 47V47ZM279 43.4559C278.15 43.4559 277.456 44.1502 277.456 45C277.456 45.8497 278.15 46.544 279 46.544C279.85 46.544 280.544 45.8497 280.544 45C280.544 44.1502 279.85 43.4559 279 43.4559Z" fill="white"/>
<path fill-rule="evenodd" clip-rule="evenodd" d="M276 199C274.902 199 274 198.098 274 197C274 195.902 274.902 195 276 195C277.098 195 278 195.902 278 197C278 198.098 277.098 199 276 199V199ZM276 195.456C275.15 195.456 274.456 196.15 274.456 197C274.456 197.85 275.15 198.544 276 198.544C276.85 198.544 277.544 197.85 277.544 197C277.544 196.15 276.85 195.456 276 195.456Z" fill="white"/>
<path fill-rule="evenodd" clip-rule="evenodd" d="M26 196C24.9016 196 24 195.098 24 194C24 192.902 24.9016 192 26 192C27.0984 192 28 192.902 28 194C28 195.098 27.0984 196 26 196V196ZM26 192.456C25.1503 192.456 24.456 193.15 24.456 194C24.456 194.85 25.1503 195.544 26 195.544C26.8497 195.544 27.544 194.85 27.544 194C27.544 193.15 26.8497 192.456 26 192.456Z" fill="white"/>
<path d="M176.099 86.2837C177.792 83.0624 179.682 79.9397 181.736 76.9321C188.967 66.3314 198.27 57.177 209.018 50.1591C208.942 50.4879 208.86 50.8166 208.772 51.1453C206.8 48.2527 204.795 45.4094 202.789 42.5661C198.763 36.8795 194.72 31.2258 190.825 25.4571C187.176 20.0828 183.61 14.6263 180.569 8.89042C180.142 8.06866 181.391 7.34552 181.818 8.16728C183.445 11.2407 185.253 14.2319 187.11 17.1902C194.292 28.5633 202.444 39.2955 210.004 50.4057C210.235 50.7508 210.07 51.1946 209.758 51.3918C206.75 53.364 203.858 55.4842 201.097 57.7686C191.351 65.8548 183.248 75.8309 177.331 87.0233C176.904 87.845 175.655 87.1054 176.099 86.2837V86.2837Z" fill="white"/>
<path d="M158.792 96.457C158.924 93.1043 159.779 88.5517 162.951 86.711C164.758 85.6591 167.257 85.7577 169.229 86.1851C171.513 86.6781 173.568 87.8614 175.589 88.9955C176.395 89.4392 175.671 90.6883 174.85 90.2281C173.091 89.242 171.3 88.2066 169.311 87.6971C167.618 87.2533 165.268 87.0397 163.69 87.96C160.995 89.5214 160.354 93.6466 160.239 96.457C160.189 97.3939 158.76 97.3939 158.792 96.457V96.457Z" fill="white"/>
<path d="M80.3309 54.12C81.9251 57.3578 83.3221 60.6612 84.7191 63.9811C87.9733 71.7221 91.0302 79.5452 94.1529 87.3355C96.8154 93.926 99.4121 100.615 102.551 106.992C102.223 106.915 101.894 106.833 101.565 106.745C105.115 104.872 108.813 103.311 112.61 102.012C126.415 97.2788 141.223 95.8654 155.752 95.7339C156.689 95.7339 156.689 97.1802 155.752 97.1802C151.742 97.2131 147.715 97.361 143.705 97.6404C129.489 98.6265 115.009 101.322 102.305 107.978C101.976 108.159 101.483 108.093 101.319 107.732C99.7244 104.494 98.311 101.19 96.9304 97.8705C93.6763 90.1295 90.6193 82.3064 87.4802 74.5161C84.8341 67.9256 82.2374 61.2365 79.0818 54.8596C78.671 54.0214 79.92 53.2983 80.3309 54.12V54.12Z" fill="white"/>
<path d="M141.338 40.9555C142.62 44.1603 143.968 47.3159 145.365 50.455C150.46 61.861 156.163 73.037 162.589 83.7363C163.066 84.5416 161.816 85.2647 161.34 84.4594C159.565 81.5011 157.856 78.5099 156.196 75.4858C150.131 64.4414 144.642 53.0353 139.941 41.3499C139.596 40.4789 140.993 40.1173 141.338 40.9555V40.9555Z" fill="white"/>
<path d="M155.801 96.0297C155.719 93.9096 156.015 91.7401 156.804 89.7679C158.086 86.5795 160.584 83.9499 163.97 83.0952C168.489 81.9777 173.058 84.0649 176.674 86.6288C177.43 87.1547 176.707 88.4038 175.951 87.8614C172.039 85.1003 166.599 82.6844 162.047 85.4455C158.464 87.6149 157.083 92.0524 157.248 96.0297C157.28 96.9665 155.834 96.9665 155.801 96.0297V96.0297Z" fill="white"/>
<path d="M84.6699 45.3108C86.2805 49.1237 87.8419 52.9531 89.3539 56.8154C94.909 70.9989 99.9874 85.3797 105.921 99.3989C105.647 99.2894 105.378 99.1798 105.115 99.0702C108.731 97.8705 112.396 96.835 116.11 95.964C129.094 92.907 142.472 91.7073 155.785 91.3621C156.722 91.3292 156.722 92.7755 155.785 92.792C152.038 92.8906 148.274 93.0549 144.51 93.3179C131.296 94.2218 118.099 96.2762 105.493 100.467C105.214 100.549 104.803 100.401 104.671 100.139C103.061 96.3255 101.516 92.4797 100.004 88.6339C94.4324 74.4503 89.3703 60.0696 83.4208 46.0339C83.0757 45.1957 84.3083 44.4561 84.6699 45.3108V45.3108Z" fill="white"/>
<path d="M88.3513 41.8923C90.455 45.3272 92.3943 48.8772 94.1858 52.493C100.743 65.674 105.674 79.726 109.125 94.0411C108.829 93.8658 108.534 93.6959 108.238 93.5316C111.804 92.4797 115.42 91.5429 119.052 90.7376C131.707 87.9601 144.707 86.7932 157.658 87.2534C158.579 87.2862 158.579 88.7161 157.658 88.6832C153.993 88.5517 150.328 88.5517 146.663 88.6832C133.778 89.1434 120.975 91.2635 108.616 94.9286C108.254 95.0272 107.827 94.7971 107.728 94.4191C106.786 90.4856 105.723 86.585 104.54 82.7173C100.283 68.7802 94.7281 55.0733 87.1022 42.6154C86.6256 41.8265 87.8582 41.1034 88.3513 41.8923V41.8923Z" fill="white"/>
<path d="M161.471 84.8703C158.036 84.2457 154.601 83.7198 151.134 83.3089C144.543 82.5529 137.854 82.2571 131.231 82.9145C124.739 83.5555 118.214 85.199 112.642 88.7161C112.248 88.9626 111.706 88.7161 111.574 88.2888C108.912 78.2962 105.329 68.5666 100.842 59.2643C98.8533 55.139 96.6839 51.096 94.3501 47.1515C93.2106 45.2122 92.0218 43.2893 90.7837 41.3828C90.3071 40.6432 89.2223 39.5913 90.2906 38.8682C90.7508 38.5559 91.3918 38.4244 91.9177 38.2601C92.8545 37.9807 93.8078 37.7506 94.7446 37.5205C97.1934 36.9453 99.6422 36.4194 102.108 35.9263C104.244 35.499 106.381 35.0881 108.534 34.7265C111.098 34.2992 113.727 34.2663 116.324 34.2335C124.821 34.1513 133.384 35.5319 140.401 40.6103C141.157 41.1527 140.434 42.4018 139.678 41.8594C131.904 36.2386 122.438 35.3675 113.136 35.7619C111.065 35.8606 109.618 35.9756 107.646 36.3372C105.378 36.7481 103.126 37.1918 100.858 37.652C98.574 38.1286 96.2895 38.6217 94.0214 39.1805C93.2325 39.3777 92.4436 39.5913 91.6876 39.8379C91.4575 39.92 91.1946 40.0351 91.1288 40.0515C90.8823 40.0844 91.1124 40.0844 91.0795 40.068C90.8823 40.2652 90.9042 40.0132 91.1453 39.3119C91.211 39.3996 91.2713 39.4873 91.326 39.5749C91.4575 39.69 91.6054 40.0022 91.6876 40.1173C101.269 54.7774 108.451 70.9825 112.971 87.9108C112.621 87.7574 112.27 87.6095 111.919 87.467C115.026 85.4948 118.477 84.0814 122.027 83.1117C134.912 79.5946 148.898 81.123 161.849 83.4897C162.753 83.6541 162.375 85.051 161.471 84.8703V84.8703Z" fill="white"/>
<path d="M169.771 4.88028C171.037 4.45296 172.319 4.10783 173.633 3.81199C173.929 3.74625 174.307 3.84486 174.455 4.1407C176.142 7.57017 177.901 10.9558 179.731 14.2976C186.206 26.0817 193.586 37.3562 201.787 48.0062C202.033 48.3349 201.82 48.8115 201.524 48.9923C198.681 50.8659 195.969 52.9696 193.454 55.2705C184.596 63.3895 178.022 73.908 174.718 85.4619C174.455 86.3494 173.075 85.9714 173.321 85.0675C174.274 81.764 175.474 78.5263 176.937 75.4036C182.13 64.2113 190.479 54.5309 200.801 47.7597C200.713 48.0884 200.625 48.4171 200.538 48.7458C198.215 45.7217 195.952 42.6483 193.75 39.5256C186.025 28.5305 179.156 16.9273 173.206 4.88028C173.48 4.98985 173.748 5.09942 174.011 5.20898C172.713 5.48838 171.415 5.84995 170.149 6.27727C169.262 6.5731 168.884 5.17611 169.771 4.88028V4.88028Z" fill="white"/>
<path d="M161.833 1.33024C160.157 3.20385 158.612 5.17608 157.116 7.1976C153.385 12.2432 150.016 17.5846 147.189 23.189C144.362 28.7934 141.914 34.9073 141.437 41.2184C141.371 42.1388 139.925 42.1552 140.007 41.2184C140.27 37.6684 141.141 34.2006 142.324 30.8643C144.56 24.5367 147.797 18.5707 151.413 12.9499C154.24 8.54529 157.313 4.22283 160.814 0.311261C161.422 -0.395451 162.441 0.639967 161.833 1.33024V1.33024Z" fill="white"/>
<path d="M169.262 82.7337C170.198 79.611 171.365 76.554 172.713 73.5793C177.512 62.995 184.826 53.5612 193.881 46.2804C193.881 46.6201 193.881 46.9598 193.881 47.2994C192.172 45.8531 190.529 44.3082 188.951 42.7469C188.277 42.0895 189.296 41.0705 189.97 41.7279C191.548 43.2892 193.191 44.8341 194.9 46.2804C195.18 46.5105 195.196 47.0693 194.9 47.2994C192.402 49.3045 190.036 51.474 187.817 53.7913C179.895 62.0582 173.978 72.1659 170.642 83.1281C170.379 84.0156 168.982 83.6212 169.262 82.7337V82.7337Z" fill="white"/>
<path d="M162.046 2.97378C164.03 1.83427 166.089 0.85364 168.226 0.0318816C168.604 -0.0995998 169.015 0.196234 169.114 0.541373C170.018 3.56545 171.004 6.54021 172.121 9.49854C176.049 19.9842 181.358 29.9439 187.833 39.0983C187.998 39.3448 187.932 39.7557 187.718 39.9694C185.039 42.5168 182.475 45.13 180.125 47.9897C171.776 58.1138 165.991 70.2922 163.378 83.1446C163.197 84.0649 161.8 83.6705 161.981 82.7665C162.737 79.0686 163.739 75.42 165.005 71.87C167.24 65.5754 170.248 59.5436 173.929 53.9721C177.578 48.4499 181.9 43.5194 186.699 38.9504C186.655 39.2352 186.617 39.5256 186.584 39.8214C184.727 37.2082 182.968 34.5293 181.325 31.7846C175.49 22.1372 170.921 11.7337 167.733 0.91938C168.029 1.09469 168.325 1.26452 168.621 1.42887C166.583 2.20132 164.643 3.13813 162.77 4.22285C161.964 4.68304 161.241 3.43396 162.046 2.97378V2.97378Z" fill="white"/>
<path d="M79.6898 54.3008C79.509 53.9885 79.6077 53.4791 79.9528 53.3147C81.925 52.4108 83.9958 51.7698 86.1324 51.4247C86.5104 51.3754 86.9049 51.5233 87.0199 51.9342C87.1021 52.2793 86.8884 52.7559 86.5104 52.8217C84.5053 53.1339 82.5331 53.7092 80.6759 54.5638C80.3308 54.7117 79.9035 54.6624 79.6898 54.3008Z" fill="white"/>
<path d="M83.437 46.0504C83.2398 45.7052 83.3713 45.2615 83.7 45.0643C84.4724 44.5876 85.4092 44.4397 86.2967 44.3411C87.1349 44.2589 87.9896 44.2425 88.8278 44.2425C89.2386 44.2425 89.5345 44.5712 89.5509 44.9656C89.5674 45.3601 89.2058 45.6888 88.8278 45.6888C88.0389 45.6724 87.2336 45.6888 86.4447 45.771C86.3789 45.7819 86.3187 45.7874 86.2639 45.7874C86.2474 45.7874 86.0667 45.8203 86.1488 45.8038C86.231 45.7874 86.0995 45.8203 86.0831 45.8203C86.0283 45.8203 85.9735 45.8257 85.9187 45.8367C85.7106 45.8696 85.5024 45.9134 85.2942 45.9682C85.1189 46.012 84.9436 46.0668 84.7683 46.1325C84.7025 46.149 84.6697 46.1818 84.7518 46.1325C84.719 46.1435 84.6861 46.1599 84.6532 46.1819C84.5765 46.2257 84.4998 46.2695 84.4231 46.3133C84.0944 46.5106 83.6342 46.3791 83.437 46.0504V46.0504Z" fill="white"/>
<path d="M86.6255 41.8265C86.6091 41.4321 86.9707 41.1198 87.3322 41.1034C87.65 41.0924 87.9623 41.0705 88.2691 41.0376C88.2855 41.0376 88.4991 41.0048 88.3512 41.0212C88.4279 41.0102 88.5046 40.9993 88.5813 40.9883C88.7238 40.9664 88.8662 40.9445 89.0086 40.9226C89.6003 40.8021 90.1755 40.6322 90.7343 40.4131C91.1123 40.2816 91.5232 40.5774 91.6218 40.9226C91.7533 41.317 91.4739 41.6786 91.1288 41.8101C89.9126 42.2539 88.6306 42.5004 87.3322 42.5497C86.9378 42.5661 86.642 42.2045 86.6255 41.8265V41.8265Z" fill="white"/>
<path d="M174.324 6.83603C174.11 6.49089 174.241 6.06358 174.57 5.84992C175.293 5.37878 176.016 4.90764 176.74 4.4365C177.09 4.20641 177.446 3.97084 177.808 3.72979C178.169 3.4997 178.58 3.28604 179.024 3.41752C179.451 3.51613 179.714 3.86127 179.895 4.23928C180.07 4.61181 180.24 4.98434 180.405 5.35687C180.755 6.1348 181.106 6.91273 181.456 7.69066C181.621 8.05223 181.571 8.46311 181.21 8.67677C180.898 8.85756 180.372 8.77538 180.224 8.43024C179.917 7.75092 179.61 7.07708 179.303 6.40872C179.15 6.06906 178.997 5.73487 178.843 5.40617C178.778 5.24182 178.706 5.08295 178.63 4.92955C178.597 4.86381 178.547 4.79807 178.531 4.73233C178.498 4.67755 178.504 4.67755 178.547 4.73233C178.58 4.77616 178.63 4.79807 178.695 4.79807C178.86 4.88025 178.794 4.7652 178.712 4.86381C178.662 4.92955 178.564 4.96242 178.482 5.01173C178.339 5.11034 178.197 5.20347 178.054 5.29113C177.737 5.49931 177.424 5.702 177.118 5.89923C176.515 6.30463 175.912 6.70455 175.31 7.09899C174.981 7.31265 174.504 7.16473 174.324 6.83603V6.83603Z" fill="white"/>
<path d="M165.268 82.6022C166.468 79.0686 167.684 75.5515 169.032 72.0672C173.699 59.9545 179.846 47.8747 190.216 39.6571C190.216 39.9967 190.216 40.3364 190.216 40.6761C186.403 36.8302 182.919 32.6393 179.961 28.0867C176.97 23.4849 174.521 18.5872 172.253 13.5909C171.875 12.7527 173.124 12.0296 173.502 12.8678C175.721 17.7654 178.137 22.5974 181.062 27.1335C183.988 31.6696 187.439 35.8277 191.235 39.6571C191.482 39.92 191.548 40.446 191.235 40.6761C188.409 42.9277 185.845 45.4751 183.56 48.2691C175.326 58.311 170.79 70.8346 166.648 82.9802C166.353 83.8513 164.956 83.4733 165.268 82.6022V82.6022Z" fill="white"/>
<path d="M162.145 1.11661C163.246 4.2886 164.577 7.36197 166.09 10.3696C171.464 21.0196 178.925 30.5191 186.995 39.2626C187.62 39.9365 186.601 40.9555 185.976 40.2816C183.642 37.7506 181.374 35.1703 179.188 32.5078C171.53 23.2055 164.742 12.9499 160.748 1.49462C160.452 0.623551 161.833 0.245544 162.145 1.11661V1.11661Z" fill="white"/>
<path d="M149.753 29.3851C151.988 24.849 154.552 20.4772 157.708 16.4999C158.004 16.1383 158.513 16.6478 158.217 17.0094C155.111 20.921 152.58 25.2763 150.378 29.7467C150.18 30.1575 149.556 29.796 149.753 29.3851Z" fill="white"/>
<path d="M144.888 42.0237C145.743 38.7367 146.943 35.5647 148.323 32.4585C148.504 32.0476 149.129 32.4092 148.931 32.8365C147.6 35.877 146.433 38.9997 145.579 42.2045C145.464 42.6647 144.773 42.4675 144.888 42.0237Z" fill="white"/>
<path d="M159.483 26.361C159.318 26.2788 159.236 26.0323 159.351 25.868C160.085 24.7832 160.852 23.7149 161.652 22.6631C161.767 22.5152 161.964 22.433 162.145 22.5316C162.31 22.6302 162.392 22.8768 162.277 23.0247C161.477 24.0765 160.71 25.1503 159.976 26.246C159.861 26.3939 159.647 26.4761 159.483 26.361Z" fill="white"/>
<path d="M148.948 47.6446C151.019 41.6129 153.435 35.6962 156.64 30.174C156.87 29.7796 157.494 30.1411 157.264 30.5356C154.092 36.0085 151.693 41.8594 149.638 47.8254C149.49 48.2691 148.783 48.0719 148.948 47.6446V47.6446Z" fill="white"/>
<path d="M160.452 36.1071C161.833 33.7733 163.345 31.5217 165.021 29.4015C165.301 29.04 165.81 29.5495 165.531 29.911C163.887 31.9819 162.425 34.2006 161.077 36.4687C160.847 36.8796 160.222 36.518 160.452 36.1071Z" fill="white"/>
<path d="M152.005 54.1693C153.911 49.3374 155.949 44.5383 158.349 39.92C158.562 39.5092 159.187 39.8707 158.973 40.2816C156.607 44.8506 154.585 49.5839 152.695 54.3666C152.531 54.7939 151.84 54.5966 152.005 54.1693V54.1693Z" fill="white"/>
<path d="M158.004 53.7092C158.743 52.2136 159.499 50.718 160.288 49.2388C163.082 44.0124 166.27 38.9832 170.116 34.48C170.429 34.1184 170.922 34.6444 170.626 34.9895C169.519 36.2824 168.467 37.6136 167.47 38.9832C164.035 43.7166 161.192 48.8443 158.628 54.0872C158.414 54.498 157.806 54.1365 158.004 53.7092Z" fill="white"/>
<path d="M155.078 60.842C154.881 60.7434 154.864 60.5133 154.947 60.349C155.286 59.571 155.631 58.7986 155.982 58.0316C156.064 57.8508 156.311 57.8179 156.475 57.9001C156.656 57.9987 156.672 58.2124 156.59 58.3932C156.25 59.1601 155.911 59.9326 155.571 60.7105C155.489 60.8913 155.226 60.9242 155.078 60.842Z" fill="white"/>
<path d="M166.402 52.4436C168.013 49.699 169.689 46.9872 171.513 44.3904C171.776 44.0124 172.401 44.374 172.138 44.752C170.313 47.3652 168.637 50.0605 167.026 52.8052C166.796 53.2161 166.172 52.8545 166.402 52.4436Z" fill="white"/>
<path d="M158.283 68.6652C160.058 63.9647 162.408 59.5108 164.873 55.139C165.104 54.7281 165.712 55.0897 165.498 55.5006C163.066 59.823 160.732 64.2112 158.973 68.8624C158.809 69.2897 158.119 69.0925 158.283 68.6652V68.6652Z" fill="white"/>
<path d="M116.62 40.6925C123.177 40.068 129.867 40.6268 136.178 42.6319C136.605 42.7798 136.424 43.4701 135.98 43.3386C129.735 41.3499 123.128 40.7911 116.62 41.4157C116.143 41.465 116.16 40.7418 116.62 40.6925V40.6925Z" fill="white"/>
<path d="M103.143 43.5851C105.986 42.6647 108.912 41.9087 111.87 41.3663C112.314 41.2842 112.511 41.9744 112.051 42.0566C109.092 42.599 106.183 43.355 103.324 44.2918C102.88 44.4233 102.699 43.733 103.143 43.5851V43.5851Z" fill="white"/>
<path d="M107.531 49.0087C109.733 48.5814 111.936 48.154 114.155 47.7925C121.813 46.527 129.817 45.9353 137.279 48.4499C137.723 48.5978 137.525 49.2881 137.082 49.1402C135.027 48.4499 132.891 47.9733 130.721 47.7103C123.013 46.7571 115.256 48.2362 107.712 49.699C107.268 49.7976 107.071 49.0908 107.531 49.0087V49.0087Z" fill="white"/>
<path d="M124.969 53.3147C129.899 53.0353 134.846 53.1832 139.744 53.742C140.204 53.7913 140.204 54.5145 139.744 54.4652C134.846 53.9064 129.899 53.7585 124.969 54.0379C124.509 54.0707 124.509 53.3476 124.969 53.3147Z" fill="white"/>
<path d="M110.473 55.3691C113.694 54.6624 116.932 54.12 120.219 53.742C120.679 53.6763 120.663 54.3994 120.219 54.4487C116.998 54.8267 113.809 55.3855 110.654 56.0594C110.21 56.158 110.013 55.4677 110.473 55.3691V55.3691Z" fill="white"/>
<path d="M140.352 60.5626C140.352 60.3819 140.517 60.1846 140.714 60.2011C141.744 60.2558 142.768 60.3271 143.787 60.4147C143.984 60.4312 144.149 60.5626 144.149 60.7763C144.149 60.9571 143.984 61.1543 143.787 61.1379C142.768 61.0502 141.744 60.979 140.714 60.9242C140.517 60.9078 140.352 60.7599 140.352 60.5626Z" fill="white"/>
<path d="M114.352 62.5184C115.919 62.0472 117.502 61.6473 119.101 61.3186C124.739 60.1846 130.507 59.9052 136.227 60.0202C136.687 60.0367 136.687 60.7598 136.227 60.7434C134.616 60.7105 133.022 60.7105 131.411 60.7434C125.708 60.8913 120.005 61.5651 114.532 63.2251C114.089 63.3566 113.908 62.6499 114.352 62.5184V62.5184Z" fill="white"/>
<path d="M126.316 66.9888C132.677 66.2163 139.119 66.0684 145.529 66.5615C145.989 66.5943 145.989 67.3175 145.529 67.2846C139.119 66.7916 132.677 66.9395 126.316 67.7119C125.856 67.7612 125.856 67.0381 126.316 66.9888Z" fill="white"/>
<path d="M116.735 68.6652C118.302 68.3036 119.874 67.9858 121.452 67.7119C121.912 67.6297 122.093 68.32 121.649 68.4022C120.06 68.6871 118.482 69.0048 116.916 69.3554C116.472 69.4541 116.275 68.7638 116.735 68.6652V68.6652Z" fill="white"/>
<path d="M140.04 73.2505C143.524 73.2012 147.025 73.2834 150.509 73.382C150.969 73.3985 150.969 74.1216 150.509 74.1052C147.025 74.0066 143.524 73.908 140.04 73.9737C139.563 73.9901 139.563 73.267 140.04 73.2505Z" fill="white"/>
<path d="M119.151 76.932C124.344 74.7955 129.916 73.8258 135.487 73.4478C135.948 73.4149 135.948 74.1381 135.487 74.1709C129.965 74.5489 124.476 75.5186 119.332 77.6223C118.904 77.8031 118.723 77.0964 119.151 76.932V76.932Z" fill="white"/>
<path d="M156.705 94.6163C157.083 94.7149 157.313 95.1423 157.198 95.5038C157.154 95.6791 157.116 95.8544 157.083 96.0298C157.067 96.1612 157.116 95.849 157.1 95.964C157.1 95.9969 157.094 96.0298 157.083 96.0626C157.083 96.1393 157.083 96.216 157.083 96.2927C157.083 96.3584 157.083 96.4187 157.083 96.4735C157.083 96.5228 157.1 96.5557 157.1 96.5885C157.083 96.3584 157.067 96.4406 157.083 96.5064C157.116 96.6214 157.132 96.7365 157.182 96.8515C157.198 96.9172 157.264 97.0159 157.149 96.8022C157.16 96.8241 157.171 96.846 157.182 96.8679C157.204 96.9008 157.226 96.9392 157.247 96.983C157.269 97.0159 157.291 97.0487 157.313 97.0816C157.412 97.2459 157.198 96.9665 157.297 97.0652C157.352 97.1309 157.417 97.1966 157.494 97.2624C157.593 97.361 157.313 97.1309 157.461 97.2295C157.494 97.2514 157.527 97.2733 157.56 97.2953C157.593 97.3172 157.636 97.3391 157.691 97.361C157.806 97.4267 157.478 97.2788 157.642 97.3446C157.719 97.3665 157.795 97.3884 157.872 97.4103C157.894 97.4103 157.921 97.4158 157.954 97.4267C157.691 97.3774 157.757 97.3939 157.823 97.4103C157.867 97.4103 157.905 97.4103 157.938 97.4103C158.02 97.4103 158.102 97.4103 158.168 97.3939C157.872 97.4267 158.053 97.4103 158.135 97.3939C158.179 97.3829 158.223 97.3719 158.266 97.361C158.299 97.35 158.327 97.3391 158.349 97.3281C158.102 97.4103 158.25 97.3774 158.316 97.3446C158.36 97.3226 158.398 97.3007 158.431 97.2788C158.497 97.2295 158.595 97.1309 158.398 97.3117C158.464 97.2459 158.529 97.1966 158.579 97.1309C158.59 97.109 158.606 97.0871 158.628 97.0652C158.464 97.2459 158.529 97.1966 158.562 97.1473C158.595 97.1145 158.623 97.0761 158.644 97.0323C158.666 96.9994 158.683 96.9666 158.694 96.9337C158.727 96.8679 158.743 96.7858 158.661 97.0159C158.672 96.983 158.683 96.9556 158.694 96.9337C158.727 96.8351 158.754 96.7365 158.776 96.6379C158.776 96.605 158.781 96.5776 158.792 96.5557C158.727 96.7858 158.776 96.7036 158.776 96.6379C158.787 96.5721 158.792 96.5118 158.792 96.4571C158.809 96.0462 159.105 95.7504 159.516 95.7339C159.894 95.7175 160.239 96.0791 160.222 96.4571C160.206 97.1145 159.992 97.7719 159.516 98.232C158.776 98.9388 157.576 99.0538 156.722 98.4786C156.245 98.1499 155.916 97.6733 155.752 97.1145C155.555 96.4735 155.637 95.7668 155.818 95.1258C155.933 94.7314 156.311 94.5342 156.705 94.6163V94.6163Z" fill="white"/>
<path d="M173.929 88.9297C174.11 88.5846 174.57 88.486 174.915 88.6668C175.058 88.7544 175.211 88.8311 175.375 88.8969C175.321 88.875 175.266 88.853 175.211 88.8311C175.458 88.9297 175.721 89.0119 176 89.0612C175.934 89.0503 175.874 89.0393 175.819 89.0283C175.984 89.0503 176.148 89.0503 176.312 89.0283C176.247 89.0393 176.181 89.0503 176.115 89.0612C176.225 89.0393 176.334 89.0119 176.444 88.979C176.378 89.001 176.318 89.0229 176.263 89.0448C176.34 89.0119 176.411 88.9736 176.477 88.9297C176.422 88.9626 176.373 89.001 176.329 89.0448C176.383 89.001 176.433 88.9516 176.477 88.8969C176.444 88.9407 176.405 88.9845 176.362 89.0283C176.416 88.9736 176.455 88.9133 176.477 88.8476C176.455 88.9023 176.433 88.9571 176.411 89.0119C176.444 88.9352 176.466 88.8585 176.477 88.7818C176.466 88.8476 176.455 88.9133 176.444 88.979C176.455 88.8695 176.455 88.7654 176.444 88.6668C176.455 88.7325 176.46 88.7983 176.46 88.864C176.438 88.7216 176.4 88.5846 176.345 88.4531C176.367 88.5079 176.394 88.5627 176.427 88.6175C176.329 88.4367 176.214 88.2395 176.099 88.0751C176.131 88.1299 176.164 88.1792 176.197 88.223C176.088 88.0806 175.967 87.9436 175.836 87.8122C175.54 87.5328 175.573 87.0726 175.836 86.7932C176.099 86.4973 176.575 86.5302 176.855 86.7932C177.249 87.1876 177.594 87.6478 177.775 88.1737C178.054 88.9462 177.808 89.8994 177.035 90.2774C176.099 90.7212 175.047 90.3925 174.176 89.9158C173.831 89.7186 173.748 89.2584 173.929 88.9297V88.9297Z" fill="white"/>
<path d="M53.0687 148.249C49.5467 147.87 46.0311 147.472 42.5218 147.056C28.4908 145.408 14.4977 143.458 0.523505 141.432C-2.39251 141.016 -5.38426 140.372 -8.35708 140.334C-11.1027 140.315 -13.337 141.224 -14.6814 143.704C-15.9312 146.033 -16.3099 148.817 -16.3288 151.43C-16.3477 153.816 -16.1394 156.429 -15.0601 158.606C-13.1666 162.393 -8.54643 162.583 -4.85407 163.132C2.43598 164.211 9.74496 165.29 17.035 166.37C24.2809 167.443 31.5267 168.516 38.7726 169.589C42.4081 170.132 46.0374 170.668 49.6603 171.198C52.103 171.558 54.5835 171.823 56.9883 172.429C58.8818 172.902 60.7753 173.433 62.7067 173.698C63.2179 173.773 64.0132 173.925 64.2404 173.641C64.7138 173.035 64.7706 171.596 64.4487 170.933C64.1836 170.403 63.5966 170.479 63.0475 170.384C62.3911 170.27 61.7347 170.163 61.0782 170.062C59.6518 169.835 58.219 169.614 56.78 169.399C53.7314 168.964 50.6828 168.585 47.6343 168.206C41.5561 167.43 35.4779 166.73 29.3997 165.84C26.5973 165.423 23.8138 164.874 20.9925 164.476C18.0196 164.06 14.99 163.87 12.0172 163.435C9.44199 163.056 6.88573 162.545 4.29161 162.185C1.62175 161.806 -1.08599 161.447 -3.73691 160.879C-5.89552 160.424 -8.33816 159.894 -10.1938 158.606C-11.9737 157.357 -12.9962 155.368 -13.1098 153.191C-13.2234 150.881 -12.3145 148.571 -10.8565 146.81C-9.20918 144.803 -6.86121 144.159 -4.34283 144.348C-1.46468 144.556 1.35665 145.333 4.21587 145.692C7.71257 146.134 11.203 146.601 14.687 147.094C27.563 148.93 40.3821 151.165 53.258 153.134C56.4581 153.626 59.696 154.27 62.9339 154.554C64.4298 154.687 65.5091 154.194 65.9824 152.755C66.2475 151.96 66.399 150.616 65.6984 149.972C65.2061 149.517 64.2404 149.442 63.6155 149.328C62.4984 149.158 61.3433 149.063 60.2072 148.968C58.0107 148.779 55.7575 148.665 53.6178 148.116C52.5763 147.851 53.0308 146.261 54.0533 146.526C56.2877 147.094 58.6167 147.151 60.8889 147.359C62.6499 147.51 64.9978 147.491 66.5316 148.533C68.2736 149.688 68.0653 152.433 67.2322 154.081C65.7742 156.921 62.6309 156.183 60.0179 155.823C56.7231 155.343 53.4284 154.845 50.1337 154.327C36.5193 152.206 22.9617 149.839 9.30944 148.022C5.95791 147.567 2.60638 147.245 -0.707282 146.582C-3.3014 146.071 -6.70972 145.2 -8.92514 147.169C-10.705 148.76 -11.7843 151.43 -11.3867 153.816C-10.9512 156.391 -8.96301 157.66 -6.65291 158.417C-1.61615 160.045 3.76143 160.292 8.93074 161.219C12.074 161.768 15.1983 162.166 18.3605 162.507C21.3712 162.829 24.325 163.378 27.3168 163.851C39.6247 165.783 52.103 166.748 64.373 168.926C66.5126 169.324 66.5505 172.353 65.9067 173.963C65.2251 175.705 63.6534 175.534 62.0818 175.269C60.0558 174.966 58.0865 174.398 56.0983 173.906C53.3906 173.243 50.5692 172.997 47.8047 172.599C32.6818 170.352 17.5589 168.112 2.43598 165.877C-0.915551 165.385 -4.2671 164.912 -7.61863 164.4C-9.56895 164.098 -11.595 163.738 -13.337 162.753C-17.4838 160.443 -18.1466 154.971 -17.9762 150.691C-17.7868 145.674 -16.0448 139.614 -10.3263 138.8C-7.69435 138.421 -5.0245 138.971 -2.43038 139.349C1.28092 139.879 4.99853 140.41 8.72245 140.94C23.473 143.042 38.2424 145.011 53.0687 146.582C54.129 146.696 54.129 148.362 53.0687 148.249V148.249Z" fill="white"/>
<path d="M64.9032 155.236C66.418 157.357 66.1908 160.273 64.5813 162.261C64.6192 161.933 64.6634 161.598 64.7138 161.257C66.2097 163.7 65.9257 166.862 64.089 169.04C63.4073 169.873 62.2334 168.68 62.9151 167.866C64.2784 166.256 64.3731 163.87 63.2748 162.09C63.0666 161.768 63.1802 161.371 63.4074 161.087C64.5813 159.648 64.5245 157.546 63.4642 156.069C62.8393 155.198 64.2784 154.365 64.9032 155.236V155.236Z" fill="white"/>
<path d="M54.1479 161.503C57.2154 161.832 60.2892 162.16 63.3693 162.488C63.8995 162.545 63.8995 163.378 63.3693 163.321C60.2892 162.993 57.2154 162.665 54.1479 162.337C53.6177 162.28 53.6177 161.447 54.1479 161.503V161.503Z" fill="white"/>
<path d="M57.7078 159.932C59.7907 160.348 61.9304 160.481 64.0701 160.292C64.6002 160.254 64.6002 161.087 64.0701 161.125C61.8546 161.314 59.6392 161.163 57.4806 160.727C56.9504 160.613 57.1776 159.818 57.7078 159.932V159.932Z" fill="white"/>
<path d="M-11.5382 154.232C-7.03163 154.863 -2.53136 155.495 1.96258 156.126C2.49276 156.202 2.26553 156.997 1.73534 156.921C-2.7586 156.29 -7.25253 155.659 -11.7465 155.028C-12.2767 154.952 -12.0494 154.157 -11.5382 154.232V154.232Z" fill="white"/>
<path d="M57.1965 96.5746C53.6872 96.1959 50.1716 95.7983 46.6496 95.3817C32.6944 93.7343 18.777 91.803 4.85964 89.7958C1.92468 89.3603 -1.08601 88.7165 -4.07777 88.6597C-6.7287 88.6218 -8.94412 89.3982 -10.3832 91.7272C-11.7087 93.8858 -12.4471 96.3853 -12.9205 98.8468C-13.375 101.176 -13.6022 103.694 -12.9962 106.023C-12.5039 107.993 -11.3868 109.545 -9.43644 110.227C-7.48611 110.928 -5.34643 110.965 -3.32036 111.155C-0.214986 111.439 2.89038 111.988 5.97682 112.442C9.61238 112.985 13.2416 113.522 16.8646 114.052C24.1104 115.125 31.3563 116.198 38.6022 117.271C42.1872 117.801 45.7786 118.337 49.3763 118.88C52.69 119.373 56.3066 120.016 59.4877 120.357C61.2487 120.547 63.0475 120.566 64.8274 120.566C65.7363 120.547 66.6642 120.547 67.573 120.433C68.16 120.357 69.5423 119.846 68.5766 119.032C68.1411 118.653 66.9861 118.672 66.4369 118.577C65.8184 118.476 65.2062 118.382 64.6002 118.293C63.1485 118.066 61.6968 117.851 60.2451 117.649C57.1966 117.214 54.129 116.816 51.0805 116.438C45.0591 115.699 39.0566 114.98 33.0542 114.09C30.2139 113.673 27.3736 113.086 24.4955 112.726C21.5416 112.348 18.5498 112.139 15.5959 111.666C13.0586 111.268 10.5402 110.795 8.00288 110.454C5.31408 110.075 2.6253 109.716 -0.0256285 109.129C-2.18424 108.655 -4.58901 108.087 -6.36892 106.705C-8.07309 105.379 -8.98199 103.297 -8.98199 101.138C-8.98199 98.8658 -8.03522 96.6314 -6.55827 94.9273C-4.83517 92.9769 -2.41147 92.4657 0.106909 92.6929C3.00399 92.9769 5.8632 93.7154 8.76029 94.0752C12.1812 94.5044 15.5959 94.9651 19.0042 95.4574C31.8991 97.2942 44.6993 99.5285 57.5563 101.498C60.7564 101.99 64.0132 102.691 67.2512 102.899C68.6713 102.994 69.6559 102.445 70.1103 101.081C70.3754 100.305 70.5458 98.9226 69.8263 98.2788C69.334 97.8433 68.3873 97.7675 67.7624 97.6729C66.6263 97.4835 65.4902 97.3888 64.3541 97.2942C62.1576 97.1048 59.9043 96.9912 57.7457 96.4421C56.7232 96.177 57.1587 94.5864 58.2001 94.8515C60.4155 95.4196 62.7446 95.4764 65.0168 95.6847C66.7778 95.8551 69.1447 95.8361 70.6595 96.8586C72.4015 98.0137 72.1932 100.759 71.3601 102.407C69.921 105.19 66.9103 104.546 64.3351 104.168C60.9773 103.688 57.6194 103.183 54.2616 102.653C40.8176 100.551 27.4115 98.222 13.9107 96.4042C10.5213 95.9498 7.09399 95.6468 3.74246 94.9841C1.18621 94.4728 -2.18426 93.5261 -4.49436 95.2492C-6.44468 96.7072 -7.56185 99.5096 -7.27782 101.895C-6.97486 104.433 -5.13813 105.834 -2.86591 106.629C2.13298 108.352 7.54844 108.598 12.7177 109.469C15.8042 110 18.8906 110.454 21.996 110.776C25.0256 111.098 27.9985 111.628 30.9902 112.101C43.2602 114.071 55.6817 115.036 67.9328 117.157C69.1446 117.365 70.1861 117.801 70.4322 119.164C70.6216 120.168 70.1103 121.209 69.2204 121.702C68.5955 122.042 67.8002 122.08 67.1186 122.137C66.0771 122.213 65.0357 122.232 63.9943 122.213C58.5031 122.175 53.1255 121.096 47.71 120.3C32.5618 118.053 17.4137 115.806 2.26553 113.559C-0.517948 113.162 -3.28249 112.859 -6.06596 112.575C-7.99735 112.367 -10.0424 112.064 -11.6708 110.965C-15.6661 108.239 -15.3063 102.407 -14.4921 98.2599C-13.9998 95.7604 -13.2045 93.2042 -11.8791 90.9887C-10.5536 88.7923 -8.64115 87.4479 -6.06596 87.107C-3.41504 86.7662 -0.72624 87.3153 1.90575 87.694C5.55394 88.2242 9.20213 88.7481 12.8503 89.2656C27.6008 91.3674 42.3892 93.3367 57.1965 94.9083C58.2569 95.0219 58.2569 96.6882 57.1965 96.5746V96.5746Z" fill="white"/>
<path d="M69.031 103.562C70.5458 105.682 70.3375 108.598 68.7091 110.587C68.7596 110.258 68.8038 109.924 68.8416 109.583C70.3564 112.026 70.0535 115.188 68.2357 117.384C67.5351 118.199 66.3801 117.006 67.0617 116.191C68.4061 114.582 68.5008 112.196 67.4215 110.416C67.2132 110.094 67.3079 109.697 67.5351 109.413C68.7091 107.974 68.6523 105.872 67.6108 104.395C66.986 103.524 68.4251 102.691 69.031 103.562V103.562Z" fill="white"/>
<path d="M58.2758 109.829C61.3559 110.157 64.4297 110.486 67.4972 110.814C68.0274 110.871 68.0274 111.704 67.4972 111.647C64.4297 111.319 61.3559 110.991 58.2758 110.662C57.7456 110.606 57.7456 109.772 58.2758 109.829Z" fill="white"/>
<path d="M61.8356 108.258C63.9374 108.674 66.0771 108.807 68.1978 108.636C68.728 108.58 68.728 109.413 68.1978 109.451C66.0014 109.64 63.7859 109.488 61.6084 109.053C61.0971 108.939 61.3054 108.144 61.8356 108.258V108.258Z" fill="white"/>
<path d="M-7.39154 102.558C-2.89756 103.189 1.6027 103.82 6.1093 104.452C6.62055 104.527 6.41227 105.323 5.88208 105.247C1.38811 104.616 -3.11218 103.985 -7.61877 103.353C-8.14896 103.278 -7.92172 102.482 -7.39154 102.558Z" fill="white"/>
<path d="M61.6653 122.08C57.8025 121.828 53.9461 121.525 50.0959 121.171C34.9288 119.808 19.8753 117.612 4.82182 115.358C1.47029 114.866 -1.91911 114.184 -5.30851 113.957C-8.09199 113.749 -11.2542 113.976 -13.1666 116.267C-15.0412 118.521 -15.685 121.74 -15.8554 124.599C-16.0448 127.458 -15.8365 130.469 -14.9276 133.214C-14.2459 135.278 -13.0341 137.001 -11.0648 137.986C-9.03875 138.971 -6.6908 139.198 -4.49431 139.463C3.38273 140.41 11.2409 141.356 19.099 142.322C27.2285 143.307 35.3517 144.291 43.4686 145.276C47.5333 145.768 51.5918 146.261 55.6439 146.753C59.0523 147.169 62.5553 147.378 65.9257 148.04C67.9897 148.438 70.0158 148.968 72.0797 149.347C73.0075 149.517 73.9921 149.707 74.9578 149.669C75.6774 149.631 75.8099 149.063 75.9046 148.287C75.9803 147.719 75.9614 147.094 75.8099 146.545C75.6395 145.995 75.507 145.844 74.9578 145.768C73.4051 145.579 71.8525 145.333 70.2808 145.124C66.9672 144.708 63.6346 144.348 60.3209 144.007C53.3906 143.307 46.4603 142.682 39.53 141.924C36.3868 141.565 33.2625 141.186 30.1382 140.732C26.8245 140.239 23.5109 139.974 20.1783 139.69C16.9972 139.425 13.8539 138.876 10.6917 138.497C7.81358 138.137 4.93544 137.853 2.05729 137.456C-2.58184 136.831 -9.30386 136.225 -11.4057 131.245C-13.3371 126.663 -10.6861 119.997 -5.64936 118.786C-2.7712 118.104 0.277373 118.861 3.11765 119.335C6.9047 119.96 10.7675 120.168 14.5735 120.584C29.2293 122.194 43.8094 124.315 58.4274 126.227C61.9746 126.682 65.5218 127.123 69.069 127.553C70.7921 127.761 72.7235 128.234 74.4655 128.045C75.9992 127.893 76.8135 126.719 77.0596 125.299C77.2679 124.087 77.0407 122.648 75.7341 122.194C74.3897 121.739 72.7613 122.194 71.379 122.308C68.1979 122.592 64.8464 122.364 61.6653 122.08C60.6239 121.986 60.605 120.319 61.6653 120.414C63.5399 120.584 65.3955 120.66 67.2701 120.679C68.6713 120.679 70.1104 120.774 71.5305 120.641C74.03 120.395 77.4005 119.808 78.4987 122.8C79.294 124.977 78.4609 128.102 76.3401 129.219C74.7496 130.033 72.9318 129.673 71.2655 129.465C69.3846 129.25 67.5037 129.03 65.6228 128.802C61.9115 128.348 58.2002 127.856 54.5078 127.363C39.0756 125.318 23.6813 123.122 8.19227 121.569C6.39343 121.399 4.61354 121.247 2.83363 120.944C1.22413 120.698 -0.385354 120.357 -2.01378 120.244C-3.47179 120.13 -5.04343 120.149 -6.40676 120.812C-7.73223 121.455 -8.67898 122.686 -9.36065 123.974C-10.5725 126.265 -10.8565 129.219 -9.41747 131.472C-7.97839 133.763 -5.04342 134.445 -2.56291 134.994C3.26914 136.282 9.30947 136.642 15.2173 137.494C18.796 138.024 22.4126 138.137 26.0293 138.516C29.3808 138.857 32.7323 139.444 36.0838 139.86C43.1656 140.713 50.2663 141.356 57.367 142.057C60.87 142.398 64.373 142.758 67.876 143.174C69.4792 143.364 71.0824 143.565 72.6856 143.78C73.4935 143.894 74.3014 144.007 75.1093 144.121C75.6963 144.216 76.2075 144.253 76.643 144.689C78.0064 146.033 77.9685 149.252 76.7188 150.635C75.5448 151.941 72.9886 151.184 71.5305 150.919C69.4287 150.54 67.3837 149.972 65.3009 149.593C63.7861 149.328 61.7979 149.158 60.0937 148.949C58.0108 148.697 55.9216 148.444 53.8261 148.192C36.9233 146.147 20.0205 144.096 3.11765 142.038C-0.233877 141.64 -3.60434 141.3 -6.93694 140.788C-9.07661 140.466 -11.2731 139.993 -13.0719 138.705C-17.427 135.6 -17.9004 128.859 -17.4839 123.993C-17.2188 121.096 -16.5371 118.085 -14.814 115.699C-13.0909 113.332 -10.421 112.386 -7.58074 112.253C-4.39962 112.101 -1.18065 112.802 1.94366 113.257C5.92005 113.862 9.91539 114.449 13.9107 115.036C29.7595 117.365 45.6651 119.373 61.6653 120.414C62.7446 120.49 62.7446 122.156 61.6653 122.08V122.08Z" fill="white"/>
<path d="M75.6017 128.727C77.2491 130.923 77.2302 134.161 75.5639 136.339C75.5639 136.061 75.5639 135.783 75.5639 135.505C77.3059 138.175 77.0408 141.697 75.0905 144.159C74.4277 144.992 73.2538 143.818 73.9165 142.985C75.4124 141.091 75.4313 138.346 74.1248 136.339C73.9922 136.13 73.9543 135.733 74.1248 135.505C75.4881 133.744 75.5071 131.34 74.1627 129.56C73.5189 128.708 74.9579 127.874 75.6017 128.727V128.727Z" fill="white"/>
<path d="M63.7673 136.073C67.2387 136.351 70.7102 136.629 74.1816 136.907C74.7118 136.963 74.7118 137.778 74.1816 137.74C70.7102 137.462 67.2387 137.184 63.7673 136.907C63.2371 136.869 63.2371 136.036 63.7673 136.073Z" fill="white"/>
<path d="M66.0773 132.703C69.107 133.252 72.1556 133.782 75.242 134.028C75.7722 134.085 75.7722 134.918 75.242 134.862C72.0798 134.597 68.9744 134.066 65.8501 133.498C65.3199 133.404 65.5471 132.608 66.0773 132.703V132.703Z" fill="white"/>
<path d="M-10.4398 129.806C-5.35253 130.387 -0.271598 130.967 4.80302 131.548C5.3332 131.605 5.3332 132.438 4.80302 132.381C-0.271598 131.8 -5.35253 131.22 -10.4398 130.639C-10.9699 130.582 -10.9699 129.749 -10.4398 129.806Z" fill="white"/>
<path d="M-10.0612 125.489C-5.93335 125.956 -1.80549 126.423 2.32239 126.89C2.83364 126.947 2.85257 127.78 2.32239 127.723C-1.80549 127.256 -5.93335 126.789 -10.0612 126.322C-10.5914 126.265 -10.5914 125.432 -10.0612 125.489Z" fill="white"/>
<path d="M216.626 109.855C216.615 110.903 216.604 111.95 216.593 112.998C216.561 123.446 216.82 133.894 217.063 144.343C217.258 152.199 217.598 160.04 217.614 167.88C217.614 168.447 217.711 169.16 217.533 169.694C217.209 170.796 215.087 171.217 214.147 171.428C210.13 172.335 205.546 172.335 201.528 171.363C200.168 171.039 198.418 170.504 197.64 169.225C197.203 168.528 197.268 167.637 197.203 166.843C197.117 165.58 197.036 164.316 196.96 163.053C196.571 157.173 196.296 151.292 196.037 145.412C195.535 133.457 195.146 121.502 195 109.547C195 108.624 196.409 108.624 196.426 109.547C196.436 110.735 196.453 111.923 196.474 113.111C196.669 124.953 197.073 136.794 197.608 148.619C197.851 154.16 198.143 159.683 198.515 165.207C198.58 166.147 198.499 167.427 198.758 168.253C198.872 168.674 199.309 168.982 199.714 169.208C201.22 170.051 203.116 170.31 204.8 170.472C208.413 170.812 212.706 170.877 216.043 169.257C216.334 169.111 216.48 168.965 216.172 169.322C216.107 169.387 216.156 169.484 216.172 169.273C216.183 168.992 216.188 168.712 216.188 168.431C216.188 167.362 216.172 166.309 216.156 165.256C216.01 156.606 215.735 147.971 215.524 139.321C215.297 129.505 215.071 119.688 215.2 109.855C215.216 108.948 216.642 108.948 216.626 109.855V109.855Z" fill="white"/>
<path d="M196.118 109.709C197.025 109.709 197.025 108.284 196.118 108.284C195.194 108.284 195.194 109.709 196.118 109.709Z" fill="white"/>
<path d="M195.664 108.251C203.683 102.695 212.058 97.6572 220.724 93.1538C221.534 92.7326 222.247 93.9638 221.437 94.3849C212.77 98.8721 204.395 103.926 196.377 109.466C195.616 110.001 194.919 108.77 195.664 108.251V108.251Z" fill="white"/>
<path d="M215.557 108.559C221.81 104.104 228.354 100.038 234.218 95.0815C234.915 94.4983 235.935 95.4865 235.222 96.0858C229.261 101.124 222.636 105.271 216.269 109.774C215.524 110.309 214.812 109.077 215.557 108.559V108.559Z" fill="white"/>
<path d="M231.497 169.694C231.254 170.926 229.763 171.46 228.694 171.736C226.993 172.157 225.195 172.254 223.462 172.157C222.069 172.076 220.611 171.914 219.331 171.331C218.829 171.104 218.197 170.78 218.051 170.229C217.922 169.646 218.003 168.917 218.003 168.334C217.981 167.718 217.965 167.108 217.954 166.503C217.841 161.158 217.825 155.812 217.857 150.466C217.938 139.548 218.213 128.646 218.44 117.744C218.472 116.821 219.882 116.821 219.866 117.744C219.785 121.518 219.704 125.293 219.623 129.067C219.315 142.739 219.056 156.444 219.461 170.132C219.396 169.959 219.331 169.792 219.266 169.63C219.866 170.213 220.854 170.391 221.647 170.537C222.814 170.747 224.013 170.796 225.195 170.764C226.345 170.715 227.512 170.602 228.613 170.278C229.115 170.132 230.022 169.873 230.136 169.322C230.314 168.415 231.675 168.804 231.497 169.694V169.694Z" fill="white"/>
<path d="M219.801 116.561C221.388 117.177 223.122 117.55 224.806 117.728C226.41 117.906 228.483 118.1 229.909 117.161C230.67 116.642 231.383 117.874 230.622 118.376C229.018 119.445 226.783 119.364 224.952 119.17C223.073 118.975 221.178 118.603 219.412 117.938C218.57 117.614 218.942 116.237 219.801 116.561V116.561Z" fill="white"/>
<path d="M233.343 110.633C235.238 111.961 237.976 112.074 240.195 112.026C241.394 112.01 242.593 111.896 243.759 111.637C244.164 111.54 244.569 111.426 244.958 111.264C245.12 111.183 245.298 111.102 245.444 110.989C245.428 111.005 245.671 110.762 245.606 110.859C246.124 110.114 247.355 110.827 246.837 111.572C246.302 112.35 245.347 112.674 244.488 112.917C243.208 113.257 241.848 113.386 240.519 113.435C237.96 113.532 234.785 113.386 232.63 111.848C231.885 111.329 232.598 110.098 233.343 110.633V110.633Z" fill="white"/>
<path d="M233.392 110.892C232.938 122.166 232.193 133.409 231.837 144.683C231.691 149.672 231.594 154.678 231.642 159.683C231.675 162.227 231.739 164.754 231.853 167.297C231.869 167.913 231.901 168.528 231.934 169.16C231.95 169.435 231.934 169.468 231.999 169.597C232.112 169.808 232.339 169.97 232.582 170.116C234.477 171.217 237.247 171.169 239.369 171.136C241.508 171.088 244.051 171.007 246.027 170.067C246.27 169.954 246.61 169.727 246.659 169.662C246.756 169.5 246.626 169.775 246.675 169.613C246.697 169.527 246.697 169.532 246.675 169.63C246.675 169.522 246.68 169.408 246.691 169.289C246.675 168.69 246.707 168.075 246.707 167.459C246.729 164.813 246.734 162.173 246.724 159.538C246.724 154.305 246.659 149.057 246.578 143.824C246.448 133.23 246.286 122.62 246.513 112.026C246.529 111.119 247.955 111.119 247.939 112.026C247.663 124.45 247.939 136.875 248.068 149.3C248.133 154.856 248.182 160.396 248.133 165.952C248.133 166.73 248.128 167.513 248.117 168.301C248.117 168.803 248.182 169.37 248.068 169.873C248.003 170.197 247.858 170.456 247.615 170.699C247.015 171.314 246.076 171.606 245.266 171.833C242.706 172.529 239.936 172.659 237.296 172.513C235.368 172.416 232.485 172.27 231.075 170.715C230.768 170.391 230.589 169.986 230.541 169.532C230.411 168.496 230.427 167.41 230.379 166.357C230.282 163.701 230.233 161.06 230.217 158.404C230.184 153.058 230.314 147.712 230.492 142.367C230.881 131.87 231.545 121.389 231.966 110.892C231.999 109.985 233.424 109.985 233.392 110.892V110.892Z" fill="white"/>
<path d="M286.978 105.287C293.604 105.708 300.424 105.789 306.984 104.655C307.875 104.493 308.264 105.87 307.357 106.016C300.667 107.182 293.733 107.134 286.978 106.696C286.071 106.648 286.055 105.222 286.978 105.287Z" fill="white"/>
<path d="M287.205 106.388C287.216 106.788 287.227 107.182 287.238 107.571C287.351 112.544 287.367 117.517 287.416 122.49C287.464 129.164 287.497 135.855 287.529 142.529C287.578 148.603 287.61 154.678 287.675 160.736C287.707 163.879 287.837 167.022 287.902 170.164C287.902 170.213 287.869 169.954 287.805 169.921C288.064 170.002 288.436 170.407 288.695 170.553C289.009 170.726 289.327 170.872 289.651 170.99C291.32 171.622 293.134 171.817 294.9 171.865C298.285 171.946 302.189 171.59 305.235 169.954C306.029 169.516 306.757 170.747 305.948 171.185C305.3 171.525 304.603 171.817 303.906 172.043C300.359 173.242 296.309 173.582 292.583 173.112C290.931 172.902 289.214 172.529 287.772 171.655C287.124 171.266 286.573 170.909 286.476 170.148C286.136 166.876 286.282 163.506 286.249 160.218C286.185 153.9 286.152 147.566 286.104 141.233C286.071 134.38 286.039 127.528 285.974 120.676C285.942 115.914 285.925 111.151 285.78 106.388C285.763 105.481 287.173 105.481 287.205 106.388V106.388Z" fill="white"/>
<path d="M308.701 105.303C308.863 110.94 308.961 116.578 309.009 122.215C309.09 132.323 309.025 142.464 308.62 152.572C308.475 156.363 308.28 160.169 307.908 163.944C307.697 166.05 307.584 168.382 306.79 170.359C306.45 171.201 305.073 170.828 305.413 169.986C306.336 167.702 306.417 164.932 306.628 162.502C307.389 153.641 307.503 144.699 307.584 135.79C307.665 125.633 307.584 115.46 307.276 105.303C307.243 104.38 308.669 104.396 308.701 105.303V105.303Z" fill="white"/>
<path d="M292 93.3644C294.219 95.0329 296.568 96.507 298.885 98.0135C301.995 100.006 305.056 102.047 308.037 104.202C308.766 104.736 308.053 105.967 307.324 105.433C304.328 103.262 301.266 101.237 298.172 99.2447C295.839 97.7381 293.507 96.264 291.287 94.5955C290.558 94.0448 291.271 92.8136 292 93.3644Z" fill="white"/>
<path d="M280.142 92.7974C282.993 97.0254 285.439 101.448 287.27 106.21C287.61 107.069 286.233 107.425 285.909 106.583C284.111 101.95 281.697 97.6409 278.927 93.5102C278.409 92.7488 279.64 92.0523 280.142 92.7974V92.7974Z" fill="white"/>
<path d="M269.564 105.805C272.367 106.356 275.331 106.291 278.166 106.081C279.673 105.967 281.163 105.789 282.637 105.465C283.641 105.238 284.711 104.979 285.585 104.396C286.347 103.894 287.059 105.125 286.298 105.627C284.095 107.085 280.936 107.279 278.393 107.49C275.364 107.733 272.189 107.782 269.192 107.166C268.301 106.988 268.673 105.627 269.564 105.805V105.805Z" fill="white"/>
<path d="M269.888 107.069C269.645 113.84 269.807 120.644 269.986 127.415C270.326 140.099 270.99 152.783 270.488 165.483C270.439 166.681 270.391 167.88 270.342 169.079C270.342 169.225 270.326 169.403 270.326 169.549C270.342 169.808 270.261 169.435 270.326 169.549C270.439 169.743 270.569 169.905 270.747 170.035C272.027 171.055 274.116 171.169 275.671 171.266C277.81 171.395 279.997 171.298 282.119 170.958C282.993 170.812 283.852 170.634 284.678 170.359C285.116 170.197 285.812 169.889 285.974 169.662C286.509 168.933 287.74 169.646 287.205 170.391C286.217 171.768 283.965 172.092 282.41 172.335C279.899 172.74 277.308 172.869 274.78 172.61C273.096 172.448 271.055 172.189 269.71 171.023C268.398 169.889 268.981 167.832 269.046 166.293C269.305 159.748 269.289 153.22 269.127 146.676C268.803 133.49 267.993 120.271 268.479 107.069C268.511 106.162 269.921 106.162 269.888 107.069V107.069Z" fill="white"/>
<path d="M271.152 92.9432C270.666 97.1874 270.228 101.448 269.888 105.708C269.824 106.615 268.398 106.615 268.479 105.708C268.803 101.448 269.24 97.1874 269.743 92.9432C269.84 92.0361 271.265 92.0361 271.152 92.9432Z" fill="white"/>
<path d="M257.366 112.933C258.808 114.002 260.93 114.132 262.647 114.148C264.526 114.18 266.665 114.051 268.382 113.192C269.192 112.787 269.905 114.018 269.095 114.423C267.151 115.395 264.802 115.606 262.647 115.573C260.703 115.541 258.29 115.363 256.654 114.164C255.925 113.629 256.638 112.382 257.366 112.933V112.933Z" fill="white"/>
<path d="M257.075 113.694C257.172 117.793 257.253 121.907 257.334 126.022C257.626 140.633 257.982 155.245 258.938 169.84C259.003 170.764 257.577 170.747 257.528 169.84C257.248 165.628 257.01 161.411 256.816 157.189C256.168 142.691 255.973 128.192 255.666 113.694C255.649 112.771 257.059 112.787 257.075 113.694Z" fill="white"/>
<path d="M248.295 123.09C249.542 123.349 250.822 123.397 252.086 123.414C253.333 123.414 254.629 123.414 255.86 123.09C256.735 122.863 257.124 124.24 256.233 124.467C254.888 124.807 253.463 124.839 252.086 124.823C250.692 124.823 249.283 124.742 247.922 124.467C247.031 124.288 247.404 122.912 248.295 123.09V123.09Z" fill="white"/>
<path d="M255.666 112.965C256.945 110.471 259.148 108.575 260.428 106.081C260.849 105.255 262.08 105.983 261.659 106.793C260.379 109.288 258.16 111.183 256.897 113.678C256.475 114.504 255.244 113.775 255.666 112.965Z" fill="white"/>
<path d="M254.046 116.189C252.021 118.473 250.109 120.887 248.344 123.365C248.117 123.689 247.728 123.835 247.372 123.624C247.048 123.446 246.886 122.976 247.112 122.652C248.959 120.06 250.935 117.566 253.041 115.185C253.657 114.504 254.661 115.509 254.046 116.189Z" fill="white"/>
<path d="M232.258 109.774C236.308 105.935 240.924 102.646 245.509 99.4877C246.27 98.9693 246.983 100.2 246.238 100.719C241.734 103.813 237.231 107.02 233.262 110.778C232.598 111.41 231.594 110.406 232.258 109.774V109.774Z" fill="white"/>
<path d="M220.708 93.1376C225.665 92.9918 230.67 93.2186 235.611 93.6398C236 93.6722 236.324 93.9314 236.324 94.3525C236.324 98.1269 235.789 101.901 235.789 105.676C235.789 106.599 234.364 106.599 234.364 105.676C234.364 101.901 234.898 98.1269 234.898 94.3525C235.136 94.5901 235.374 94.8223 235.611 95.0491C230.67 94.6441 225.665 94.4173 220.708 94.5631C219.801 94.5955 219.801 93.17 220.708 93.1376Z" fill="white"/>
<path d="M281.406 93.494C284.765 93.3536 288.129 93.2078 291.498 93.0566C292.405 93.0242 292.405 94.4335 291.498 94.4821C288.129 94.6225 284.765 94.7683 281.406 94.9195C280.483 94.9519 280.483 93.5425 281.406 93.494Z" fill="white"/>
<path d="M261.481 105.627C264.127 105.627 266.773 105.627 269.419 105.627C270.326 105.627 270.326 107.036 269.419 107.036C266.773 107.036 264.127 107.036 261.481 107.036C260.574 107.036 260.574 105.627 261.481 105.627Z" fill="white"/>
<path d="M252.507 116.351C252.507 116.173 252.588 115.978 252.717 115.849C252.863 115.703 253.025 115.671 253.219 115.638C254.256 115.525 255.293 115.622 256.33 115.492C256.718 115.444 257.026 115.865 257.042 116.205C257.042 116.383 256.961 116.594 256.832 116.707C256.686 116.853 256.524 116.902 256.33 116.918C255.293 117.047 254.256 116.934 253.219 117.064C252.815 117.112 252.523 116.707 252.507 116.351Z" fill="white"/>
<path d="M196.28 109.175C199.196 109.79 202.241 109.839 205.222 109.774C208.623 109.693 212.025 109.369 215.346 108.689C216.253 108.494 216.626 109.871 215.735 110.049C212.284 110.778 208.737 111.119 205.222 111.2C202.111 111.264 198.953 111.183 195.891 110.552C195 110.357 195.389 108.997 196.28 109.175V109.175Z" fill="white"/>
<path d="M218.975 116.448C224.855 112.706 230.12 108.073 236 104.315C236.761 103.829 237.474 105.06 236.713 105.546C230.832 109.304 225.568 113.937 219.687 117.679C218.91 118.165 218.197 116.934 218.975 116.448Z" fill="white"/>
<path d="M246.562 99.4067C249.04 99.4067 251.47 100.022 253.932 100.038C254.856 100.038 254.839 101.464 253.932 101.448C251.47 101.448 249.04 100.832 246.562 100.816C245.655 100.816 245.655 99.3905 246.562 99.4067Z" fill="white"/>
<path d="M254.564 100.8C254.564 105.773 254.224 110.73 254.402 115.703C254.451 116.61 253.025 116.61 252.993 115.703C252.798 110.73 253.139 105.773 253.139 100.8C253.139 99.8926 254.564 99.8926 254.564 100.8V100.8Z" fill="white"/>
<path d="M246.545 111.864C246.254 111.686 246.059 111.2 246.302 110.892C248.749 107.652 251.292 104.396 253.317 100.865C253.77 100.071 255.001 100.784 254.548 101.577C252.523 105.109 249.98 108.365 247.517 111.605C247.291 111.912 246.918 112.074 246.545 111.864Z" fill="white"/>
<path d="M270.957 92.2304C273.776 92.0037 276.595 91.9443 279.413 92.0523C280.321 92.1009 280.321 93.5102 279.413 93.4778C276.595 93.3698 273.776 93.4292 270.957 93.656C270.05 93.7208 270.066 92.3114 270.957 92.2304Z" fill="white"/>
<path d="M236.486 105.319C236.324 105.238 236.227 105.06 236.162 104.898C236.113 104.72 236.146 104.493 236.243 104.347C236.308 104.218 236.502 104.04 236.664 104.023C237.539 103.894 238.414 103.926 239.256 104.234C239.628 104.364 239.839 104.704 239.758 105.092C239.677 105.465 239.24 105.724 238.883 105.595C238.581 105.497 238.273 105.427 237.96 105.384C238.025 105.384 238.09 105.389 238.154 105.4C237.766 105.346 237.371 105.346 236.972 105.4C237.037 105.389 237.101 105.379 237.166 105.368C237.123 105.379 237.08 105.384 237.037 105.384C236.842 105.416 236.664 105.416 236.486 105.319V105.319Z" fill="white"/>
<path d="M230.541 118.181C230.346 118.133 230.201 118.003 230.103 117.857C230.006 117.712 229.99 117.485 230.039 117.307C230.06 117.209 230.103 117.128 230.168 117.064C230.222 116.988 230.287 116.929 230.363 116.885C230.87 116.497 231.372 116.113 231.869 115.735C232.015 115.622 232.242 115.622 232.42 115.654C232.598 115.703 232.744 115.832 232.841 115.978C232.938 116.14 232.954 116.367 232.922 116.529C232.9 116.626 232.857 116.707 232.792 116.772C232.738 116.848 232.668 116.907 232.582 116.95C232.085 117.339 231.583 117.728 231.075 118.117C230.93 118.23 230.703 118.214 230.541 118.181V118.181Z" fill="white"/>
<path d="M247.258 169.289C247.469 168.933 247.89 168.868 248.23 169.03C251 170.31 254.175 170.488 257.075 169.597C257.95 169.322 258.322 170.699 257.447 170.958C254.159 171.962 250.628 171.687 247.517 170.261C247.177 170.099 247.08 169.597 247.258 169.289V169.289Z" fill="white"/>
<path d="M258.841 169.5C258.938 169.743 259.067 169.873 259.294 170.018C259.602 170.229 259.942 170.375 260.298 170.504C261.222 170.812 262.21 170.974 263.182 171.023C264.219 171.088 265.272 171.071 266.292 170.877C267.086 170.731 267.977 170.488 268.592 169.954C269.273 169.354 270.277 170.342 269.597 170.958C267.896 172.448 265.191 172.594 263.052 172.448C261.902 172.367 260.72 172.189 259.634 171.768C258.857 171.46 257.966 171.023 257.609 170.229C257.237 169.403 258.452 168.674 258.841 169.5V169.5Z" fill="white"/>
<path d="M199.115 109.709C201.242 108.23 203.375 106.75 205.513 105.271C205.886 104.995 206.242 105.611 205.87 105.886C203.731 107.366 201.598 108.845 199.471 110.325C199.098 110.584 198.742 109.968 199.115 109.709Z" fill="white"/>
<path d="M218.635 97.3818C220.438 96.1614 222.236 94.9465 224.029 93.737C224.418 93.4778 224.774 94.0934 224.401 94.3525C222.598 95.5621 220.794 96.7716 218.991 97.9811C218.618 98.2403 218.262 97.6247 218.635 97.3818V97.3818Z" fill="white"/>
<path d="M223.753 96.0372C223.705 95.9724 223.689 95.859 223.721 95.778C223.737 95.6808 223.802 95.616 223.883 95.5512C224.315 95.2272 224.752 94.9033 225.195 94.5793C225.357 94.4497 225.584 94.5469 225.681 94.7089C225.73 94.7737 225.746 94.8871 225.713 94.9681C225.697 95.0653 225.632 95.1301 225.551 95.1949C225.119 95.5188 224.682 95.8428 224.239 96.1668C224.077 96.2964 223.851 96.1992 223.753 96.0372Z" fill="white"/>
<path d="M206.242 109.742C210.47 106.405 214.763 103.1 219.299 100.168C219.687 99.925 220.044 100.541 219.655 100.784C215.168 103.683 210.924 106.939 206.744 110.244C206.388 110.519 205.886 110.017 206.242 109.742V109.742Z" fill="white"/>
<path d="M210.94 108.559C213.003 107.015 215.065 105.465 217.128 103.91C217.501 103.635 217.857 104.25 217.501 104.526C215.427 106.081 213.359 107.63 211.296 109.175C210.924 109.45 210.567 108.835 210.94 108.559Z" fill="white"/>
<path d="M203.44 109.887C205.459 108.3 207.484 106.707 209.514 105.109C209.854 104.833 210.373 105.336 210.016 105.611C207.986 107.209 205.961 108.802 203.942 110.39C203.585 110.665 203.083 110.179 203.44 109.887Z" fill="white"/>
<path d="M223.478 117.452C225.227 115.849 227.058 114.358 228.986 112.981C229.358 112.706 229.698 113.322 229.342 113.597C227.463 114.942 225.681 116.399 223.98 117.955C223.64 118.246 223.138 117.76 223.478 117.452V117.452Z" fill="white"/>
<path d="M227.058 117.922C226.928 117.793 226.928 117.533 227.058 117.42C227.781 116.772 228.505 116.124 229.229 115.476C229.374 115.347 229.585 115.347 229.731 115.476C229.86 115.606 229.86 115.849 229.731 115.978C229.007 116.626 228.284 117.274 227.56 117.922C227.414 118.052 227.204 118.052 227.058 117.922Z" fill="white"/>
<path d="M248.246 100.897C246.151 102.7 244.051 104.504 241.945 106.307C241.605 106.615 241.086 106.113 241.443 105.805C243.549 104.002 245.649 102.198 247.744 100.395C248.101 100.103 248.603 100.605 248.246 100.897Z" fill="white"/>
<path d="M245.784 104.412C247.339 102.841 248.992 101.367 250.725 99.9898C250.871 99.8764 251.081 99.844 251.227 99.9898C251.357 100.119 251.389 100.379 251.227 100.492C249.494 101.869 247.841 103.343 246.286 104.914C245.962 105.238 245.46 104.736 245.784 104.412Z" fill="white"/>
<path d="M265.077 106.55C263.959 108.43 262.971 110.39 262.145 112.414C261.983 112.836 261.287 112.657 261.465 112.22C262.307 110.147 263.311 108.122 264.462 106.194C264.705 105.805 265.32 106.162 265.077 106.55V106.55Z" fill="white"/>
<path d="M266.357 106.291C266.535 106.388 266.568 106.599 266.487 106.777C265.925 108.052 265.363 109.326 264.802 110.6C264.721 110.778 264.462 110.827 264.316 110.73C264.138 110.633 264.105 110.422 264.186 110.244C264.748 108.969 265.309 107.695 265.871 106.421C265.952 106.243 266.211 106.194 266.357 106.291Z" fill="white"/>
<path d="M252.815 120.903C252.102 122.026 251.384 123.144 250.66 124.256C250.417 124.645 249.802 124.288 250.045 123.9C250.768 122.787 251.492 121.67 252.215 120.546C252.458 120.158 253.074 120.514 252.815 120.903V120.903Z" fill="white"/>
<path d="M253.657 120.903C253.819 120.984 253.884 121.227 253.786 121.389C253.387 122.026 252.987 122.663 252.588 123.3C252.474 123.462 252.264 123.527 252.102 123.43C251.924 123.333 251.875 123.106 251.972 122.944C252.372 122.307 252.771 121.67 253.171 121.032C253.268 120.854 253.479 120.806 253.657 120.903Z" fill="white"/>
<path d="M273.193 98.4509C273.42 101.086 273.641 103.721 273.857 106.356C273.89 106.81 273.177 106.81 273.144 106.356C272.928 103.721 272.707 101.086 272.48 98.4509C272.448 97.9973 273.161 97.9973 273.193 98.4509Z" fill="white"/>
<path d="M275.38 101.075C275.445 102.906 275.688 104.72 276.06 106.502C276.157 106.955 275.477 107.134 275.38 106.696C274.991 104.85 274.748 102.97 274.667 101.075C274.651 100.622 275.364 100.622 275.38 101.075Z" fill="white"/>
<path d="M278.765 94.6441C280.191 98.0027 281.611 101.361 283.026 104.72C283.204 105.141 282.588 105.498 282.41 105.076C280.995 101.718 279.575 98.3591 278.15 95.0005C277.972 94.5793 278.587 94.2229 278.765 94.6441V94.6441Z" fill="white"/>
<path d="M279.721 101.934C279.916 101.885 280.094 102.015 280.159 102.193C280.472 103.068 280.79 103.948 281.114 104.833C281.179 105.012 281.033 105.222 280.855 105.271C280.661 105.319 280.483 105.19 280.418 105.012C280.105 104.137 279.786 103.257 279.462 102.371C279.397 102.193 279.543 101.982 279.721 101.934V101.934Z" fill="white"/>
<path d="M292.794 98.4185C295.267 100.492 297.74 102.565 300.213 104.639C300.569 104.931 300.067 105.433 299.711 105.141C297.238 103.068 294.765 100.994 292.292 98.9207C291.935 98.6291 292.437 98.1269 292.794 98.4185Z" fill="white"/>
<path d="M294.187 102.047C295.148 103.008 296.104 103.969 297.054 104.931C297.378 105.255 296.876 105.757 296.552 105.433C295.602 104.472 294.646 103.51 293.685 102.549C293.361 102.225 293.863 101.723 294.187 102.047Z" fill="white"/>
<path d="M283.172 94.5955C283.301 94.4659 283.56 94.4497 283.674 94.5955C284.635 95.7942 285.596 96.9929 286.557 98.1917C286.67 98.3375 286.703 98.5481 286.557 98.6938C286.428 98.8234 286.168 98.8396 286.055 98.6938C285.094 97.4951 284.133 96.2964 283.172 95.0976C283.058 94.9518 283.026 94.7413 283.172 94.5955Z" fill="white"/>
<path d="M285.877 95.5026C286.039 95.4054 286.266 95.4702 286.363 95.6322C286.6 96.0318 286.838 96.4314 287.076 96.831C287.173 96.993 287.108 97.2198 286.946 97.317C286.784 97.4142 286.557 97.3494 286.46 97.1874C286.222 96.7878 285.985 96.3882 285.747 95.9886C285.65 95.8266 285.715 95.616 285.877 95.5026Z" fill="white"/>
<path d="M289.943 102.938C290.121 102.825 290.315 102.906 290.429 103.051C290.99 103.851 291.552 104.65 292.113 105.449C292.211 105.611 292.13 105.854 291.984 105.935C291.806 106.048 291.611 105.967 291.498 105.805C290.936 105.017 290.375 104.223 289.813 103.424C289.7 103.262 289.797 103.019 289.943 102.938Z" fill="white"/>
<path d="M286.816 124.774C293.717 125.406 300.731 125.115 307.551 123.835C308.442 123.673 308.815 125.034 307.924 125.212C300.974 126.508 293.847 126.832 286.816 126.2C285.909 126.119 285.909 124.693 286.816 124.774Z" fill="white"/>
<path d="M288.096 146.935C291.611 147.874 295.337 147.955 298.95 147.615C301.833 147.356 304.943 146.886 307.584 145.623C308.41 145.218 309.123 146.449 308.296 146.838C305.494 148.182 302.287 148.717 299.225 149.008C295.402 149.397 291.449 149.3 287.707 148.295C286.833 148.069 287.205 146.692 288.096 146.935V146.935Z" fill="white"/>
<path d="M269.564 117.355C274.78 118.813 280.644 118.117 285.861 117.015C286.752 116.821 287.14 118.181 286.233 118.376C280.774 119.542 274.667 120.255 269.192 118.732C268.317 118.489 268.69 117.112 269.564 117.355V117.355Z" fill="white"/>
<path d="M270.423 158.598C272.837 160.218 276.109 160.348 278.911 160.169C280.418 160.088 281.924 159.862 283.382 159.457C284.403 159.165 285.537 158.792 286.363 158.08C287.043 157.48 288.048 158.485 287.367 159.084C285.229 160.947 281.843 161.384 279.138 161.579C276.028 161.789 272.367 161.627 269.71 159.829C268.949 159.327 269.662 158.096 270.423 158.598V158.598Z" fill="white"/>
<path d="M247.89 131.189C250.579 132.048 253.43 132.113 256.135 131.335C257.026 131.092 257.399 132.453 256.524 132.712C253.576 133.538 250.433 133.489 247.517 132.55C246.643 132.275 247.015 130.898 247.89 131.189V131.189Z" fill="white"/>
<path d="M247.906 161.676C249.429 162.259 251.033 162.599 252.653 162.648C253.463 162.68 254.272 162.648 255.066 162.534C255.698 162.453 256.459 162.389 256.913 161.903C257.545 161.239 258.549 162.243 257.917 162.907C257.35 163.506 256.573 163.733 255.795 163.863C254.872 164.009 253.932 164.09 252.993 164.09C251.13 164.057 249.283 163.701 247.534 163.037C246.691 162.729 247.064 161.352 247.906 161.676V161.676Z" fill="white"/>
<path d="M247.663 158.436C247.76 158.112 248.198 157.804 248.538 157.95C251.049 159.003 253.835 159.003 256.346 157.966C256.702 157.821 257.123 158.128 257.204 158.468C257.318 158.873 257.075 159.197 256.718 159.343C254.013 160.461 250.871 160.445 248.165 159.311C247.809 159.165 247.55 158.857 247.663 158.436V158.436Z" fill="white"/>
<path d="M248.101 135.271C250.725 135.952 253.479 135.984 256.119 135.352C257.01 135.142 257.383 136.519 256.492 136.729C253.608 137.426 250.595 137.393 247.728 136.648C246.837 136.405 247.226 135.045 248.101 135.271V135.271Z" fill="white"/>
<path d="M232.339 128.257C237.166 129.002 242.091 129.002 246.918 128.273C247.809 128.144 248.198 129.505 247.291 129.65C242.204 130.412 237.053 130.412 231.95 129.618C231.059 129.488 231.448 128.111 232.339 128.257V128.257Z" fill="white"/>
<path d="M231.513 151.438C236.437 152.572 241.54 152.718 246.513 151.892C247.404 151.73 247.793 153.107 246.886 153.252C241.653 154.143 236.324 153.998 231.14 152.815C230.233 152.604 230.622 151.244 231.513 151.438V151.438Z" fill="white"/>
<path d="M219.639 132.096C220.433 133.376 222.36 133.619 223.721 133.668C225.989 133.716 228.257 133.133 230.282 132.145C231.091 131.74 231.804 132.971 230.994 133.376C228.662 134.526 226.021 135.207 223.397 135.061C221.566 134.964 219.444 134.461 218.408 132.809C217.922 132.032 219.153 131.319 219.639 132.096V132.096Z" fill="white"/>
<path d="M219.331 160.396C220.546 161.4 222.652 161.579 224.175 161.595C226.086 161.611 228.289 161.287 229.796 160.007C230.492 159.424 231.497 160.412 230.8 161.012C229.002 162.551 226.491 163.037 224.175 163.004C222.214 162.988 219.882 162.696 218.327 161.4C217.63 160.817 218.634 159.813 219.331 160.396V160.396Z" fill="white"/>
<path d="M217.112 170.585C216.917 170.585 216.739 170.488 216.61 170.375C216.464 170.245 216.399 170.051 216.399 169.873C216.399 169.694 216.464 169.484 216.61 169.37C217.096 168.939 217.582 168.512 218.068 168.091C218.213 167.961 218.375 167.88 218.57 167.88C218.764 167.864 218.942 167.961 219.072 168.091C219.201 168.204 219.282 168.415 219.282 168.593C219.282 168.755 219.201 168.982 219.072 169.095C218.586 169.516 218.1 169.943 217.614 170.375C217.452 170.504 217.306 170.569 217.112 170.585Z" fill="white"/>
<path d="M203.569 124.029C207.344 123.252 210.843 126.654 210.875 130.347C210.891 132.518 209.838 134.542 207.959 135.66C206.242 136.681 204.088 136.843 202.257 136.033C197.203 133.765 198.337 125.309 203.569 124.029C204.46 123.819 204.833 125.179 203.942 125.406C201.415 126.022 200.038 128.954 200.459 131.4C200.734 133.036 201.771 134.461 203.391 134.947C204.8 135.369 206.372 135.077 207.587 134.218C208.947 133.247 209.547 131.627 209.433 129.991C209.271 127.382 206.647 124.839 203.942 125.406C203.051 125.584 202.678 124.224 203.569 124.029V124.029Z" fill="white"/>
<path d="M196.426 136.729C197.398 137.636 198.629 138.236 199.876 138.641C202.5 139.516 205.335 139.726 208.073 139.532C210.519 139.37 213.159 138.884 215.249 137.507C215.621 137.248 215.978 137.863 215.605 138.122C214.439 138.884 213.094 139.37 211.734 139.694C208.915 140.39 205.934 140.471 203.067 140.083C200.54 139.742 197.835 139.013 195.923 137.231C195.599 136.924 196.102 136.422 196.426 136.729V136.729Z" fill="white"/>
<path d="M197.867 160.866C203.537 163.442 210.276 163.895 215.897 160.996C216.302 160.785 216.674 161.401 216.253 161.595C215.054 162.227 213.791 162.713 212.479 163.069C207.473 164.381 202.176 163.587 197.511 161.465C197.106 161.287 197.462 160.672 197.867 160.866V160.866Z" fill="white"/>
<path d="M260.315 123.673C260.655 123.284 261.06 122.992 261.53 122.798C262.469 122.409 263.587 122.409 264.526 122.798C265.434 123.171 265.952 123.883 266.276 124.774C267.086 127.042 266.94 129.618 266.973 131.983C267.016 138.733 267.064 145.488 267.118 152.248C267.135 153.852 267.086 155.472 267.216 157.075C267.313 158.371 267.442 159.797 266.632 160.914C266.033 161.757 264.996 162.291 263.992 162.453C262.923 162.632 261.951 162.356 261.206 161.546C260.331 160.574 259.894 159.359 259.78 158.047C259.661 156.384 259.559 154.71 259.472 153.026C259.294 149.689 259.213 146.352 259.165 143.015C259.116 139.629 259.116 136.259 259.116 132.89C259.127 131.205 259.132 129.526 259.132 127.852C259.132 126.54 258.954 125.05 259.845 123.948C260.137 123.592 260.639 124.11 260.347 124.45C259.926 124.969 259.861 125.649 259.845 126.281C259.764 129.326 259.829 132.388 259.829 135.433C259.829 138.511 259.845 141.605 259.91 144.683C259.958 147.761 260.056 150.839 260.234 153.916C260.315 155.439 260.331 157.011 260.541 158.533C260.687 159.619 261.303 160.947 262.275 161.53C263.117 162.048 264.316 161.773 265.11 161.303C266.211 160.688 266.584 159.635 266.584 158.42C266.568 157.772 266.503 157.124 266.454 156.476C266.422 155.715 266.438 154.953 266.422 154.192C266.411 152.658 266.4 151.125 266.389 149.591C266.346 143.393 266.298 137.199 266.244 131.011C266.244 129.942 266.227 128.873 266.13 127.804C266.049 126.751 265.903 125.633 265.466 124.661C264.656 122.879 262.032 122.782 260.817 124.175C260.509 124.515 260.007 124.013 260.315 123.673V123.673Z" fill="white"/>
<path d="M239.742 113.046C239.596 112.917 239.612 112.69 239.742 112.544C240.39 111.853 241.032 111.162 241.669 110.471C241.799 110.325 242.026 110.341 242.172 110.471C242.317 110.6 242.301 110.827 242.172 110.973C241.534 111.664 240.892 112.355 240.244 113.046C240.114 113.192 239.888 113.176 239.742 113.046Z" fill="white"/>
<path d="M240.39 109.499C240.536 109.628 240.519 109.855 240.39 110.001C239.969 110.476 239.542 110.957 239.11 111.443C238.981 111.588 238.738 111.556 238.608 111.443C238.462 111.297 238.478 111.07 238.608 110.94C239.04 110.454 239.467 109.974 239.888 109.499C240.017 109.353 240.26 109.369 240.39 109.499Z" fill="white"/>
<path d="M401.966 38.7043C402.546 39.254 402.958 39.9564 403.248 40.7047C403.997 42.5676 403.997 44.7207 403.859 46.7058C403.661 49.4545 403.096 52.1878 402.409 54.8601C400.729 61.3346 398.301 67.6259 395.583 73.734C393.185 79.1396 390.574 84.4995 387.367 89.4775C386.421 90.9587 385.413 92.501 384.13 93.7226C383.26 94.532 382.145 94.9901 381.03 95.3718C378.633 96.1964 376.052 96.3796 373.533 96.2728C371.227 96.1811 368.936 95.8299 366.646 95.5551C363.912 95.2344 361.164 94.8832 358.446 94.4556C352.597 93.5547 346.795 92.4247 341.007 91.1725C335.22 89.9356 329.432 88.6377 323.676 87.2481C318.239 85.9349 312.605 84.5453 307.672 81.7814C305.565 80.6056 303.366 79.1702 302.175 76.9865C301.137 75.0778 300.938 72.8789 301.015 70.7563C301.106 67.9619 301.457 65.1522 301.992 62.4188C302.481 59.8687 302.985 57.1048 304.206 54.799C305.397 52.539 307.413 51.5159 309.887 51.2411C312.345 50.9662 314.849 50.9509 317.323 50.9051C322.637 50.7982 327.951 50.9051 333.25 51.1342C344.153 51.6228 355.04 52.6612 365.852 54.1271C370.906 54.8143 375.915 55.6999 380.954 56.5093C382.725 56.7841 384.802 57.1201 386.543 56.4787C387.795 56.0206 388.665 54.9364 389.429 53.8981C389.933 53.1956 391.093 53.8675 390.589 54.57C389.811 55.6083 388.986 56.6772 387.841 57.3339C386.528 58.0974 384.955 58.2195 383.474 58.1279C381.152 58.0057 378.862 57.4866 376.571 57.1048C371.563 56.2497 366.524 55.532 361.484 54.8906C350.933 53.5774 340.32 52.6765 329.692 52.3405C324.653 52.1726 319.614 52.142 314.575 52.3252C313.368 52.371 312.162 52.4169 310.971 52.4932C309.658 52.5696 308.283 52.707 307.153 53.4247C305.015 54.7532 304.466 57.6698 303.901 59.9298C303.229 62.6937 302.755 65.5034 302.511 68.3284C302.313 70.6036 302.114 73.0316 302.862 75.2305C303.672 77.6432 305.748 79.1091 307.856 80.346C310.161 81.705 312.651 82.6976 315.185 83.5222C320.728 85.3393 326.47 86.5304 332.151 87.8131C337.709 89.0805 343.252 90.3327 348.826 91.4168C354.445 92.501 360.11 93.463 365.791 94.1197C370.448 94.6541 375.273 95.6161 379.885 94.3182C380.847 94.0586 381.809 93.7074 382.664 93.1882C382.924 93.0355 382.909 93.0355 383.168 92.7912C383.657 92.333 384.1 91.7986 384.512 91.2489C385.856 89.5233 386.986 87.6298 388.07 85.7211C391.17 80.3613 393.827 74.7113 396.163 68.985C398.545 63.1823 400.698 57.1964 401.905 51.0273C402.363 48.7062 402.699 46.3088 402.546 43.9419C402.454 42.4149 402.118 40.7046 401.019 39.651C400.408 39.0402 401.355 38.0935 401.966 38.7043V38.7043Z" fill="white"/>
<path d="M304.237 54.8143C304.389 53.8217 304.924 52.8903 305.458 52.0504C306.283 50.7372 307.275 49.5155 308.283 48.3397C311.246 44.8429 314.529 41.6209 317.812 38.4447C321.553 34.7951 325.371 31.2372 329.188 27.6792C330.73 26.2285 332.166 24.5794 334.181 23.7853C336.564 22.8691 339.358 22.8691 341.878 22.6248C352.903 21.5253 363.958 20.7771 375.044 20.3648C380.47 20.1714 385.896 20.0543 391.322 20.0136C392.773 20.0136 394.208 19.983 395.659 20.0136C396.545 20.0288 397.461 20.151 397.98 20.9756C398.545 21.846 398.484 23.0523 398.515 24.0602C398.555 25.2309 398.56 26.4016 398.53 27.5723C398.301 37.1314 395.598 46.4462 390.574 54.6005C390.116 55.3335 388.956 54.6616 389.414 53.9286C394.85 45.1025 397.446 34.9784 397.186 24.6404C397.171 23.8311 397.43 21.7849 396.468 21.4184C395.949 21.2199 395.201 21.3421 394.651 21.3421C393.99 21.3421 393.328 21.3472 392.666 21.3574C390.111 21.3675 387.561 21.393 385.016 21.4337C379.753 21.5355 374.49 21.7086 369.226 21.9529C358.782 22.4568 348.337 23.2203 337.938 24.3656C336.67 24.503 335.342 24.671 334.181 25.2513C333.265 25.6941 332.486 26.3812 331.753 27.0684C329.936 28.7939 328.119 30.5042 326.302 32.1992C322.897 35.4059 319.492 38.6279 316.163 41.9263C313.597 44.4917 311.047 47.0723 308.741 49.8668C307.52 51.348 305.825 53.1957 305.519 55.1655C305.397 56.0207 304.114 55.6542 304.237 54.8143V54.8143Z" fill="white"/>
<path d="M318.01 52.3405C316.224 52.4627 314.376 52.9055 312.91 53.9592C311.52 54.9517 311.108 56.3719 310.894 58.0058C310.421 61.7317 310.62 65.5339 309.612 69.1988C309.184 70.7258 309.016 72.1154 309.719 73.6118C310.36 75.0167 311.536 76.1161 312.895 76.8338C314.544 77.7042 316.483 78.1471 318.255 78.6815C320.209 79.2771 322.164 79.8268 324.134 80.3613C331.906 82.4838 339.786 84.2551 347.619 86.2097C354.185 87.8436 360.767 89.4623 367.394 90.8366C370.005 91.3863 372.662 91.8444 375.334 91.8749C377.442 91.8902 379.992 91.707 381.519 90.0578C382.099 89.4165 383.046 90.3632 382.466 91.0045C380.603 93.0202 377.503 93.2798 374.922 93.2034C371.777 93.1118 368.646 92.501 365.592 91.8139C358.018 90.1342 350.505 88.3017 342.977 86.4388C334.548 84.362 326.058 82.4685 317.751 79.9184C314.391 78.8953 310.726 78.0555 308.818 74.7877C308.069 73.505 307.733 71.9932 307.917 70.4967C308.039 69.55 308.39 68.6643 308.589 67.7328C308.787 66.7708 308.925 65.7935 309.031 64.8162C309.215 63.0144 309.276 61.2125 309.413 59.4259C309.52 58.0363 309.627 56.5398 310.177 55.2419C311.414 52.2795 315.078 51.1953 318.01 50.9968C318.865 50.9357 318.865 52.2795 318.01 52.3405V52.3405Z" fill="white"/>
<path d="M311.093 55.4556C311.968 55.5167 312.844 55.5778 313.719 55.6389C320.621 56.1428 327.539 56.7231 334.441 57.3491C341.267 57.9752 348.077 58.6471 354.903 59.3495C361.698 60.052 368.494 60.7849 375.289 61.5484C377.019 61.7419 378.75 61.9353 380.481 62.1287C381.305 62.2203 382.13 62.317 382.954 62.4188C383.779 62.5105 384.634 62.6632 385.474 62.6326C387.123 62.5868 387.978 60.9987 388.788 59.7618C389.633 58.5097 390.406 57.2117 391.109 55.8679C393.934 50.4776 395.583 44.4917 395.903 38.4141C395.934 37.9866 396.606 37.9866 396.575 38.4141C396.535 39.1675 396.474 39.9208 396.392 40.6741C395.751 46.7669 393.796 52.707 390.696 57.9905C389.918 59.3037 389.093 60.617 388.161 61.8233C387.749 62.3425 387.261 62.8311 386.634 63.0907C385.902 63.3808 385.107 63.3198 384.344 63.2434C380.893 62.8617 377.427 62.4646 373.975 62.0676C367.043 61.3041 360.11 60.5559 353.178 59.8382C346.214 59.1205 339.251 58.4486 332.273 57.8225C325.218 57.1964 318.163 56.6162 311.093 56.1123C310.665 56.0817 310.665 55.4251 311.093 55.4556V55.4556Z" fill="white"/>
<path d="M310.772 59.4258C311.77 59.6396 312.773 59.8483 313.78 60.0519C321.919 61.7317 330.104 63.1212 338.304 64.4192C346.535 65.7172 354.781 66.9082 363.012 68.1909C367.043 68.817 371.074 69.5042 375.105 70.1455C378.572 70.68 382.45 71.0312 385.596 69.1377C388.528 67.3664 390.177 64.1443 391.597 61.1514C393.17 57.8225 394.529 54.3714 395.629 50.8593C397.873 43.7739 399.202 36.3373 399.003 28.9008C398.988 28.4579 399.66 28.4579 399.675 28.9008C399.696 29.8068 399.696 30.7128 399.675 31.6188C399.507 39.147 397.889 46.6294 395.384 53.7148C394.163 57.1659 392.743 60.5864 391.002 63.8084C389.414 66.7708 387.245 69.5194 383.947 70.6189C380.542 71.7489 376.846 71.1075 373.395 70.5273C369.181 69.8248 364.966 69.1529 360.752 68.5116C352.383 67.2289 344 66.0073 335.632 64.6635C327.249 63.3197 318.896 61.8538 310.589 60.0672C310.177 59.9756 310.345 59.3342 310.772 59.4258V59.4258Z" fill="white"/>
<path d="M310.788 63.5336C311.775 63.7677 312.763 64.0018 313.75 64.236C321.782 66.16 329.819 68.0433 337.862 69.8859C345.848 71.7184 353.819 73.5966 361.851 75.2305C365.852 76.0551 369.883 76.7423 373.96 77.0324C377.335 77.2614 380.939 77.3836 384.176 76.1773C385.764 75.5817 387.154 74.6197 388.238 73.3217C389.307 72.039 390.055 70.4967 390.712 68.9697C392.223 65.4423 393.598 61.8386 394.942 58.2501C397.66 50.9204 399.95 43.3769 400.683 35.5739C400.729 35.1616 401.386 35.1463 401.355 35.5739C401.263 36.5308 401.151 37.4878 401.019 38.4447C399.935 46.3241 397.354 53.8981 394.499 61.2888C393.781 63.1365 393.048 64.9842 392.3 66.8166C391.658 68.42 391.048 70.0386 390.208 71.5657C389.429 73.0011 388.421 74.3296 387.108 75.3374C385.825 76.3147 384.298 76.9408 382.741 77.3073C379.198 78.1471 375.426 77.8722 371.853 77.5058C367.761 77.0935 363.699 76.3147 359.683 75.4596C351.513 73.7188 343.374 71.8405 335.235 69.9776C327.02 68.0841 318.81 66.1499 310.604 64.1749C310.192 64.068 310.375 63.4267 310.788 63.5336V63.5336Z" fill="white"/>
<path d="M309.719 68.5879C310.411 68.8424 311.108 69.0918 311.811 69.3361C317.44 71.3416 323.116 73.1944 328.837 74.8945C334.568 76.6048 340.335 78.1572 346.138 79.5519C351.941 80.9466 357.779 82.1886 363.653 83.2779C366.539 83.8123 369.44 84.362 372.342 84.7438C375.044 85.1103 377.854 85.263 380.481 84.4842C385.382 83.003 388.009 78.315 390.269 74.1005C390.483 73.7187 391.063 74.0546 390.849 74.4364C390.564 74.9658 390.279 75.4951 389.994 76.0245C388.803 78.1471 387.505 80.2544 385.779 81.9799C383.993 83.7818 381.779 85.0034 379.274 85.4462C376.556 85.9501 373.792 85.6447 371.089 85.2324C368.127 84.7896 365.165 84.2399 362.217 83.6902C356.242 82.5602 350.307 81.2724 344.412 79.8268C338.508 78.371 332.644 76.7626 326.821 75.0014C321.008 73.23 315.246 71.306 309.535 69.2293C309.138 69.0766 309.306 68.4352 309.719 68.5879V68.5879Z" fill="white"/>
<path d="M316.972 74.1463C318.275 74.5942 319.583 75.0218 320.896 75.429C321.309 75.5665 321.141 76.2078 320.728 76.0857C319.415 75.6683 318.102 75.2356 316.789 74.7877C316.392 74.6502 316.56 74.0089 316.972 74.1463V74.1463Z" fill="white"/>
<path d="M309.108 71.3824C309.215 71.2144 309.413 71.1839 309.566 71.2602C310.803 71.8252 312.055 72.3291 313.307 72.8178C313.475 72.8788 313.597 73.0468 313.536 73.23C313.506 73.398 313.307 73.5354 313.124 73.4591C311.826 72.9552 310.513 72.4207 309.23 71.8405C309.062 71.7641 309.031 71.5351 309.108 71.3824V71.3824Z" fill="white"/>
<path d="M338.961 34.0926C339.419 33.5124 339.862 32.9168 340.32 32.3366C341.893 30.2904 343.511 28.2289 345.68 26.7935C346.749 26.0911 347.94 25.5719 349.177 25.2512C350.811 24.839 352.49 24.8237 354.17 24.7473C362.172 24.3707 370.178 23.994 378.19 23.6173C379.045 23.5868 379.992 23.4494 380.816 23.77C381.443 24.0144 381.901 24.5335 382.176 25.1291C382.893 26.7019 382.237 28.3663 381.656 29.8628C380.944 31.7258 380.226 33.5836 379.503 35.4364C379.228 36.1388 378.954 36.8718 378.419 37.4063C377.869 37.9407 377.136 38.1545 376.388 38.2766C374.495 38.5668 372.54 38.689 370.616 38.8417C368.641 38.9944 366.661 39.1114 364.676 39.1929C360.721 39.3608 356.751 39.3914 352.78 39.2692C348.78 39.147 344.794 38.8722 340.824 38.4599C339.816 38.353 338.228 38.4293 337.587 37.4368C336.915 36.3832 337.984 35.1157 338.671 34.3828C338.773 34.5762 338.88 34.7645 338.992 34.9478C338.946 34.963 338.885 34.9936 338.839 35.0241C338.442 35.1921 338.106 34.6118 338.503 34.4438C338.61 34.398 338.701 34.337 338.808 34.3064C339.144 34.1843 339.358 34.6424 339.144 34.8562C338.701 35.3143 338.152 35.9098 338.06 36.5664C337.907 37.62 339.495 37.6506 340.167 37.7269C342 37.9203 343.837 38.0883 345.68 38.2308C349.416 38.5057 353.162 38.6533 356.919 38.6737C360.634 38.694 364.35 38.5871 368.066 38.353C369.939 38.2308 371.807 38.0781 373.67 37.8949C374.54 37.8185 375.411 37.7575 376.281 37.62C377.06 37.4979 377.793 37.2383 378.251 36.5511C378.709 35.864 378.938 35.0241 379.244 34.2759C379.58 33.4004 379.916 32.53 380.251 31.6647C380.572 30.8096 380.908 29.9544 381.244 29.0993C381.549 28.2747 381.855 27.4349 381.84 26.5492C381.824 25.8773 381.58 25.1596 381.061 24.7015C380.435 24.1365 379.549 24.2281 378.77 24.274C376.887 24.3554 375.004 24.4419 373.12 24.5335C369.374 24.7066 365.633 24.8797 361.897 25.0527C360.013 25.1443 358.13 25.2309 356.247 25.3123C354.491 25.4039 352.719 25.3887 350.979 25.6024C348.474 25.8926 346.245 26.9615 344.397 28.6565C342.504 30.4125 341.007 32.5504 339.434 34.566C339.159 34.902 338.701 34.4286 338.961 34.0926V34.0926Z" fill="white"/>
<path d="M310.635 57.8836C310.635 57.7156 310.788 57.5171 310.971 57.5477C312.142 57.6698 313.307 57.792 314.468 57.9141C314.651 57.9294 314.804 58.0516 314.804 58.2501C314.804 58.418 314.651 58.6013 314.468 58.586C313.307 58.4639 312.142 58.3417 310.971 58.2195C310.788 58.189 310.635 58.0821 310.635 57.8836Z" fill="white"/>
<path d="M304.282 54.7532C304.618 54.0508 305 53.3636 305.458 52.7375C307 50.615 309.215 49.317 311.811 49.0116C313.185 48.8589 314.559 48.9963 315.918 49.0574C317.552 49.1185 319.186 49.1643 320.82 49.1948C324.256 49.2712 327.707 49.317 331.143 49.4392C334.472 49.5766 337.8 49.8515 341.129 50.1569C347.685 50.7677 354.236 51.4548 360.782 52.2183C364.253 52.6357 367.725 53.0684 371.196 53.5163C373.105 53.7606 374.999 53.9897 376.907 54.2493C378.541 54.4783 380.19 54.7532 381.855 54.8601C383.321 54.9517 384.894 54.9517 386.237 54.2645C387.627 53.5774 388.711 52.4016 389.673 51.1952C390.696 49.8973 391.674 48.5077 392.468 47.0418C393.369 45.3773 394.086 43.6365 394.804 41.8805C394.972 41.4834 395.613 41.6667 395.461 42.0637C395.109 42.9036 394.773 43.7434 394.407 44.568C393.078 47.6068 391.322 50.5997 388.986 52.9971C387.978 54.0355 386.757 54.967 385.321 55.3335C383.87 55.6999 382.298 55.593 380.816 55.4403C379.152 55.2724 377.488 54.9975 375.838 54.7837C373.904 54.5292 371.975 54.2798 370.051 54.0355C366.59 53.5977 363.129 53.1753 359.667 52.7681C353.116 52.0046 346.55 51.3174 339.969 50.7219C336.64 50.4165 333.342 50.1874 329.997 50.0805C326.546 49.9584 323.08 49.9278 319.614 49.8362C317.995 49.7904 316.376 49.7446 314.758 49.6682C313.444 49.6072 312.162 49.5613 310.879 49.8362C308.039 50.4775 306.084 52.5237 304.863 55.0891C304.679 55.4862 304.099 55.1502 304.282 54.7532V54.7532Z" fill="white"/>
<path d="M301.9 68.1298C301.9 68.817 301.931 69.5194 302.022 70.2066C302.175 71.5504 302.557 72.8941 303.198 74.0852C303.885 75.3679 304.863 76.4215 305.977 77.3378C308.329 79.2618 311.123 80.575 313.964 81.5676C316.804 82.5449 319.736 83.232 322.637 83.965C326.195 84.866 329.753 85.6753 333.326 86.454C340.412 87.9658 347.543 89.2027 354.613 90.6686C360.981 91.9819 367.333 93.4325 373.823 94.0128C376.098 94.2113 378.45 94.2724 380.679 93.6921C382.924 93.1118 384.787 91.7833 385.856 89.6913C386.054 89.3096 386.634 89.6455 386.436 90.0273C386.161 90.577 385.83 91.086 385.443 91.5543C382.405 95.2955 376.846 95.0359 372.525 94.5472C365.668 93.7684 358.95 92.2109 352.185 90.8519C344.84 89.3859 337.464 88.0727 330.15 86.4388C326.699 85.66 323.248 84.8201 319.812 83.9497C316.834 83.2015 313.842 82.3769 311.017 81.1248C308.314 79.9337 305.489 78.2998 303.626 75.9329C301.854 73.7035 301.244 70.9396 301.228 68.1298C301.228 67.7023 301.9 67.7023 301.9 68.1298V68.1298Z" fill="white"/>
</svg>
