<svg width="7" height="7" viewBox="0 0 7 7" fill="none" xmlns="http://www.w3.org/2000/svg">
<path d="M3.28997 -3.05176e-05C3.67379 -3.05176e-05 4.00279 0.328967 4.00279 0.712792C4.00279 2.43087 4.00279 4.14284 4.00279 5.84873C4.00279 6.23256 3.67379 6.56155 3.28997 6.56155C2.90615 6.56155 2.57715 6.23256 2.57715 5.84873C2.57715 4.14284 2.57715 2.43087 2.57715 0.712792C2.57715 0.328967 2.90615 -3.05176e-05 3.28997 -3.05176e-05Z" fill="white"/>
<path d="M0 3.28985C0 2.90602 0.328997 2.57705 0.712821 2.57705C2.43089 2.57705 4.14286 2.57705 5.84875 2.57705C6.23257 2.57705 6.56157 2.88774 6.56157 3.28985C6.56157 3.67367 6.23257 3.98439 5.84875 3.98439C4.14286 3.98439 2.43089 3.98439 0.712821 3.98439C0.328997 3.98439 0 3.67367 0 3.28985Z" fill="white"/>
</svg>
